<svg width="629" height="237" viewBox="0 0 629 237" fill="none" xmlns="http://www.w3.org/2000/svg">
<g opacity="0.4">
<rect width="107.857" height="227.159" transform="matrix(-0.707107 -0.707107 -0.707107 0.707107 283 196.484)" fill="url(#paint0_linear_1666_88617)"/>
<rect width="107.857" height="227.159" transform="matrix(-0.707107 -0.707107 -0.707107 0.707107 237.484 181.563)" fill="url(#paint1_linear_1666_88617)"/>
</g>
<g opacity="0.4">
<rect x="283.406" y="43.9238" width="107.857" height="227.159" transform="rotate(135 283.406 43.9238)" fill="url(#paint2_linear_1666_88617)"/>
<rect x="237.891" y="58.8452" width="107.857" height="227.159" transform="rotate(135 237.891 58.8452)" fill="url(#paint3_linear_1666_88617)"/>
</g>
<g opacity="0.4">
<rect x="346" y="196.484" width="107.857" height="227.159" transform="rotate(-45 346 196.484)" fill="url(#paint4_linear_1666_88617)"/>
<rect x="391.516" y="181.563" width="107.857" height="227.159" transform="rotate(-45 391.516 181.563)" fill="url(#paint5_linear_1666_88617)"/>
</g>
<g opacity="0.4">
<rect width="107.857" height="227.159" transform="matrix(0.707107 0.707107 0.707107 -0.707107 346 43.9238)" fill="url(#paint6_linear_1666_88617)"/>
<rect width="107.857" height="227.159" transform="matrix(0.707107 0.707107 0.707107 -0.707107 391.516 58.8452)" fill="url(#paint7_linear_1666_88617)"/>
</g>
<defs>
<linearGradient id="paint0_linear_1666_88617" x1="8.14014" y1="250.596" x2="106.573" y2="85.3815" gradientUnits="userSpaceOnUse">
<stop stop-color="white"/>
<stop offset="1" stop-color="white" stop-opacity="0"/>
</linearGradient>
<linearGradient id="paint1_linear_1666_88617" x1="8.14014" y1="250.596" x2="106.573" y2="85.3815" gradientUnits="userSpaceOnUse">
<stop stop-color="white"/>
<stop offset="1" stop-color="white" stop-opacity="0"/>
</linearGradient>
<linearGradient id="paint2_linear_1666_88617" x1="291.546" y1="294.52" x2="389.979" y2="129.305" gradientUnits="userSpaceOnUse">
<stop stop-color="white"/>
<stop offset="1" stop-color="white" stop-opacity="0"/>
</linearGradient>
<linearGradient id="paint3_linear_1666_88617" x1="246.031" y1="309.442" x2="344.463" y2="144.227" gradientUnits="userSpaceOnUse">
<stop stop-color="white"/>
<stop offset="1" stop-color="white" stop-opacity="0"/>
</linearGradient>
<linearGradient id="paint4_linear_1666_88617" x1="354.14" y1="447.081" x2="452.573" y2="281.866" gradientUnits="userSpaceOnUse">
<stop stop-color="white"/>
<stop offset="1" stop-color="white" stop-opacity="0"/>
</linearGradient>
<linearGradient id="paint5_linear_1666_88617" x1="399.656" y1="432.159" x2="498.088" y2="266.945" gradientUnits="userSpaceOnUse">
<stop stop-color="white"/>
<stop offset="1" stop-color="white" stop-opacity="0"/>
</linearGradient>
<linearGradient id="paint6_linear_1666_88617" x1="8.14014" y1="250.596" x2="106.573" y2="85.3815" gradientUnits="userSpaceOnUse">
<stop stop-color="white"/>
<stop offset="1" stop-color="white" stop-opacity="0"/>
</linearGradient>
<linearGradient id="paint7_linear_1666_88617" x1="8.14014" y1="250.596" x2="106.573" y2="85.3815" gradientUnits="userSpaceOnUse">
<stop stop-color="white"/>
<stop offset="1" stop-color="white" stop-opacity="0"/>
</linearGradient>
</defs>
</svg>
