<svg width="29" height="22" viewBox="0 0 29 22" fill="none" xmlns="http://www.w3.org/2000/svg">
<path d="M0.336648 22V16.1364C0.336648 14.4058 0.662405 12.5836 1.31392 10.6697C1.96544 8.75592 2.87145 6.92353 4.03196 5.17258C5.19247 3.42164 6.55658 1.92519 8.12429 0.683239L12.6442 3.92045C11.4022 5.73248 10.3435 7.62594 9.46804 9.60085C8.59257 11.5758 8.15483 13.7237 8.15483 16.0447V22H0.336648ZM15.9119 22V16.1364C15.9119 14.4058 16.2377 12.5836 16.8892 10.6697C17.5407 8.75592 18.4467 6.92353 19.6072 5.17258C20.7678 3.42164 22.1319 1.92519 23.6996 0.683239L28.2195 3.92045C26.9775 5.73248 25.9188 7.62594 25.0433 9.60085C24.1679 11.5758 23.7301 13.7237 23.7301 16.0447V22H15.9119Z" fill="#00CC99"/>
</svg>
