<svg width="88" height="53" viewBox="0 0 88 53" fill="none" xmlns="http://www.w3.org/2000/svg">
<path d="M0.418727 3.20481C-0.575767 1.88711 0.364239 0 2.01511 0H67.0038C67.6312 0 68.2222 0.294406 68.6001 0.795186L87.0907 25.2952C87.6289 26.0083 87.6289 26.9917 87.0907 27.7048L68.6001 52.2048C68.2222 52.7056 67.6312 53 67.0038 53H2.01511C0.364241 53 -0.575766 51.1129 0.418728 49.7952L17.0907 27.7048C17.6289 26.9917 17.6289 26.0083 17.0907 25.2952L0.418727 3.20481Z" fill="#F6F9FC"/>
<path d="M0.817821 2.90361C0.0719514 1.91533 0.776955 0.5 2.01511 0.5H67.0038C67.4743 0.5 67.9176 0.720804 68.201 1.09639L86.6916 25.5964C87.0952 26.1312 87.0952 26.8688 86.6916 27.4036L68.201 51.9036C67.9176 52.2792 67.4743 52.5 67.0038 52.5H2.01511C0.776957 52.5 0.0719523 51.0847 0.817822 50.0964L17.4898 28.006C18.1625 27.1147 18.1625 25.8853 17.4898 24.994L0.817821 2.90361Z" stroke="#687A8B" stroke-opacity="0.2"/>
</svg>
