<svg width="177" height="53" viewBox="0 0 177 53" fill="none" xmlns="http://www.w3.org/2000/svg">
<path d="M0.418727 3.20481C-0.575767 1.88711 0.364239 0 2.01511 0H156.004C156.631 0 157.222 0.294406 157.6 0.795186L176.091 25.2952C176.629 26.0083 176.629 26.9917 176.091 27.7048L157.6 52.2048C157.222 52.7056 156.631 53 156.004 53H2.0151C0.364237 53 -0.575766 51.1129 0.418728 49.7952L17.0907 27.7048C17.6289 26.9917 17.6289 26.0083 17.0907 25.2952L0.418727 3.20481Z" fill="#F6F9FC"/>
<path d="M0.817821 2.90361C0.0719514 1.91533 0.776955 0.5 2.01511 0.5H156.004C156.474 0.5 156.918 0.720804 157.201 1.09639L175.692 25.5964C176.095 26.1312 176.095 26.8688 175.692 27.4036L157.201 51.9036C156.918 52.2792 156.474 52.5 156.004 52.5H2.0151C0.776955 52.5 0.0719512 51.0847 0.817822 50.0964L17.4898 28.006C18.1625 27.1147 18.1625 25.8853 17.4898 24.994L0.817821 2.90361Z" stroke="#687A8B" stroke-opacity="0.2"/>
</svg>
