<svg width="228" height="53" viewBox="0 0 228 53" fill="none" xmlns="http://www.w3.org/2000/svg">
<path d="M0.418727 3.20481C-0.575767 1.88711 0.364239 0 2.01511 0H207.004C207.631 0 208.222 0.294406 208.6 0.795186L227.091 25.2952C227.629 26.0083 227.629 26.9917 227.091 27.7048L208.6 52.2048C208.222 52.7056 207.631 53 207.004 53H2.01511C0.364241 53 -0.575766 51.1129 0.418728 49.7952L17.0907 27.7048C17.6289 26.9917 17.6289 26.0083 17.0907 25.2952L0.418727 3.20481Z" fill="#F6F9FC"/>
<path d="M2.01511 0.5H207.004C207.474 0.5 207.918 0.720802 208.201 1.09639L226.692 25.5964C227.095 26.1312 227.095 26.8688 226.692 27.4036L208.201 51.9036C207.918 52.2792 207.474 52.5 207.004 52.5H2.01511C0.776957 52.5 0.0719523 51.0847 0.817822 50.0964L17.4898 28.006C18.1625 27.1147 18.1625 25.8853 17.4898 24.994L0.817821 2.90361C0.0719514 1.91533 0.776955 0.5 2.01511 0.5Z" stroke="#687A8B" stroke-opacity="0.2"/>
</svg>
