<svg width="51" height="51" viewBox="0 0 51 51" fill="none" xmlns="http://www.w3.org/2000/svg">
<path d="M17.3871 11.4467C19.8539 10.0225 22.6522 9.27271 25.5007 9.27271V25.5L17.3871 11.4467Z" fill="#5A3FFF"/>
<path d="M9.4397 16.2273C11.0674 13.4081 13.4085 11.0669 16.2278 9.43921L25.5005 25.5L9.4397 16.2273Z" fill="#268AFF"/>
<path d="M5.34763 30.8999C4.6385 28.2534 4.45759 25.4932 4.81521 22.7767C5.17283 20.0603 6.06199 17.441 7.43192 15.0682L25.5004 25.5L5.34763 30.8999Z" fill="#1ED6FF"/>
<path d="M41.8922 41.8921C39.0148 44.7695 35.4307 46.8388 31.5001 47.892C27.5695 48.9452 23.4309 48.9452 19.5003 47.892C15.5697 46.8388 11.9856 44.7695 9.10815 41.8921C6.23075 39.0147 4.16146 35.4305 3.10826 31.4999L25.5002 25.5001L41.8922 41.8921Z" fill="#3DFFDC"/>
<path d="M25.5 0C30.5434 6.01422e-08 35.4736 1.49555 39.667 4.29752C43.8605 7.0995 47.1289 11.0821 49.0589 15.7416C50.989 20.4011 51.4939 25.5283 50.51 30.4748C49.5261 35.4213 47.0975 39.965 43.5312 43.5312L25.5 25.5V0Z" fill="#36F097"/>
</svg>
