<?xml version="1.0" encoding="UTF-8"?>
<svg id="Object" xmlns="http://www.w3.org/2000/svg" viewBox="0 0 499.45 514.49">
  <defs>
    <style>
      .cls-1 {
        fill: #fff;
      }

      .cls-2 {
        fill: #536780;
      }
    </style>
  </defs>
  <path class="cls-2" d="m8.9,319.34l-8.9,7.4,129.56,16.11c18.82,7.49,38.45,12.84,58.69,16.11,6.8-65.87,76.81-117.82,161.98-117.82,34.51,0,66.51,8.55,92.86,23.08,16.47-24.83,25.82-52.98,25.82-82.82C468.91,81.38,364.33,0,235.78,0S2.63,81.38,2.63,181.4c0,35.91,13.47,70.49,38.99,100.33l-.21.16,2.49,2.64c-2.87,5.82-19.74,22.11-35,34.81ZM80.55,100.91h303.92v16.51H80.55v-16.51Zm0,61.23h303.92v16.51H80.55v-16.51Zm0,61.24h160.91v16.51H80.55v-16.51Z"/>
  <path class="cls-2" d="m201,369.49c0,63.42,66.96,115.01,149.23,115.01,18.19,0,36.08-2.57,53.17-7.61l3.63-1.07,41.84,38.67v-58.85l2.78-2c30.37-21.76,47.79-52.44,47.79-84.15,0-63.41-66.96-115.01-149.22-115.01s-149.23,51.6-149.23,115.01Z"/>
  <rect class="cls-1" x="80.55" y="100.91" width="303.92" height="16.51"/>
  <rect class="cls-1" x="80.55" y="162.15" width="303.92" height="16.51"/>
  <rect class="cls-1" x="80.55" y="223.39" width="160.91" height="16.51"/>
</svg>