<svg width="172" height="76" viewBox="0 0 172 76" fill="none" xmlns="http://www.w3.org/2000/svg">
	<g opacity="0.4">
		<circle cx="98" cy="2" r="2" fill="#8492A7" />
		<circle cx="98" cy="26" r="2" fill="#8492A7" />
		<circle cx="98" cy="50" r="2" fill="#8492A7" />
		<circle cx="98" cy="74" r="2" fill="#8492A7" />
		<circle cx="122" cy="2" r="2" fill="#8492A7" />
		<circle cx="122" cy="26" r="2" fill="#8492A7" />
		<circle cx="122" cy="50" r="2" fill="#8492A7" />
		<circle cx="122" cy="74" r="2" fill="#8492A7" />
		<circle cx="146" cy="2" r="2" fill="#8492A7" />
		<circle cx="146" cy="26" r="2" fill="#8492A7" />
		<circle cx="146" cy="50" r="2" fill="#8492A7" />
		<circle cx="146" cy="74" r="2" fill="#8492A7" />
		<circle cx="170" cy="2" r="2" fill="#8492A7" />
		<circle cx="170" cy="26" r="2" fill="#8492A7" />
		<circle cx="170" cy="50" r="2" fill="#8492A7" />
		<circle cx="170" cy="74" r="2" fill="#8492A7" />
	</g>
	<g opacity="0.4">
		<circle cx="2" cy="2" r="2" fill="#8492A7" />
		<circle cx="2" cy="26" r="2" fill="#8492A7" />
		<circle cx="2" cy="50" r="2" fill="#8492A7" />
		<circle cx="2" cy="74" r="2" fill="#8492A7" />
		<circle cx="26" cy="2" r="2" fill="#8492A7" />
		<circle cx="26" cy="26" r="2" fill="#8492A7" />
		<circle cx="26" cy="50" r="2" fill="#8492A7" />
		<circle cx="26" cy="74" r="2" fill="#8492A7" />
		<circle cx="50" cy="2" r="2" fill="#8492A7" />
		<circle cx="50" cy="26" r="2" fill="#8492A7" />
		<circle cx="50" cy="50" r="2" fill="#8492A7" />
		<circle cx="50" cy="74" r="2" fill="#8492A7" />
		<circle cx="74" cy="2" r="2" fill="#8492A7" />
		<circle cx="74" cy="26" r="2" fill="#8492A7" />
		<circle cx="74" cy="50" r="2" fill="#8492A7" />
		<circle cx="74" cy="74" r="2" fill="#8492A7" />
	</g>
</svg>
