<svg width="16" height="16" viewBox="0 0 16 16" fill="none" xmlns="http://www.w3.org/2000/svg">
<path d="M6.00065 14.6663H10.0007C13.334 14.6663 14.6673 13.333 14.6673 9.99967V5.99967C14.6673 2.66634 13.334 1.33301 10.0007 1.33301H6.00065C2.66732 1.33301 1.33398 2.66634 1.33398 5.99967V9.99967C1.33398 13.333 2.66732 14.6663 6.00065 14.6663Z" stroke="#8492A7" stroke-width="1.1" stroke-linecap="round" stroke-linejoin="round"/>
<path d="M10.334 6.5C10.8863 6.5 11.334 6.05228 11.334 5.5C11.334 4.94772 10.8863 4.5 10.334 4.5C9.7817 4.5 9.33398 4.94772 9.33398 5.5C9.33398 6.05228 9.7817 6.5 10.334 6.5Z" stroke="#8492A7" stroke-width="1.1" stroke-linecap="round" stroke-linejoin="round"/>
<path d="M5.66602 6.5C6.2183 6.5 6.66602 6.05228 6.66602 5.5C6.66602 4.94772 6.2183 4.5 5.66602 4.5C5.11373 4.5 4.66602 4.94772 4.66602 5.5C4.66602 6.05228 5.11373 6.5 5.66602 6.5Z" stroke="#8492A7" stroke-width="1.1" stroke-linecap="round" stroke-linejoin="round"/>
<path d="M5.6 8.86621H10.4C10.7333 8.86621 11 9.13288 11 9.46621C11 11.1262 9.66 12.4662 8 12.4662C6.34 12.4662 5 11.1262 5 9.46621C5 9.13288 5.26667 8.86621 5.6 8.86621Z" stroke="#8492A7" stroke-width="1.1" stroke-linecap="round" stroke-linejoin="round"/>
</svg>
