<svg width="16" height="16" viewBox="0 0 16 16" fill="none" xmlns="http://www.w3.org/2000/svg">
<path d="M6.00065 14.6663H10.0007C13.334 14.6663 14.6673 13.333 14.6673 9.99967V5.99967C14.6673 2.66634 13.334 1.33301 10.0007 1.33301H6.00065C2.66732 1.33301 1.33398 2.66634 1.33398 5.99967V9.99967C1.33398 13.333 2.66732 14.6663 6.00065 14.6663Z" stroke="#8492A7" stroke-width="1.1" stroke-linecap="round" stroke-linejoin="round"/>
<path d="M5.99935 6.66667C6.73573 6.66667 7.33268 6.06971 7.33268 5.33333C7.33268 4.59695 6.73573 4 5.99935 4C5.26297 4 4.66602 4.59695 4.66602 5.33333C4.66602 6.06971 5.26297 6.66667 5.99935 6.66667Z" stroke="#8492A7" stroke-width="1.1" stroke-linecap="round" stroke-linejoin="round"/>
<path d="M1.7793 12.633L5.06596 10.4264C5.59263 10.073 6.35263 10.113 6.82596 10.5197L7.04596 10.713C7.56596 11.1597 8.40596 11.1597 8.92596 10.713L11.6993 8.33305C12.2193 7.88638 13.0593 7.88638 13.5793 8.33305L14.666 9.26638" stroke="#8492A7" stroke-width="1.1" stroke-linecap="round" stroke-linejoin="round"/>
</svg>
