<svg width="36" height="36" viewBox="0 0 36 36" fill="none" xmlns="http://www.w3.org/2000/svg">
<path d="M17.9941 3.375C9.29994 3.375 2.25 8.96824 2.25 15.8705C2.25 20.3332 5.19536 24.2426 9.63115 26.462L8.03427 32.204C8.03427 32.204 8.00469 32.4718 8.17621 32.5729C8.34773 32.6741 8.55473 32.5967 8.55473 32.5967C9.05154 32.5253 14.2917 28.8183 15.2084 28.1757C16.1133 28.3066 17.0537 28.372 18.0059 28.372C26.7001 28.372 33.75 22.7788 33.75 15.8765C33.75 8.97419 26.6882 3.375 17.9941 3.375Z" fill="black"/>
<path d="M9.28774 20.226C8.78501 20.226 8.37692 19.8333 8.37692 19.3513V13.9187H6.95747C6.46658 13.9187 6.07031 13.52 6.07031 13.0262C6.07031 12.5323 6.47249 12.1336 6.95747 12.1336H11.6121C12.103 12.1336 12.4992 12.5323 12.4992 13.0262C12.4992 13.52 12.0971 13.9187 11.6121 13.9187H10.1926V19.3513C10.1926 19.8273 9.77863 20.226 9.28182 20.226H9.28774ZM17.2544 20.2141C16.8759 20.2141 16.5861 20.0594 16.4974 19.8095L16.0479 18.6194H13.2799L12.8305 19.8095C12.7417 20.0594 12.4519 20.2141 12.0734 20.2141C11.8723 20.2141 11.6771 20.1724 11.4938 20.0951C11.2454 19.9761 11.0029 19.6607 11.2809 18.7979L13.4515 13.044C13.6052 12.6037 14.0725 12.1515 14.6639 12.1396C15.2553 12.1277 15.7285 12.6037 15.8764 13.044L18.0469 18.7979C18.3249 19.6607 18.0824 19.988 17.834 20.0951C17.6566 20.1784 17.4555 20.2141 17.2544 20.2141ZM15.5688 17.0009L14.6639 14.4066L13.759 17.0009H15.5688ZM19.5078 20.0951C19.0346 20.0951 18.6384 19.7202 18.6384 19.262V13.044C18.6384 12.5383 19.0524 12.1277 19.5669 12.1277C20.0815 12.1277 20.4955 12.5442 20.4955 13.044V18.4112H22.4236C22.8967 18.4112 23.293 18.786 23.293 19.2442C23.293 19.7024 22.9026 20.0772 22.4236 20.0772L19.5078 20.0951ZM23.6419 19.2977V13.05C23.6419 12.5442 24.0559 12.1336 24.5528 12.1336C25.0496 12.1336 25.4636 12.5502 25.4636 13.05V15.0136L28.0068 12.455C28.2867 12.1733 28.8159 12.198 29.1364 12.5204C29.4374 12.8233 29.5157 13.3352 29.2015 13.6569L27.1196 15.7395L29.3552 18.7146C29.6556 19.1015 29.5827 19.704 29.1778 19.988C28.7786 20.2855 28.1921 20.1863 27.9062 19.8095L25.777 16.9712L25.4636 17.2866V19.2799C25.4636 20.4672 23.6419 20.5129 23.6419 19.2977Z" fill="#FFE812"/>
</svg>
