<svg width="36" height="36" viewBox="0 0 36 36" fill="none" xmlns="http://www.w3.org/2000/svg">
<path d="M33.75 16.3101C33.75 9.17766 26.6849 3.375 17.9998 3.375C9.31606 3.375 2.25 9.17766 2.25 16.3101C2.25 22.7044 7.85321 28.0594 15.422 29.072C15.935 29.1838 16.633 29.4142 16.8096 29.8579C16.9685 30.261 16.9135 30.8923 16.8604 31.2993C16.8604 31.2993 16.6756 32.424 16.6357 32.6636C16.5672 33.0666 16.3193 34.2397 17.9998 33.5229C19.681 32.806 27.0704 28.1177 30.3747 24.2685C32.6573 21.7354 33.75 19.1647 33.75 16.3101Z" fill="#2CCF54"/>
<path d="M14.7995 12.8525H13.6948C13.5254 12.8525 13.3877 12.9914 13.3877 13.162V20.0993C13.3877 20.2702 13.5254 20.4088 13.6948 20.4088H14.7995C14.9689 20.4088 15.1063 20.2702 15.1063 20.0993V13.162C15.1063 12.9914 14.9689 12.8525 14.7995 12.8525Z" fill="white"/>
<path d="M22.404 12.8525H21.2993C21.1299 12.8525 20.9925 12.9914 20.9925 13.162V17.2835L17.8476 12.9901C17.7895 12.902 17.6951 12.8583 17.5922 12.8525H16.4877C16.3183 12.8525 16.1807 12.9914 16.1807 13.162V20.0993C16.1807 20.2702 16.3183 20.4088 16.4877 20.4088H17.5922C17.7619 20.4088 17.8992 20.2702 17.8992 20.0993V15.979L21.0481 20.2779C21.1046 20.3589 21.2006 20.4088 21.2993 20.4088H22.404C22.5737 20.4088 22.7108 20.2702 22.7108 20.0993V13.162C22.7108 12.9914 22.5737 12.8525 22.404 12.8525Z" fill="white"/>
<path d="M12.1371 18.6717H9.13527V13.1624C9.13527 12.9912 8.9979 12.8523 8.82881 12.8523H7.72375C7.55437 12.8523 7.41699 12.9912 7.41699 13.1624V20.0985C7.41699 20.2669 7.55376 20.4089 7.72345 20.4089H12.1371C12.3064 20.4089 12.4432 20.2698 12.4432 20.0985V18.9818C12.4432 18.8106 12.3064 18.6717 12.1371 18.6717Z" fill="white"/>
<path d="M28.5052 14.5896C28.6746 14.5896 28.8114 14.451 28.8114 14.2795V13.1627C28.8114 12.9915 28.6746 12.8523 28.5052 12.8523H24.0919C23.9224 12.8523 23.7852 12.9941 23.7852 13.1624V20.0988C23.7852 20.2667 23.922 20.4089 24.0913 20.4089H28.5052C28.6746 20.4089 28.8114 20.2698 28.8114 20.0988V18.9818C28.8114 18.8109 28.6746 18.6717 28.5052 18.6717H25.5037V17.4991H28.5052C28.6746 17.4991 28.8114 17.3602 28.8114 17.189V16.0722C28.8114 15.901 28.6746 15.7619 28.5052 15.7619H25.5037V14.5896H28.5052Z" fill="white"/>
</svg>
