<svg width="36" height="36" viewBox="0 0 36 36" fill="none" xmlns="http://www.w3.org/2000/svg">
<path fill-rule="evenodd" clip-rule="evenodd" d="M13.5089 5.62637C7.35965 5.53597 2.25 9.94463 2.25 15.1441C2.25 18.1455 3.69685 20.7492 6.49754 22.6609C6.49754 22.6609 5.47109 25.9659 5.48569 26.0321C5.50028 26.0985 5.72368 26.2287 5.80143 26.1862C5.87918 26.1436 9.51196 24.0299 9.51196 24.0299C12.1154 24.9019 13.7036 24.6873 13.9746 24.6507C13.9934 24.6482 14.0059 24.6465 14.0119 24.6461C13.7341 23.8523 13.552 22.6164 13.7593 21.4515C14.8447 15.3549 21.2424 13.4584 24.7487 13.7824C23.7805 9.37953 19.5748 5.71548 13.5089 5.62637ZM9.23477 10.6304C8.42811 10.6304 7.77431 11.2684 7.77431 12.0556C7.77431 12.8428 8.42811 13.4808 9.23477 13.4808C10.0414 13.4808 10.6954 12.8428 10.6954 12.0556C10.6954 11.2684 10.0414 10.6304 9.23477 10.6304ZM18.0768 10.6304C17.2703 10.6304 16.6163 11.2684 16.6163 12.0556C16.6163 12.8428 17.2703 13.4808 18.0768 13.4808C18.8834 13.4808 19.5374 12.8428 19.5374 12.0556C19.5374 11.2684 18.8836 10.6304 18.0768 10.6304Z" fill="#31CE6F"/>
<path fill-rule="evenodd" clip-rule="evenodd" d="M33.75 22.3791C33.75 17.9247 29.3348 14.5128 24.2127 14.5128C18.7893 14.5128 14.4637 18.0018 14.4637 22.4559C14.4637 26.9182 18.578 30.6123 24.2189 30.6425C25.3543 30.6488 27.0454 30.364 28.1857 29.8992C28.1857 29.8992 30.9116 31.5118 31.0643 31.4999C31.2168 31.4879 31.2951 31.37 31.3011 31.2689C31.3072 31.1678 30.4326 28.6507 30.4326 28.6507C32.7732 26.8623 33.75 24.8917 33.75 22.3791ZM20.6431 18.2087C19.9294 18.2087 19.3509 18.7741 19.3509 19.4718C19.3509 20.1693 19.9294 20.7348 20.6431 20.7348C21.3567 20.7348 21.9352 20.1694 21.9352 19.4718C21.9352 18.7741 21.3567 18.2087 20.6431 18.2087ZM27.5527 18.2087C26.8391 18.2087 26.2605 18.7741 26.2605 19.4718C26.2605 20.1693 26.8391 20.7348 27.5527 20.7348C28.2665 20.7348 28.8451 20.1694 28.8451 19.4718C28.8451 18.7741 28.2665 18.2087 27.5527 18.2087Z" fill="#31CE6F"/>
</svg>
