<svg width="55" height="54" viewBox="0 0 55 54" fill="none" xmlns="http://www.w3.org/2000/svg">
<path fill-rule="evenodd" clip-rule="evenodd" d="M12.0462 4.85712C10.1148 6.20761 8.36831 7.80432 6.85219 9.60174C13.0478 9.02654 20.919 9.96577 30.0574 14.535C39.816 19.4142 47.6741 19.5792 53.143 18.5243C52.6467 17.0219 52.0219 15.5779 51.282 14.2052C45.0216 14.8655 36.9959 13.9915 27.6425 9.31497C21.7031 6.34524 16.4675 5.12191 12.0462 4.85712ZM47.625 8.99998C42.6811 3.47625 35.4966 0 27.5 0C25.1516 0 22.8731 0.299845 20.701 0.863299C23.6429 1.66602 26.7681 2.84038 30.0574 4.48506C36.9054 7.90901 42.8176 9.01147 47.625 8.99998ZM54.3122 23.7979C47.7053 25.1026 38.5819 24.8346 27.6425 19.3649C17.4155 14.2514 9.27559 14.3158 3.78577 15.5358C3.5024 15.5987 3.22571 15.6648 2.95569 15.7337C2.23694 17.2969 1.66321 18.9406 1.25155 20.6476C1.69122 20.5301 2.14556 20.4185 2.61432 20.3142C9.27443 18.8342 18.6846 18.8985 30.0574 24.585C40.2846 29.6985 48.4245 29.6341 53.9144 28.4141C54.1024 28.3724 54.2878 28.3292 54.47 28.2846C54.49 27.859 54.5 27.4306 54.5 27C54.5 25.9166 54.4363 24.8481 54.3122 23.7979ZM53.5885 33.9826C47.0457 35.1264 38.1879 34.6874 27.6425 29.4149C17.4155 24.3013 9.27559 24.3657 3.78577 25.5857C2.56719 25.8564 1.47097 26.1862 0.503956 26.5344C0.501319 26.6892 0.5 26.8445 0.5 27C0.5 41.9117 12.5883 54 27.5 54C39.9971 54 50.5112 45.5097 53.5885 33.9826Z" fill="white"/>
</svg>
