<svg width="36" height="36" viewBox="0 0 36 36" fill="none" xmlns="http://www.w3.org/2000/svg">
<ellipse cx="11.8125" cy="11.25" rx="9.5625" ry="9" fill="#184AA9"/>
<circle cx="24.75" cy="24.75" r="9" fill="#2173F0"/>
<circle cx="18" cy="18" r="14.625" fill="url(#paint0_linear_438_38366)"/>
<path d="M18.0774 10.125C20.4549 10.125 23.625 11.25 22.8325 12.75C21.7493 14.8002 19.6624 12.75 18.0774 12.75C16.4923 12.75 15.6998 13.5 15.6998 14.25C15.6998 15 16.0961 15.75 18.0774 16.5C20.0587 17.25 23.625 18.375 23.625 21.375C23.625 24.375 20.8512 25.875 17.2848 25.875C14.0901 25.875 11.7372 24.375 12.5297 22.875C13.4411 21.15 15.6998 23.25 17.2848 23.25C18.8699 23.25 20.4549 22.875 20.4549 21.375C20.4549 19.875 18.0773 19.5 16.4923 18.75C14.511 17.8125 12.5297 16.875 12.5297 14.25C12.5297 11.625 15.6998 10.125 18.0774 10.125Z" fill="white"/>
<defs>
<linearGradient id="paint0_linear_438_38366" x1="6.625" y1="9.0625" x2="28.5625" y2="27.3437" gradientUnits="userSpaceOnUse">
<stop stop-color="#297AC0"/>
<stop offset="1" stop-color="#48B0F9"/>
</linearGradient>
</defs>
</svg>
