<svg width="36" height="36" viewBox="0 0 36 36" fill="none" xmlns="http://www.w3.org/2000/svg">
<path fill-rule="evenodd" clip-rule="evenodd" d="M18 31.7015C26.0772 31.7015 32.625 25.3604 32.625 17.5383C32.625 9.71611 26.0772 3.375 18 3.375C9.92284 3.375 3.375 9.71611 3.375 17.5383C3.375 21.7926 5.3119 25.6088 8.37829 28.205V31.0711C8.37829 32.1913 9.5193 32.9426 10.5366 32.4923L13.7171 31.0845C15.0717 31.4857 16.5098 31.7015 18 31.7015Z" fill="url(#paint0_linear_438_38331)"/>
<path d="M14.4979 14.5275L10.2569 20.3276C9.80217 20.9494 10.6199 21.6965 11.2425 21.228L14.8638 18.5027C15.2324 18.2253 15.7491 18.2216 16.122 18.4936L19.3427 20.8431C19.9604 21.2937 20.8431 21.1641 21.2928 20.5568L25.7406 14.5508C26.2018 13.9279 25.3778 13.1748 24.7543 13.6494L20.9257 16.5641C20.557 16.8447 20.0376 16.8499 19.663 16.5766L16.4527 14.2347C15.8325 13.7823 14.9457 13.9151 14.4979 14.5275Z" fill="white"/>
<defs>
<linearGradient id="paint0_linear_438_38331" x1="18" y1="3.375" x2="13.3072" y2="32.4656" gradientUnits="userSpaceOnUse">
<stop stop-color="#00B1FF"/>
<stop offset="1" stop-color="#006BFF"/>
</linearGradient>
</defs>
</svg>
