<svg width="36" height="36" viewBox="0 0 36 36" fill="none" xmlns="http://www.w3.org/2000/svg">
<path fill-rule="evenodd" clip-rule="evenodd" d="M33.75 17.3008C33.75 6.98287 30.1154 2.25 18 2.25C5.88462 2.25 2.25 6.98287 2.25 17.3008C2.25 24.6437 4.09083 29.1579 9.51923 31.1507V34.6246C9.51923 35.9033 11.1236 36.4874 11.9547 35.5113L14.7559 32.2212C15.7627 32.3083 16.8427 32.3515 18 32.3515C30.1154 32.3515 33.75 27.6187 33.75 17.3008ZM15.4252 29.848C16.2283 29.9118 17.0856 29.9434 18 29.9434C28.2515 29.9434 31.3269 25.9678 31.3269 17.3008C31.3269 8.63373 28.2515 4.65812 18 4.65812C7.74852 4.65812 4.67308 8.63373 4.67308 17.3008C4.67308 23.4269 6.20961 27.2092 10.7308 28.9003V34.0469C10.7308 34.4955 11.2937 34.7005 11.5853 34.358L15.4252 29.848Z" fill="#BFC8D0"/>
<path d="M18 29.0866C17.0737 29.0866 16.2053 29.0545 15.3917 28.9896L11.502 33.5756C11.2066 33.9239 10.6364 33.7155 10.6364 33.2593V28.0259C6.05649 26.3063 4.5 22.4603 4.5 16.2308C4.5 7.41764 7.61538 3.375 18 3.375C28.3846 3.375 31.5 7.41764 31.5 16.2308C31.5 25.044 28.3846 29.0866 18 29.0866Z" fill="#9179EE"/>
<path fill-rule="evenodd" clip-rule="evenodd" d="M33.75 16.1758C33.75 5.85787 30.1154 1.125 18 1.125C5.88462 1.125 2.25 5.85787 2.25 16.1758C2.25 23.5187 4.09083 28.0329 9.51923 30.0257V33.4996C9.51923 34.7783 11.1236 35.3624 11.9547 34.3863L14.7559 31.0962C15.7627 31.1833 16.8427 31.2265 18 31.2265C30.1154 31.2265 33.75 26.4937 33.75 16.1758ZM15.4252 28.723C16.2283 28.7868 17.0856 28.8184 18 28.8184C28.2515 28.8184 31.3269 24.8428 31.3269 16.1758C31.3269 7.50873 28.2515 3.53312 18 3.53312C7.74852 3.53312 4.67308 7.50873 4.67308 16.1758C4.67308 22.3019 6.20961 26.0842 10.7308 27.7753V32.9219C10.7308 33.3705 11.2937 33.5755 11.5853 33.233L15.4252 28.723Z" fill="white"/>
<path d="M12.9861 13.6513L12.9404 13.6766L12.9001 13.71C12.5889 13.9673 12.1225 14.6739 12.5311 15.5471C12.8715 16.2748 13.6301 17.7608 14.9631 18.8805C16.2666 19.9755 17.6586 20.5645 18.5729 20.7573L18.6303 20.7694H18.6827C18.6853 20.7697 18.6907 20.7703 18.6996 20.7715C18.7214 20.7746 18.7476 20.7791 18.7888 20.7863C18.7959 20.7875 18.8033 20.7888 18.8109 20.7902C19.0923 20.8399 19.7667 20.9592 20.332 20.396C20.6949 20.0344 21.0261 19.6574 21.1685 19.4878C21.2687 19.3965 21.5951 19.2072 22.0079 19.3468C22.7898 19.6111 23.7194 20.2074 24.1687 20.5097C24.5166 20.7439 25.304 21.308 25.6589 21.5643L25.6592 21.5645C25.6887 21.5857 25.7579 21.6554 25.7953 21.7523C25.8252 21.8297 25.8413 21.9362 25.7693 22.0901C25.636 22.3757 25.2299 22.9207 24.68 23.3975C24.1201 23.8831 23.5375 24.1875 23.0706 24.1875C23.0723 24.1875 23.0706 24.1873 23.0653 24.1866C23.0445 24.1838 22.9672 24.1733 22.8141 24.1389C22.6419 24.1003 22.4094 24.0396 22.1252 23.9541C21.5575 23.7833 20.7956 23.517 19.9158 23.1385C18.1547 22.3808 15.9376 21.1811 13.862 19.4144C12.5565 18.3031 11.3247 16.7665 10.3655 15.3282C9.39833 13.8778 8.75133 12.5923 8.57524 11.9987L8.56292 11.9571L8.54437 11.9179C8.50054 11.8253 8.43876 11.6274 8.43752 11.403C8.43632 11.1862 8.49065 10.9791 8.63398 10.8074C9.1065 10.2411 9.6068 9.68467 10.7106 9.15069C10.8134 9.10096 10.9744 9.0571 11.1327 9.05455C11.295 9.05194 11.3796 9.09225 11.4134 9.1219C11.8357 9.4922 12.4903 10.1459 12.9314 10.7045C13.1592 10.9931 13.4346 11.3597 13.664 11.6782C13.7787 11.8375 13.8799 11.982 13.957 12.0968C13.9956 12.1544 14.0264 12.2019 14.0491 12.2387C14.0646 12.2639 14.0729 12.2786 14.0765 12.2849C14.0784 12.2912 14.087 12.3186 14.0946 12.3682C14.1042 12.4306 14.1088 12.5074 14.1023 12.5877C14.089 12.752 14.0349 12.8839 13.9378 12.9729C13.6082 13.2747 13.1614 13.5542 12.9861 13.6513ZM18.3122 7.33161C18.3118 7.33128 18.3115 7.33095 18.3112 7.33065C18.3115 7.33034 18.3118 7.33001 18.3122 7.32968C18.3202 7.32209 18.3369 7.3125 18.3629 7.3125C22.8539 7.3125 26.4357 10.7301 26.4375 14.8759C26.4368 14.8769 26.4356 14.8783 26.4338 14.88C26.4257 14.8876 26.4091 14.8972 26.3831 14.8972C26.357 14.8972 26.3404 14.8876 26.3323 14.88C26.3305 14.8783 26.3293 14.8769 26.3286 14.8759C26.3268 10.6869 22.7286 7.34879 18.3629 7.34879C18.3369 7.34879 18.3202 7.3392 18.3122 7.33161ZM18.3122 11.9768C18.3118 11.9764 18.3115 11.9761 18.3112 11.9758C18.3115 11.9755 18.3118 11.9752 18.3122 11.9748C18.3202 11.9672 18.3369 11.9577 18.3629 11.9577C20.128 11.9577 21.5002 13.2955 21.502 14.8759C21.5013 14.8769 21.5001 14.8783 21.4983 14.88C21.4902 14.8876 21.4736 14.8972 21.4476 14.8972C21.4216 14.8972 21.4049 14.8876 21.3969 14.88C21.395 14.8783 21.3939 14.8769 21.3931 14.8759C21.3914 13.2524 20.0028 11.994 18.3629 11.994C18.3369 11.994 18.3202 11.9844 18.3122 11.9768ZM18.3122 9.65419C18.3118 9.65386 18.3115 9.65354 18.3112 9.65323C18.3115 9.65292 18.3118 9.65259 18.3122 9.65226C18.3202 9.64467 18.3369 9.63508 18.3629 9.63508C21.491 9.63508 23.968 12.0128 23.9698 14.8759C23.969 14.8769 23.9679 14.8783 23.966 14.88C23.958 14.8876 23.9413 14.8972 23.9153 14.8972C23.8893 14.8972 23.8727 14.8876 23.8646 14.88C23.8628 14.8783 23.8616 14.8769 23.8609 14.8759C23.8591 11.9696 21.3657 9.67137 18.3629 9.67137C18.3369 9.67137 18.3202 9.66178 18.3122 9.65419Z" fill="white" stroke="white" stroke-width="1.125" stroke-linecap="round"/>
</svg>
