<svg width="126" height="44" viewBox="0 0 126 44" fill="none" xmlns="http://www.w3.org/2000/svg">
	<path fill-rule="evenodd" clip-rule="evenodd" d="M9.40801 3.95765C7.83428 5.05805 6.41121 6.35908 5.17586 7.82364C10.2241 7.35496 16.6377 8.12025 24.0838 11.8434C32.0353 15.819 38.4382 15.9534 42.8943 15.0939C42.4899 13.8697 41.9808 12.6931 41.3779 11.5746C36.2769 12.1126 29.7374 11.4005 22.1161 7.58998C17.2766 5.1702 13.0105 4.17341 9.40801 3.95765ZM38.3981 7.33331C34.3698 2.8325 28.5157 0 22 0C20.0865 0 18.2299 0.244318 16.46 0.703428C18.8572 1.35749 21.4037 2.31439 24.0838 3.65449C29.6637 6.44438 34.481 7.34268 38.3981 7.33331ZM43.847 19.3909C38.4636 20.4539 31.0297 20.2356 22.1161 15.7788C13.783 11.6122 7.15048 11.6647 2.67729 12.6588C2.4464 12.71 2.22095 12.7639 2.00094 12.82C1.41528 14.0937 0.947798 15.4331 0.612373 16.8239C0.970626 16.7282 1.34082 16.6373 1.72278 16.5523C7.14953 15.3464 14.8171 15.3988 24.0838 20.0322C32.4171 24.1988 39.0496 24.1463 43.5228 23.1522C43.676 23.1182 43.8271 23.083 43.9756 23.0467C43.9919 22.6999 44 22.3509 44 22C44 21.1172 43.9481 20.2466 43.847 19.3909ZM43.2573 27.6895C37.9261 28.6216 30.7087 28.2638 22.1161 23.9677C13.783 19.8011 7.15048 19.8536 2.67729 20.8476C1.68438 21.0682 0.791164 21.3369 0.003223 21.6206C0.0010747 21.7468 0 21.8733 0 22C0 34.1503 9.84973 44 22 44C32.1828 44 40.7498 37.082 43.2573 27.6895Z" fill="#00CC99" />
	<path d="M60.8523 16.5881V13.5455H75.1875V16.5881H69.8438V31H66.196V16.5881H60.8523ZM77.9918 31.2472C77.1566 31.2472 76.4123 31.1023 75.7589 30.8125C75.1055 30.517 74.5884 30.0824 74.2077 29.5085C73.8327 28.929 73.6452 28.2074 73.6452 27.3438C73.6452 26.6165 73.7787 26.0057 74.0458 25.5114C74.3128 25.017 74.6765 24.6193 75.1367 24.3182C75.5969 24.017 76.1197 23.7898 76.7049 23.6364C77.2958 23.483 77.9151 23.375 78.5628 23.3125C79.3242 23.233 79.9378 23.1591 80.4037 23.0909C80.8697 23.017 81.2077 22.9091 81.418 22.767C81.6282 22.625 81.7333 22.4148 81.7333 22.1364V22.0852C81.7333 21.5455 81.5628 21.1278 81.2219 20.8324C80.8867 20.5369 80.4094 20.3892 79.7901 20.3892C79.1367 20.3892 78.6168 20.5341 78.2305 20.8239C77.8441 21.108 77.5884 21.4659 77.4634 21.8977L74.1055 21.625C74.2759 20.8295 74.6111 20.142 75.1111 19.5625C75.6111 18.9773 76.256 18.5284 77.0458 18.2159C77.8412 17.8977 78.7617 17.7386 79.8072 17.7386C80.5344 17.7386 81.2305 17.8239 81.8952 17.9943C82.5657 18.1648 83.1594 18.429 83.6765 18.7869C84.1992 19.1449 84.6111 19.6051 84.9123 20.1676C85.2134 20.7244 85.364 21.392 85.364 22.1705V31H81.9208V29.1847H81.8185C81.6083 29.5938 81.327 29.9545 80.9748 30.267C80.6225 30.5739 80.1992 30.8153 79.7049 30.9915C79.2106 31.1619 78.6395 31.2472 77.9918 31.2472ZM79.0316 28.7415C79.5657 28.7415 80.0373 28.6364 80.4464 28.4261C80.8555 28.2102 81.1765 27.9205 81.4094 27.5568C81.6424 27.1932 81.7589 26.7812 81.7589 26.321V24.9318C81.6452 25.0057 81.489 25.0739 81.2901 25.1364C81.0969 25.1932 80.8782 25.2472 80.6339 25.2983C80.3895 25.3437 80.1452 25.3864 79.9009 25.4261C79.6566 25.4602 79.435 25.4915 79.2361 25.5199C78.81 25.5824 78.4378 25.6818 78.1197 25.8182C77.8015 25.9545 77.5543 26.1392 77.3782 26.3722C77.202 26.5994 77.114 26.8835 77.114 27.2244C77.114 27.7188 77.293 28.0966 77.6509 28.358C78.0145 28.6136 78.4748 28.7415 79.0316 28.7415ZM92.6555 31.2557C91.3146 31.2557 90.1612 30.9716 89.1953 30.4034C88.2351 29.8295 87.4964 29.0341 86.9794 28.017C86.468 27 86.2123 25.8295 86.2123 24.5057C86.2123 23.1648 86.4709 21.9886 86.9879 20.9773C87.5106 19.9602 88.2521 19.1676 89.2123 18.5994C90.1726 18.0256 91.3146 17.7386 92.6385 17.7386C93.7805 17.7386 94.7805 17.946 95.6385 18.3608C96.4964 18.7756 97.1754 19.358 97.6754 20.108C98.1754 20.858 98.451 21.7386 98.5021 22.75H95.076C94.9794 22.0966 94.7237 21.571 94.3089 21.1733C93.8998 20.7699 93.3629 20.5682 92.6981 20.5682C92.1356 20.5682 91.6441 20.7216 91.2237 21.0284C90.8089 21.3295 90.4851 21.7699 90.2521 22.3494C90.0191 22.929 89.9027 23.6307 89.9027 24.4545C89.9027 25.2898 90.0163 26 90.2436 26.5852C90.4765 27.1705 90.8032 27.6165 91.2237 27.9233C91.6441 28.2301 92.1356 28.3835 92.6981 28.3835C93.1129 28.3835 93.4851 28.2983 93.8146 28.1278C94.1498 27.9574 94.4254 27.7102 94.6413 27.3864C94.8629 27.0568 95.0078 26.6619 95.076 26.2017H98.5021C98.4453 27.2017 98.1726 28.0824 97.6839 28.8438C97.201 29.5994 96.5334 30.1903 95.6811 30.6165C94.8288 31.0426 93.8203 31.2557 92.6555 31.2557ZM103.017 23.4318V31H99.3867V13.5455H102.915V20.2188H103.068C103.364 19.446 103.841 18.8409 104.5 18.4034C105.159 17.9602 105.986 17.7386 106.98 17.7386C107.89 17.7386 108.682 17.9375 109.358 18.3352C110.04 18.7273 110.568 19.2926 110.943 20.0312C111.324 20.7642 111.512 21.642 111.506 22.6648V31H107.875V23.3125C107.881 22.5057 107.676 21.8778 107.262 21.429C106.853 20.9801 106.279 20.7557 105.54 20.7557C105.046 20.7557 104.608 20.8608 104.228 21.071C103.853 21.2812 103.557 21.5881 103.341 21.9915C103.131 22.3892 103.023 22.8693 103.017 23.4318ZM118.889 31.2557C117.543 31.2557 116.383 30.983 115.412 30.4375C114.446 29.8864 113.702 29.108 113.179 28.1023C112.656 27.0909 112.395 25.8949 112.395 24.5142C112.395 23.1676 112.656 21.9858 113.179 20.9688C113.702 19.9517 114.437 19.1591 115.386 18.5909C116.341 18.0227 117.46 17.7386 118.744 17.7386C119.608 17.7386 120.412 17.8778 121.156 18.1562C121.906 18.429 122.56 18.8409 123.116 19.392C123.679 19.9432 124.116 20.6364 124.429 21.4716C124.741 22.3011 124.898 23.2727 124.898 24.3864V25.3835H113.844V23.1335H121.48C121.48 22.6108 121.366 22.1477 121.139 21.7443C120.912 21.3409 120.597 21.0256 120.193 20.7983C119.795 20.5653 119.332 20.4489 118.804 20.4489C118.253 20.4489 117.764 20.5767 117.338 20.8324C116.918 21.0824 116.588 21.4205 116.349 21.8466C116.111 22.267 115.989 22.7358 115.983 23.2528V25.392C115.983 26.0398 116.102 26.5994 116.341 27.071C116.585 27.5426 116.929 27.9062 117.372 28.1619C117.815 28.4176 118.341 28.5455 118.949 28.5455C119.352 28.5455 119.722 28.4886 120.057 28.375C120.392 28.2614 120.679 28.0909 120.918 27.8636C121.156 27.6364 121.338 27.358 121.463 27.0284L124.821 27.25C124.651 28.0568 124.301 28.7614 123.773 29.3636C123.25 29.9602 122.574 30.4261 121.744 30.7614C120.92 31.0909 119.969 31.2557 118.889 31.2557Z" fill="white" />
</svg>
