<svg width="44" height="44" viewBox="0 0 44 44" fill="none" xmlns="http://www.w3.org/2000/svg">
  <path fill-rule="evenodd" clip-rule="evenodd" d="M9.40801 3.95765C7.83428 5.05805 6.41121 6.35908 5.17586 7.82364C10.2241 7.35496 16.6377 8.12025 24.0838 11.8434C32.0353 15.819 38.4382 15.9534 42.8943 15.0939C42.4899 13.8697 41.9808 12.6931 41.3779 11.5746C36.2769 12.1126 29.7374 11.4005 22.1161 7.58998C17.2766 5.1702 13.0105 4.17341 9.40801 3.95765ZM38.3981 7.33331C34.3698 2.8325 28.5157 0 22 0C20.0865 0 18.2299 0.244318 16.46 0.703428C18.8572 1.35749 21.4037 2.31439 24.0838 3.65449C29.6637 6.44438 34.481 7.34268 38.3981 7.33331ZM43.847 19.3909C38.4636 20.4539 31.0297 20.2356 22.1161 15.7788C13.783 11.6122 7.15048 11.6647 2.67729 12.6588C2.4464 12.71 2.22095 12.7639 2.00094 12.82C1.41528 14.0937 0.947798 15.4331 0.612373 16.8239C0.970626 16.7282 1.34082 16.6373 1.72278 16.5523C7.14953 15.3464 14.8171 15.3988 24.0838 20.0322C32.4171 24.1988 39.0496 24.1463 43.5228 23.1522C43.676 23.1182 43.8271 23.083 43.9756 23.0467C43.9919 22.6999 44 22.3509 44 22C44 21.1172 43.9481 20.2466 43.847 19.3909ZM43.2573 27.6895C37.9261 28.6216 30.7087 28.2638 22.1161 23.9677C13.783 19.8011 7.15048 19.8536 2.67729 20.8476C1.68438 21.0682 0.791164 21.3369 0.003223 21.6206C0.0010747 21.7468 0 21.8733 0 22C0 34.1503 9.84973 44 22 44C32.1828 44 40.7498 37.082 43.2573 27.6895Z" fill="#00CC99" />
</svg>
