<svg width="36" height="36" viewBox="0 0 36 36" fill="none" xmlns="http://www.w3.org/2000/svg">
<path d="M29.8127 16.8748C31.3659 16.8748 32.625 15.6157 32.625 14.0625C32.625 12.5093 31.3658 11.2502 29.8126 11.2502C28.2593 11.2502 27 12.5094 27 14.0627V16.8748H29.8127ZM21.9375 16.8748C23.4908 16.8748 24.75 15.6156 24.75 14.0623V6.18775C24.75 4.63444 23.4908 3.37524 21.9375 3.37524C20.3842 3.37524 19.125 4.63444 19.125 6.18774V14.0623C19.125 15.6156 20.3842 16.8748 21.9375 16.8748Z" fill="#2EB67D"/>
<path d="M6.18726 19.1252C4.63409 19.1252 3.375 20.3843 3.375 21.9375C3.375 23.4907 4.63421 24.7498 6.18738 24.7498C7.74068 24.7498 9 23.4906 9 21.9373V19.1252H6.18726ZM14.0625 19.1252C12.5092 19.1252 11.25 20.3844 11.25 21.9377V29.8123C11.25 31.3656 12.5092 32.6248 14.0625 32.6248C15.6158 32.6248 16.875 31.3656 16.875 29.8123V21.9377C16.875 20.3844 15.6158 19.1252 14.0625 19.1252Z" fill="#E01E5A"/>
<path d="M19.1255 29.8127C19.1255 31.3659 20.3846 32.625 21.9377 32.625C23.4909 32.625 24.75 31.3658 24.75 29.8126C24.75 28.2593 23.4908 27 21.9375 27L19.1255 27L19.1255 29.8127ZM19.1255 21.9375C19.1255 23.4908 20.3847 24.75 21.938 24.75L29.8125 24.75C31.3658 24.75 32.625 23.4908 32.625 21.9375C32.625 20.3842 31.3658 19.125 29.8125 19.125L21.938 19.125C20.3847 19.125 19.1255 20.3842 19.1255 21.9375Z" fill="#ECB22E"/>
<path d="M16.8745 6.18726C16.8745 4.63409 15.6154 3.375 14.0623 3.375C12.5091 3.375 11.25 4.63421 11.25 6.18738C11.25 7.74068 12.5092 9 14.0625 9L16.8745 9L16.8745 6.18726ZM16.8745 14.0625C16.8745 12.5092 15.6153 11.25 14.062 11.25L6.1875 11.25C4.6342 11.25 3.375 12.5092 3.375 14.0625C3.375 15.6158 4.6342 16.875 6.1875 16.875L14.062 16.875C15.6153 16.875 16.8745 15.6158 16.8745 14.0625Z" fill="#36C5F0"/>
</svg>
