<svg width="16" height="16" viewBox="0 0 16 16" fill="none" xmlns="http://www.w3.org/2000/svg">
<path d="M8 12.6663C10.2067 12.6663 12 10.873 12 8.66634V5.33301C12 3.12634 10.2067 1.33301 8 1.33301C5.79333 1.33301 4 3.12634 4 5.33301V8.66634C4 10.873 5.79333 12.6663 8 12.6663Z" stroke="#8492A7" stroke-width="1.1" stroke-linecap="round" stroke-linejoin="round"/>
<path d="M2 7.33301V8.66634C2 11.9797 4.68667 14.6663 8 14.6663C11.3133 14.6663 14 11.9797 14 8.66634V7.33301" stroke="#8492A7" stroke-width="1.1" stroke-linecap="round" stroke-linejoin="round"/>
<path d="M6.07422 4.98711C7.26089 4.55378 8.55422 4.55378 9.74089 4.98711" stroke="#8492A7" stroke-width="1.1" stroke-linecap="round" stroke-linejoin="round"/>
<path d="M6.6875 6.98629C7.4875 6.76629 8.33417 6.76629 9.13417 6.98629" stroke="#8492A7" stroke-width="1.1" stroke-linecap="round" stroke-linejoin="round"/>
</svg>
