<svg width="368" height="258" viewBox="0 0 368 258" fill="none" xmlns="http://www.w3.org/2000/svg">
<g clip-path="url(#clip0_1905_89723)">
<rect width="368" height="258" rx="6" fill="white"/>
<rect opacity="0.2" width="368" height="258" rx="6" fill="url(#paint0_linear_1905_89723)"/>
<g opacity="0.4">
<rect opacity="0.6" width="320.407" height="93.9592" transform="matrix(0.787958 0.615729 -0.340213 0.940348 -81.0352 -7.63916)" fill="url(#paint1_linear_1905_89723)"/>
<rect opacity="0.6" width="320.407" height="93.9592" transform="matrix(0.787958 0.615729 -0.340213 0.940348 -81.0352 -87)" fill="url(#paint2_linear_1905_89723)"/>
</g>
<g opacity="0.4">
<rect opacity="0.6" width="320.407" height="93.9592" transform="matrix(-0.787958 0.615729 0.340213 0.940348 448.469 -7.63916)" fill="url(#paint3_linear_1905_89723)"/>
<rect opacity="0.6" width="320.407" height="93.9592" transform="matrix(-0.787958 0.615729 0.340213 0.940348 448.469 -87)" fill="url(#paint4_linear_1905_89723)"/>
</g>
<path d="M228.042 70.186L228.042 70.1858C233.405 63.0596 231.975 52.938 224.848 47.5749C217.723 42.2134 207.598 43.6453 202.238 50.7699C198.322 55.9748 196.999 62.9182 197.074 68.9113C197.111 71.9 197.497 74.6191 198.063 76.7241C198.346 77.7772 198.67 78.6615 199.009 79.343C199.356 80.0397 199.688 80.4609 199.954 80.661L199.955 80.6614C200.155 80.812 200.601 80.9845 201.366 81.0938C202.103 81.1994 203.045 81.2342 204.149 81.1849C206.353 81.0863 209.134 80.6548 212.073 79.8413C217.975 78.2075 224.362 75.0775 228.042 70.186Z" fill="url(#paint5_linear_1905_89723)" stroke="url(#paint6_linear_1905_89723)" stroke-width="1.5"/>
<path d="M225.437 66.2983C219.718 73.8993 210.032 76.3531 204.873 72.4729C200.474 69.1617 198.899 58.3009 204.891 50.3379C209.038 44.8249 216.871 43.7178 222.383 47.8658C227.897 52.013 230.333 59.7915 225.437 66.2983Z" fill="url(#paint7_linear_1905_89723)"/>
<path d="M199.46 84.0768L199.46 84.0775C199.504 84.2125 199.562 84.3248 199.62 84.4077C199.628 84.4191 199.636 84.4297 199.644 84.4394C199.724 84.2007 199.765 83.8275 199.765 83.3705C199.764 82.8714 199.715 82.3444 199.664 81.9333C199.633 81.6853 199.456 81.4689 199.194 81.3798C199.053 81.3319 198.91 81.3285 198.781 81.367C198.224 81.5332 197.268 81.8541 196.774 82.1944C196.735 82.221 196.705 82.2445 196.682 82.2644C196.697 82.2728 196.714 82.2815 196.733 82.2904C196.828 82.3354 196.952 82.3742 197.086 82.3991C197.312 82.4398 197.525 82.5219 197.687 82.6885C197.85 82.8559 197.9 83.0478 197.924 83.1559C197.961 83.3244 197.963 83.3452 197.974 83.3531C197.978 83.3556 197.982 83.3568 197.99 83.3613L197.99 83.3613C197.998 83.3666 198.014 83.3771 198.078 83.3778C198.113 83.3781 198.154 83.3755 198.21 83.3703C198.221 83.3692 198.234 83.368 198.248 83.3666C198.294 83.3621 198.352 83.3564 198.404 83.3533C198.542 83.3449 198.771 83.3419 198.995 83.4656C199.234 83.5981 199.377 83.8221 199.46 84.0768ZM199.581 84.5782C199.582 84.5782 199.582 84.5777 199.583 84.5766C199.582 84.5776 199.581 84.5781 199.581 84.5782ZM196.49 81.7827C195.691 82.3343 196.321 82.7661 196.996 82.8909C197.375 82.959 197.41 83.1325 197.448 83.3263C197.478 83.4779 197.511 83.6419 197.713 83.7776C197.901 83.9031 198.109 83.8827 198.306 83.8634C198.589 83.8356 198.847 83.8102 198.985 84.2319C199.216 84.9448 199.79 85.3417 200.064 84.7368C200.367 84.0694 200.264 82.7138 200.16 81.8718C200.104 81.4206 199.786 81.0528 199.355 80.9064C199.123 80.8274 198.873 80.8177 198.638 80.8879C198.092 81.0508 197.06 81.3906 196.49 81.7827Z" fill="url(#paint8_linear_1905_89723)" stroke="url(#paint9_linear_1905_89723)"/>
<path d="M216.808 48.1734C217.127 49.3488 215.492 50.8161 213.154 51.4517C210.818 52.0851 208.665 51.6455 208.347 50.4691C208.027 49.2934 209.662 47.8262 212.001 47.1921C214.336 46.5582 216.489 46.9979 216.808 48.1734Z" fill="white"/>
<path d="M206.991 52.4452C207.744 52.7943 207.793 54.2901 207.102 55.7872C206.411 57.2843 205.239 58.2147 204.486 57.8671C203.731 57.5214 203.682 56.0241 204.374 54.5274C205.064 53.03 206.237 52.0974 206.991 52.4452Z" fill="white"/>
<path d="M194.437 87.5402C194.785 87.8941 195.22 88.0793 195.56 88.1367C196.104 88.2326 196.565 88.0754 196.632 87.7705C196.646 87.7069 196.65 87.6105 196.517 87.5052C196.161 87.2215 195.228 87.1621 194.457 87.5304L194.437 87.5402ZM190.106 91.747L190.064 91.7382C189.94 91.7199 189.839 91.7639 189.755 91.8761C189.718 91.9248 189.608 92.0699 189.768 92.2973C189.955 92.5632 190.394 92.768 190.873 92.768L190.834 92.6403C190.647 92.1025 190.342 91.8102 190.106 91.747ZM188.693 98.9177L188.607 98.8699L188.596 98.5826C190.929 96.0639 191.093 94.1437 190.958 93.1749C190.3 93.2055 189.704 92.9136 189.435 92.531C189.227 92.2385 189.226 91.9014 189.429 91.6316C189.602 91.4012 189.857 91.2936 190.127 91.3361C190.578 91.4108 190.992 91.8546 191.218 92.5076L191.281 92.7165L191.353 92.6957C191.94 92.5127 192.929 91.8211 192.953 89.2511C192.96 88.4874 193.27 87.8572 193.839 87.4284C193.517 86.9194 193.349 86.2423 193.459 85.4052C193.877 82.2685 199.4 81.2132 199.635 81.1702L199.872 81.3335L199.709 81.5704C199.654 81.5806 194.241 82.6144 193.864 85.4587C193.762 86.2283 193.914 86.8002 194.178 87.214L194.281 87.163C195.129 86.7592 196.246 86.7691 196.771 87.1868C196.995 87.3663 197.086 87.6041 197.03 87.8596C196.911 88.3975 196.278 88.6755 195.49 88.5367C194.975 88.4487 194.468 88.1832 194.083 87.7547C193.705 88.0387 193.367 88.5018 193.361 89.2545C193.333 92.0841 192.168 92.8679 191.474 93.0849L191.36 93.1165C191.505 94.1755 191.33 96.2311 188.895 98.8597L188.693 98.9177Z" fill="#536780"/>
<path d="M200.376 82.0549L200.348 82.0449C199.698 81.7648 199.117 81.3272 198.668 80.7804L198.696 80.4936L198.982 80.5218C199.39 81.0188 199.919 81.4161 200.509 81.6715C200.613 81.7156 200.661 81.8358 200.616 81.9383L200.376 82.0549Z" fill="#536780"/>
<path d="M145.683 75.3656L145.683 75.3655C141.102 70.7753 141.111 63.3431 145.701 58.7625C150.291 54.1832 157.725 54.1929 162.304 58.7821C165.662 62.1488 167.333 67.0483 167.889 71.4192C168.167 73.5967 168.163 75.6103 167.967 77.191C167.869 77.982 167.724 78.6492 167.551 79.1672C167.372 79.7014 167.184 80.0102 167.042 80.1526L167.041 80.153C166.946 80.2478 166.677 80.4087 166.137 80.5648C165.623 80.7132 164.95 80.8337 164.145 80.91C162.537 81.0624 160.472 81.0324 158.25 80.74C153.781 80.1518 148.834 78.5249 145.683 75.3656Z" fill="url(#paint10_linear_1905_89723)" stroke="url(#paint11_linear_1905_89723)" stroke-width="1.5"/>
<path d="M147.049 72.3911C152.015 77.3688 159.357 78.1717 162.736 74.8022C165.617 71.927 165.656 63.815 160.453 58.6003C156.852 54.9899 151.004 54.9829 147.394 58.5847C143.784 62.1861 142.798 68.1301 147.049 72.3911Z" fill="url(#paint12_linear_1905_89723)"/>
<path d="M167.513 83.2866L167.513 83.2866L167.513 83.2866ZM167.513 83.2866C167.223 82.8291 167.159 81.8263 167.149 81.1992C167.144 80.8632 167.339 80.5613 167.639 80.41C167.801 80.3283 167.983 80.2956 168.162 80.3228C168.579 80.3861 169.369 80.529 169.826 80.7576L167.513 83.2866ZM167.944 83.0309C167.944 83.031 167.944 83.0307 167.943 83.0302L167.944 83.0309ZM168.087 82.1421C167.927 82.2625 167.835 82.4267 167.786 82.6002C167.762 82.494 167.74 82.3727 167.721 82.2378C167.672 81.8798 167.654 81.4948 167.649 81.1912C167.647 81.06 167.723 80.9276 167.864 80.8564C167.94 80.8182 168.018 80.8065 168.087 80.8171C168.46 80.8738 169.05 80.9836 169.443 81.1353C169.433 81.139 169.423 81.1426 169.412 81.1461C169.237 81.2038 169.061 81.2979 168.938 81.4663C168.814 81.6357 168.795 81.8116 168.788 81.8997C168.786 81.9208 168.785 81.9414 168.784 81.9563L168.784 81.9588C168.784 81.9599 168.784 81.961 168.784 81.962C168.769 81.9635 168.749 81.9647 168.724 81.9659C168.717 81.9662 168.708 81.9666 168.698 81.967C168.664 81.9684 168.617 81.9703 168.576 81.9736C168.468 81.9821 168.269 82.0055 168.087 82.1421Z" fill="url(#paint13_linear_1905_89723)" stroke="url(#paint14_linear_1905_89723)"/>
<path d="M151.506 58.2377C151.393 59.1309 152.741 60.0372 154.517 60.2628C156.293 60.4868 157.823 59.9442 157.936 59.0504C158.049 58.1569 156.701 57.2507 154.924 57.0263C153.15 56.8017 151.619 57.3444 151.506 58.2377Z" fill="white"/>
<path d="M159.129 60.3585C158.613 60.6914 158.731 61.7914 159.39 62.8164C160.05 63.8415 161.003 64.4023 161.519 64.0707C162.036 63.7402 161.919 62.639 161.258 61.6144C160.6 60.589 159.645 60.0267 159.129 60.3585Z" fill="white"/>
<path d="M171.923 84.761C171.705 85.0559 171.405 85.236 171.162 85.3129C170.774 85.4389 170.42 85.3711 170.34 85.1548C170.323 85.1096 170.311 85.0395 170.397 84.9487C170.629 84.7045 171.306 84.5654 171.908 84.7559L171.923 84.761ZM175.525 87.3964L175.555 87.3857C175.644 87.3596 175.722 87.3814 175.795 87.4549C175.827 87.4868 175.923 87.5817 175.829 87.7645C175.719 87.9784 175.419 88.1733 175.068 88.2225L175.084 88.125C175.166 87.7121 175.359 87.4669 175.525 87.3964ZM177.295 92.5006L177.353 92.4569L177.331 92.2454C175.365 90.641 175.049 89.252 175.048 88.529C175.533 88.484 175.939 88.2091 176.097 87.9015C176.219 87.6661 176.185 87.4192 176.009 87.2425C175.858 87.0916 175.661 87.039 175.467 87.0978C175.145 87.1987 174.888 87.566 174.789 88.0672L174.764 88.2266L174.71 88.2187C174.261 88.1451 173.466 87.7402 173.185 85.8613C173.102 85.303 172.81 84.8735 172.35 84.6179C172.533 84.2122 172.587 83.6994 172.42 83.0979C171.793 80.8445 167.641 80.6385 167.465 80.6311L167.308 80.7749L167.452 80.9316C167.493 80.9335 171.561 81.1351 172.129 83.1786C172.283 83.7315 172.23 84.1657 172.079 84.4957L171.999 84.4689C171.336 84.2604 170.52 84.3822 170.178 84.7417C170.033 84.896 169.99 85.0796 170.058 85.2608C170.2 85.6423 170.692 85.7809 171.255 85.5985C171.623 85.4813 171.967 85.2349 172.204 84.8818C172.51 85.0509 172.805 85.3552 172.887 85.9056C173.197 87.9742 174.131 88.4284 174.661 88.5161L174.748 88.5275C174.75 89.3175 175.089 90.8045 177.141 92.479L177.295 92.5006Z" fill="#536780"/>
<path d="M167.011 81.3544L167.031 81.3442C167.478 81.0725 167.858 80.6926 168.131 80.2462L168.081 80.0391L167.874 80.0892C167.627 80.4948 167.28 80.8399 166.875 81.0874C166.803 81.1303 166.78 81.2233 166.824 81.2936L167.011 81.3544Z" fill="#536780"/>
<path d="M203.766 41.0915L203.766 41.0913C204.43 29.1316 195.275 18.9018 183.315 18.2378C171.357 17.5747 161.125 26.7341 160.463 38.6899C159.981 47.3992 163.676 56.0927 168.202 62.6761C170.46 65.9613 172.906 68.6934 175.102 70.6138C176.201 71.5744 177.225 72.3216 178.121 72.8333C179.031 73.3535 179.748 73.5946 180.245 73.622L180.246 73.622C180.642 73.6441 181.308 73.482 182.242 73.0338C183.152 72.5973 184.231 71.9308 185.42 71.0558C187.797 69.307 190.56 66.7648 193.213 63.6847C198.536 57.5055 203.313 49.2846 203.766 41.0915Z" fill="url(#paint15_linear_1905_89723)" stroke="url(#paint16_linear_1905_89723)" stroke-width="1.5"/>
<path d="M197.777 38.7088C197.079 51.3192 188.201 61.179 179.643 60.7062C172.343 60.3005 162.586 49.4776 163.318 36.2659C163.824 27.1199 171.652 20.1142 180.797 20.6221C189.944 21.1278 198.376 27.9126 197.777 38.7088Z" fill="url(#paint17_linear_1905_89723)"/>
<path d="M182.139 77.6382L182.14 77.6387C182.473 77.9014 182.772 77.981 182.909 77.9713C182.909 77.9498 182.908 77.9181 182.901 77.8734L182.901 77.8731C182.84 77.5071 182.577 76.9886 182.191 76.4135C181.817 75.8555 181.368 75.3045 181.007 74.886C180.746 74.5843 180.324 74.4606 179.913 74.5707C179.692 74.6301 179.501 74.7503 179.363 74.916C178.874 75.5078 178.039 76.5863 177.734 77.3547C177.654 77.5573 177.646 77.6677 177.648 77.7137C177.695 77.7265 177.788 77.7358 177.936 77.7135C178.091 77.6902 178.27 77.6374 178.447 77.5612C178.708 77.4469 178.968 77.3922 179.224 77.4467C179.482 77.5014 179.651 77.6498 179.751 77.7459C179.781 77.7741 179.806 77.7987 179.828 77.8203C179.964 77.9519 179.981 77.9689 180.091 77.9692C180.145 77.9689 180.202 77.9519 180.289 77.8951C180.335 77.865 180.383 77.8278 180.443 77.7796C180.456 77.7691 180.47 77.7575 180.485 77.7451C180.532 77.7067 180.587 77.6609 180.64 77.6207C180.78 77.5143 180.999 77.3662 181.289 77.3417C181.597 77.3156 181.88 77.4347 182.139 77.6382Z" fill="url(#paint18_linear_1905_89723)" stroke="url(#paint19_linear_1905_89723)"/>
<path d="M174.876 25.0775C176.096 26.139 175.375 28.9657 173.264 31.3931C171.153 33.8174 168.453 34.9217 167.233 33.8584C166.012 32.7973 166.734 29.9705 168.846 27.544C170.955 25.1206 173.655 24.0161 174.876 25.0775Z" fill="white"/>
<path d="M167.196 37.04C168.285 36.8688 169.443 38.4835 169.786 40.6458C170.129 42.8082 169.522 44.7005 168.435 44.8726C167.347 45.0486 166.186 43.433 165.845 41.27C165.501 39.1081 166.107 37.2125 167.196 37.04Z" fill="white"/>
<path d="M179.251 85.0423C179.897 85.1758 180.514 85.0588 180.931 84.8713C181.603 84.5753 181.995 84.0618 181.844 83.6755C181.812 83.5951 181.745 83.4863 181.521 83.4679C180.918 83.4177 179.844 84.0415 179.266 85.0171L179.251 85.0423ZM177.578 92.8824L177.526 92.9036C177.375 92.9751 177.296 93.0983 177.286 93.2841C177.281 93.3651 177.267 93.6066 177.611 93.7395C178.014 93.8946 178.65 93.7968 179.179 93.4429L179.041 93.3309C178.437 92.8757 177.885 92.7779 177.578 92.8824ZM181.313 101.839L181.183 101.85L180.959 101.541C181.674 97.0388 180.436 94.799 179.573 93.8292C178.869 94.3489 177.995 94.467 177.416 94.2433C176.971 94.0737 176.721 93.7027 176.746 93.2551C176.767 92.8729 176.969 92.566 177.298 92.4134C177.851 92.1628 178.635 92.3473 179.367 92.9007L179.591 93.0848L179.654 93.0092C180.168 92.3733 180.748 90.8802 178.876 88.0265C178.321 87.1783 178.198 86.2538 178.508 85.3609C177.777 85.0369 177.092 84.4133 176.596 83.408C174.74 79.6384 180.056 74.3957 180.284 74.1747L180.666 74.18L180.661 74.5617C180.608 74.6135 175.398 79.7509 177.082 83.1684C177.538 84.0929 178.128 84.612 178.725 84.8733L178.801 84.741C179.439 83.6692 180.678 82.8557 181.567 82.9286C181.945 82.962 182.222 83.1567 182.349 83.4803C182.614 84.162 182.121 84.9363 181.149 85.3649C180.516 85.6479 179.76 85.7291 179.019 85.5402C178.812 86.1328 178.781 86.8934 179.329 87.7288C181.388 90.8717 180.681 92.5974 180.076 93.3489L179.972 93.4685C180.914 94.53 182.239 96.9276 181.494 101.626L181.313 101.839Z" fill="#536780"/>
<path d="M181.755 74.6035L181.717 74.6132C180.793 74.7838 179.828 74.7301 178.929 74.4583L178.748 74.1211L179.085 73.9405C179.902 74.1881 180.779 74.2362 181.619 74.0823C181.766 74.0541 181.908 74.1511 181.934 74.2979L181.755 74.6035Z" fill="#536780"/>
<rect x="140.75" y="94.75" width="87.5" height="87.5" rx="43.75" fill="url(#paint20_linear_1905_89723)" stroke="url(#paint21_linear_1905_89723)" stroke-width="1.5"/>
<mask id="mask0_1905_89723" style="mask-type:alpha" maskUnits="userSpaceOnUse" x="142" y="94" width="85" height="87">
<rect x="142" y="94.9995" width="85" height="86" rx="42.5" fill="#D9D9D9"/>
</mask>
<g mask="url(#mask0_1905_89723)">
<rect opacity="0.4" x="193.641" y="132.366" width="27.3469" height="64.8958" transform="rotate(46.634 193.641 132.366)" fill="url(#paint22_linear_1905_89723)"/>
<rect opacity="0.6" x="172.352" y="118.104" width="34.0509" height="64.8958" transform="rotate(46.634 172.352 118.104)" fill="url(#paint23_linear_1905_89723)"/>
<rect opacity="0.4" x="170.711" y="146.269" width="27.3469" height="64.8958" transform="rotate(-131.176 170.711 146.269)" fill="url(#paint24_linear_1905_89723)"/>
<rect opacity="0.6" x="189.801" y="155.703" width="34.0509" height="64.8958" transform="rotate(-131.176 189.801 155.703)" fill="url(#paint25_linear_1905_89723)"/>
<g opacity="0.5">
<g opacity="0.2">
<path d="M145.562 94.001V183.001" stroke="white" stroke-width="0.2"/>
<path d="M149.27 94.001V183.001" stroke="white" stroke-width="0.2"/>
<path d="M152.98 94.001V183.001" stroke="white" stroke-width="0.2"/>
<path d="M156.688 94.001V183.001" stroke="white" stroke-width="0.2"/>
<path d="M160.395 94.001V183.001" stroke="white" stroke-width="0.2"/>
<path d="M164.105 94.001V183.001" stroke="white" stroke-width="0.2"/>
<path d="M167.812 94.001V183.001" stroke="white" stroke-width="0.2"/>
<path d="M171.52 94.001V183.001" stroke="white" stroke-width="0.2"/>
<path d="M175.23 94.001V183.001" stroke="white" stroke-width="0.2"/>
<path d="M178.938 94.001V183.001" stroke="white" stroke-width="0.2"/>
<path d="M182.645 94.001V183.001" stroke="white" stroke-width="0.2"/>
<path d="M201.188 94.001V183.001" stroke="white" stroke-width="0.2"/>
<path d="M186.355 94.001V183.001" stroke="white" stroke-width="0.2"/>
<path d="M204.895 94.001V183.001" stroke="white" stroke-width="0.2"/>
<path d="M190.062 94.001V183.001" stroke="white" stroke-width="0.2"/>
<path d="M208.605 94.001V183.001" stroke="white" stroke-width="0.2"/>
<path d="M193.77 94.001V183.001" stroke="white" stroke-width="0.2"/>
<path d="M212.312 94.001V183.001" stroke="white" stroke-width="0.2"/>
<path d="M197.48 94.001V183.001" stroke="white" stroke-width="0.2"/>
<path d="M216.02 94.001V183.001" stroke="white" stroke-width="0.2"/>
<path d="M219.73 94.001V183.001" stroke="white" stroke-width="0.2"/>
<path d="M223.438 94.001V183.001" stroke="white" stroke-width="0.2"/>
</g>
<g opacity="0.2">
<path d="M140 177.438L229 177.438" stroke="white" stroke-width="0.2"/>
<path d="M140 173.73L229 173.73" stroke="white" stroke-width="0.2"/>
<path d="M140 170.022L229 170.022" stroke="white" stroke-width="0.2"/>
<path d="M140 166.313L229 166.313" stroke="white" stroke-width="0.2"/>
<path d="M140 162.605L229 162.605" stroke="white" stroke-width="0.2"/>
<path d="M140 158.897L229 158.897" stroke="white" stroke-width="0.2"/>
<path d="M140 155.188L229 155.188" stroke="white" stroke-width="0.2"/>
<path d="M140 151.48L229 151.48" stroke="white" stroke-width="0.2"/>
<path d="M140 147.772L229 147.772" stroke="white" stroke-width="0.2"/>
<path d="M140 144.063L229 144.063" stroke="white" stroke-width="0.2"/>
<path d="M140 140.355L229 140.355" stroke="white" stroke-width="0.2"/>
<path d="M140 121.813L229 121.813" stroke="white" stroke-width="0.2"/>
<path d="M140 136.647L229 136.647" stroke="white" stroke-width="0.2"/>
<path d="M140 118.105L229 118.105" stroke="white" stroke-width="0.2"/>
<path d="M140 132.938L229 132.938" stroke="white" stroke-width="0.2"/>
<path d="M140 114.397L229 114.397" stroke="white" stroke-width="0.2"/>
<path d="M140 129.23L229 129.23" stroke="white" stroke-width="0.2"/>
<path d="M140 110.688L229 110.688" stroke="white" stroke-width="0.2"/>
<path d="M140 125.522L229 125.522" stroke="white" stroke-width="0.2"/>
<path d="M140 106.98L229 106.98" stroke="white" stroke-width="0.2"/>
<path d="M140 103.272L229 103.272" stroke="white" stroke-width="0.2"/>
<path d="M140 99.5635L229 99.5635" stroke="white" stroke-width="0.2"/>
</g>
</g>
<path d="M201.189 160.751L202.19 163.458L204.897 164.459L202.19 165.461L201.189 168.168L200.187 165.461L197.48 164.459L200.187 163.458L201.189 160.751Z" fill="white"/>
<path d="M191.917 166.313L192.417 167.667L193.771 168.168L192.417 168.668L191.917 170.022L191.416 168.668L190.062 168.168L191.416 167.667L191.917 166.313Z" fill="white"/>
<path d="M152.979 144.063L153.48 145.417L154.833 145.918L153.48 146.418L152.979 147.772L152.478 146.418L151.125 145.918L152.478 145.417L152.979 144.063Z" fill="white"/>
<g opacity="0.4">
<path d="M186.116 139.97L186.116 139.97L163.724 120.352L163.874 120.18L163.724 120.352C163.425 120.089 162.958 120.119 162.692 120.422C162.692 120.422 162.692 120.422 162.692 120.422L155.757 128.339L186.116 139.97ZM186.116 139.97C186.418 140.233 186.449 140.696 186.184 140.999C186.184 140.999 186.184 140.999 186.184 140.999L179.25 148.914L179.25 148.914M186.116 139.97L179.25 148.914M179.25 148.914C178.985 149.217 178.52 149.247 178.22 148.983L178.22 148.983M179.25 148.914L178.22 148.983M178.22 148.983L155.826 129.368M178.22 148.983L155.826 129.368M155.826 129.368C155.826 129.368 155.826 129.368 155.826 129.368M155.826 129.368L155.826 129.368M155.826 129.368C155.526 129.104 155.494 128.64 155.757 128.339L155.826 129.368Z" fill="url(#paint26_linear_1905_89723)" stroke="url(#paint27_linear_1905_89723)" stroke-width="0.455488"/>
<path d="M171.74 133.79L173.372 134.228L174.66 133.129L174.752 134.819L176.194 135.703L174.614 136.31L174.22 137.956L173.152 136.642L171.468 136.773L172.386 135.354L171.74 133.79Z" fill="#7A73FF"/>
<path d="M159.073 125.521L161.21 126.089L162.892 124.653L163.011 126.861L164.894 128.016L162.828 128.811L162.314 130.959L160.923 129.241L158.72 129.417L159.92 127.562L159.073 125.521Z" fill="#7A73FF"/>
<path d="M166.273 136.724L166.156 134.516L164.476 135.953L162.339 135.384L166.096 138.672L168.156 137.88L166.273 136.724Z" fill="white"/>
<path d="M179.58 134.095L180.424 136.138L179.221 137.992L181.427 137.819L182.819 139.536L183.333 137.385L183.457 137.337L179.835 134.163L179.58 134.095Z" fill="#7A73FF"/>
<path d="M182.315 141.967L180.693 143.354L178.634 142.803L179.451 144.771L178.292 146.561L180.415 146.392L181.063 147.193L183.307 144.635L182.427 144.095L182.315 141.967Z" fill="#7A73FF"/>
<path d="M172.948 141.881L173.931 142.143L174.703 141.484L174.755 142.498L175.621 143.028L174.674 143.394L174.438 144.379L173.797 143.592L172.786 143.672L173.338 142.821L172.948 141.881Z" fill="white"/>
<path d="M167.666 126.369L169.039 126.735L170.119 125.811L170.193 127.231L171.404 127.972L170.081 128.482L169.748 129.862L168.855 128.758L167.438 128.871L168.212 127.679L167.666 126.369Z" fill="#7A73FF"/>
<path d="M149.923 126.837L150.046 128.432L151.432 129.239L149.952 129.847L149.615 131.41L148.579 130.192L146.986 130.355L147.825 128.993L147.178 127.53L148.734 127.906L149.923 126.837Z" fill="white"/>
<path d="M160.946 101.628L162.091 103.008L163.873 102.845L162.918 104.36L163.621 106.008L161.885 105.566L160.537 106.745L160.42 104.955L158.88 104.037L160.546 103.377L160.946 101.628Z" fill="white"/>
<path d="M142.315 104.9L143.092 105.839L144.305 105.727L143.655 106.756L144.132 107.874L142.954 107.573L142.035 108.375L141.957 107.159L140.913 106.536L142.046 106.086L142.315 104.9Z" fill="white"/>
<path d="M158.37 122.121C158.621 122.071 154.864 117.853 152.087 112.793C149.743 108.522 147.386 103.525 145.702 100.183C142.147 93.1288 138.712 84.637 136.848 85.5611C134.981 86.4869 140.479 95.4432 143.511 100.712C146.543 105.984 157.748 122.248 158.37 122.121Z" fill="white"/>
<path d="M160.209 120.455C160.396 120.458 158.314 116.874 157.063 112.828C156.001 109.413 155.039 105.476 154.319 102.825C152.801 97.2297 151.576 90.6217 150.097 91.0144C148.622 91.4069 151.258 98.6545 152.666 102.885C154.072 107.119 159.742 120.459 160.209 120.455Z" fill="white"/>
<path d="M155.788 125.197C155.802 125.375 152.226 123.657 148.273 122.762C144.936 122.007 141.108 121.383 138.528 120.893C133.078 119.861 126.678 119.187 126.943 117.748C127.207 116.308 134.317 118.283 138.46 119.311C142.606 120.338 155.751 124.751 155.788 125.197Z" fill="white"/>
<path d="M156.512 123.453C156.512 123.453 124.792 102.741 120.543 100.407C116.292 98.073 118.69 95.6725 120.886 97.0904C123.078 98.5107 147.556 115.752 156.512 123.453Z" fill="white"/>
<path d="M141.863 115.445C142.221 115.757 142.256 116.301 141.945 116.661C141.631 117.017 141.085 117.054 140.728 116.741C140.37 116.427 140.334 115.881 140.647 115.525C140.961 115.165 141.505 115.13 141.863 115.445Z" fill="white"/>
<path d="M141.571 125.493C142.116 125.973 142.173 126.798 141.694 127.346C141.218 127.891 140.389 127.945 139.842 127.466C139.295 126.989 139.242 126.161 139.72 125.615C140.196 125.07 141.024 125.016 141.571 125.493Z" fill="white"/>
<path d="M159.965 109.305C159.724 109.098 159.361 109.12 159.152 109.361C158.943 109.599 158.967 109.962 159.205 110.171C159.446 110.383 159.807 110.356 160.016 110.117C160.228 109.877 160.203 109.516 159.965 109.305Z" fill="white"/>
<path d="M179.176 149.264C179.265 149.213 179.347 149.147 179.417 149.065L182.449 145.605L182.089 146.015L179.417 149.065C179.346 149.145 179.265 149.213 179.176 149.264Z" fill="white"/>
<path d="M174.223 137.956L174.31 137.593L172.159 135.709L171.471 136.773L173.155 136.642L174.223 137.956Z" fill="#7A73FF"/>
<path d="M162.313 130.959L162.827 128.811L163.837 128.422L161.16 126.077L159.072 125.521L159.918 127.562L158.718 129.418L160.922 129.242L162.313 130.959Z" fill="#7A73FF"/>
<path d="M168.156 137.88L166.273 136.724L166.156 134.516L164.476 135.953L162.34 135.383L162.902 135.875L166.096 138.672L168.156 137.88Z" fill="#7A73FF"/>
<path d="M181.062 147.193L182.093 146.016L182.453 145.606L182.89 145.107L180.79 143.268L180.691 143.353L178.632 142.803L179.449 144.771L178.29 146.561L180.414 146.392L181.062 147.193Z" fill="#7A73FF"/>
<path d="M174.438 144.379L174.674 143.394L175.621 143.028L174.755 142.498L174.703 141.484L173.931 142.143L172.948 141.881L173.338 142.821L172.786 143.672L173.797 143.592L174.438 144.379Z" fill="#7A73FF"/>
</g>
<path d="M167.982 147.889L167.983 147.888L194.771 124.418L194.621 124.247L194.771 124.418C195.148 124.088 195.734 124.126 196.068 124.506L167.982 147.889ZM167.982 147.889C167.603 148.22 167.563 148.801 167.896 149.182L176.192 158.651L176.192 158.651C176.526 159.032 177.109 159.071 177.488 158.739L177.488 158.738L204.278 135.272C204.278 135.272 204.279 135.272 204.279 135.272C204.655 134.94 204.696 134.357 204.365 133.978C204.365 133.978 204.365 133.978 204.365 133.978L196.069 124.507L167.982 147.889Z" fill="url(#paint28_linear_1905_89723)" stroke="url(#paint29_linear_1905_89723)" stroke-width="0.455488"/>
<path d="M185.214 140.529L183.261 141.054L181.72 139.738L181.61 141.761L179.885 142.818L181.776 143.544L182.246 145.514L183.524 143.942L185.539 144.098L184.44 142.401L185.214 140.529Z" fill="#7A73FF"/>
<path d="M200.365 130.637L197.809 131.316L195.797 129.598L195.655 132.24L193.402 133.621L195.873 134.573L196.488 137.143L198.152 135.088L200.788 135.298L199.352 133.079L200.365 130.637Z" fill="#7A73FF"/>
<path d="M191.75 144.04L191.889 141.398L193.899 143.117L196.456 142.436L191.96 146.37L189.496 145.422L191.75 144.04Z" fill="white"/>
<path d="M175.833 140.894L174.823 143.338L176.262 145.557L173.624 145.35L171.958 147.404L171.343 144.831L171.195 144.773L175.528 140.976L175.833 140.894Z" fill="#7A73FF"/>
<path d="M172.564 150.312L174.505 151.971L176.968 151.312L175.99 153.667L177.377 155.809L174.837 155.606L174.061 156.565L171.378 153.504L172.43 152.858L172.564 150.312Z" fill="#7A73FF"/>
<path d="M183.767 150.208L182.59 150.522L181.667 149.733L181.605 150.947L180.568 151.581L181.702 152.018L181.983 153.197L182.751 152.256L183.96 152.351L183.299 151.333L183.767 150.208Z" fill="white"/>
<path d="M190.085 131.65L188.443 132.087L187.15 130.982L187.062 132.68L185.612 133.568L187.196 134.177L187.594 135.829L188.662 134.508L190.357 134.643L189.432 133.217L190.085 131.65Z" fill="#7A73FF"/>
<path d="M211.308 132.209L211.161 134.118L209.503 135.083L211.274 135.811L211.676 137.68L212.917 136.223L214.822 136.418L213.819 134.789L214.592 133.038L212.731 133.488L211.308 132.209Z" fill="white"/>
<path d="M198.124 102.053L196.754 103.704L194.622 103.509L195.764 105.321L194.924 107.293L197.001 106.764L198.613 108.174L198.752 106.033L200.595 104.935L198.602 104.145L198.124 102.053Z" fill="white"/>
<path d="M220.413 105.966L219.485 107.089L218.033 106.955L218.811 108.187L218.241 109.524L219.65 109.164L220.748 110.124L220.842 108.669L222.091 107.923L220.735 107.385L220.413 105.966Z" fill="white"/>
<path d="M201.207 126.569C200.907 126.51 205.401 121.463 208.723 115.41C211.528 110.3 214.347 104.322 216.362 100.324C220.615 91.8844 224.725 81.7252 226.954 82.8308C229.187 83.9383 222.611 94.6532 218.983 100.956C215.355 107.263 201.951 126.72 201.207 126.569Z" fill="white"/>
<path d="M199.004 124.577C198.781 124.58 201.272 120.292 202.768 115.451C204.039 111.366 205.189 106.656 206.051 103.485C207.867 96.7908 209.332 88.8854 211.102 89.3552C212.866 89.8248 209.713 98.4954 208.028 103.557C206.346 108.622 199.563 124.581 199.004 124.577Z" fill="white"/>
<path d="M204.299 130.249C204.282 130.461 208.561 128.407 213.289 127.336C217.282 126.432 221.861 125.686 224.948 125.1C231.468 123.865 239.125 123.059 238.807 121.337C238.492 119.615 229.986 121.978 225.029 123.208C220.069 124.436 204.343 129.716 204.299 130.249Z" fill="white"/>
<path d="M203.43 128.162C203.43 128.162 241.378 103.383 246.461 100.591C251.546 97.7987 248.677 94.9269 246.05 96.6232C243.428 98.3223 214.144 118.948 203.43 128.162Z" fill="white"/>
<path d="M220.956 118.582C220.527 118.955 220.486 119.606 220.858 120.036C221.234 120.462 221.887 120.507 222.314 120.132C222.742 119.756 222.785 119.104 222.41 118.677C222.035 118.247 221.384 118.205 220.956 118.582Z" fill="white"/>
<path d="M221.303 130.603C220.651 131.177 220.583 132.165 221.155 132.82C221.725 133.472 222.717 133.536 223.371 132.963C224.026 132.392 224.089 131.402 223.517 130.749C222.947 130.097 221.958 130.032 221.303 130.603Z" fill="white"/>
<path d="M199.298 111.237C199.587 110.989 200.021 111.015 200.271 111.303C200.521 111.589 200.493 112.023 200.207 112.273C199.92 112.526 199.487 112.494 199.237 112.209C198.984 111.921 199.013 111.49 199.298 111.237Z" fill="white"/>
<path d="M176.312 159.04C176.206 158.979 176.108 158.9 176.024 158.802L172.397 154.663L172.827 155.153L176.024 158.802C176.109 158.898 176.206 158.979 176.312 159.04Z" fill="white"/>
<path d="M182.242 145.513L182.139 145.079L184.712 142.824L185.535 144.097L183.52 143.941L182.242 145.513Z" fill="#7A73FF"/>
<path d="M196.487 137.143L195.872 134.573L194.663 134.108L197.866 131.302L200.364 130.637L199.351 133.079L200.787 135.299L198.151 135.088L196.487 137.143Z" fill="#7A73FF"/>
<path d="M189.496 145.422L191.75 144.04L191.889 141.398L193.899 143.117L196.454 142.435L195.782 143.024L191.96 146.37L189.496 145.422Z" fill="#7A73FF"/>
<path d="M174.061 156.564L172.826 155.156L172.396 154.666L171.874 154.068L174.386 151.868L174.504 151.97L176.968 151.312L175.989 153.666L177.376 155.808L174.836 155.606L174.061 156.564Z" fill="#7A73FF"/>
<path d="M181.983 153.197L181.702 152.018L180.568 151.581L181.605 150.947L181.667 149.733L182.59 150.522L183.767 150.208L183.299 151.333L183.96 152.351L182.751 152.256L181.983 153.197Z" fill="#7A73FF"/>
</g>
</g>
<defs>
<linearGradient id="paint0_linear_1905_89723" x1="194.5" y1="92" x2="9.43745e-06" y2="258" gradientUnits="userSpaceOnUse">
<stop stop-color="#7A73FF"/>
<stop offset="1" stop-color="#7A73FF" stop-opacity="0"/>
</linearGradient>
<linearGradient id="paint1_linear_1905_89723" x1="27.8611" y1="262.836" x2="339.985" y2="71.8214" gradientUnits="userSpaceOnUse">
<stop stop-color="#7A73FF"/>
<stop offset="0.835856" stop-color="#7A73FF" stop-opacity="0"/>
</linearGradient>
<linearGradient id="paint2_linear_1905_89723" x1="27.8611" y1="262.836" x2="339.985" y2="71.8214" gradientUnits="userSpaceOnUse">
<stop stop-color="#7A73FF"/>
<stop offset="0.835856" stop-color="#7A73FF" stop-opacity="0"/>
</linearGradient>
<linearGradient id="paint3_linear_1905_89723" x1="27.8611" y1="262.836" x2="339.985" y2="71.8214" gradientUnits="userSpaceOnUse">
<stop stop-color="#7A73FF"/>
<stop offset="0.835856" stop-color="#7A73FF" stop-opacity="0"/>
</linearGradient>
<linearGradient id="paint4_linear_1905_89723" x1="27.8611" y1="262.836" x2="339.985" y2="71.8214" gradientUnits="userSpaceOnUse">
<stop stop-color="#7A73FF"/>
<stop offset="0.835856" stop-color="#7A73FF" stop-opacity="0"/>
</linearGradient>
<linearGradient id="paint5_linear_1905_89723" x1="214.391" y1="62.3189" x2="217.828" y2="29.7417" gradientUnits="userSpaceOnUse">
<stop stop-color="#7A73FF"/>
<stop offset="1" stop-color="#7A73FF" stop-opacity="0"/>
</linearGradient>
<linearGradient id="paint6_linear_1905_89723" x1="208.906" y1="64.8458" x2="250.099" y2="61.6686" gradientUnits="userSpaceOnUse">
<stop stop-color="white"/>
<stop offset="1" stop-color="#7A73FF" stop-opacity="0"/>
</linearGradient>
<linearGradient id="paint7_linear_1905_89723" x1="210.171" y1="71.0057" x2="216.331" y2="44.6776" gradientUnits="userSpaceOnUse">
<stop stop-color="#928DFC"/>
<stop offset="1" stop-color="#7A73FF" stop-opacity="0"/>
</linearGradient>
<linearGradient id="paint8_linear_1905_89723" x1="198.37" y1="82.4828" x2="198.83" y2="79.3703" gradientUnits="userSpaceOnUse">
<stop stop-color="#7A73FF"/>
<stop offset="1" stop-color="#7A73FF" stop-opacity="0"/>
</linearGradient>
<linearGradient id="paint9_linear_1905_89723" x1="197.689" y1="82.682" x2="202.752" y2="81.7233" gradientUnits="userSpaceOnUse">
<stop stop-color="white"/>
<stop offset="1" stop-color="#7A73FF" stop-opacity="0"/>
</linearGradient>
<linearGradient id="paint10_linear_1905_89723" x1="154.73" y1="68.3447" x2="148.873" y2="44.8496" gradientUnits="userSpaceOnUse">
<stop stop-color="#7A73FF"/>
<stop offset="1" stop-color="#7A73FF" stop-opacity="0"/>
</linearGradient>
<linearGradient id="paint11_linear_1905_89723" x1="159.005" y1="69.632" x2="128.524" y2="71.5309" gradientUnits="userSpaceOnUse">
<stop stop-color="white"/>
<stop offset="1" stop-color="#7A73FF" stop-opacity="0"/>
</linearGradient>
<linearGradient id="paint12_linear_1905_89723" x1="158.708" y1="74.2714" x2="151.497" y2="55.6301" gradientUnits="userSpaceOnUse">
<stop stop-color="#928DFC"/>
<stop offset="1" stop-color="#7A73FF" stop-opacity="0"/>
</linearGradient>
<linearGradient id="paint13_linear_1905_89723" x1="168.522" y1="81.4629" x2="167.866" y2="79.2316" gradientUnits="userSpaceOnUse">
<stop stop-color="#7A73FF"/>
<stop offset="1" stop-color="#7A73FF" stop-opacity="0"/>
</linearGradient>
<linearGradient id="paint14_linear_1905_89723" x1="169.041" y1="81.5389" x2="165.236" y2="81.3564" gradientUnits="userSpaceOnUse">
<stop stop-color="white"/>
<stop offset="1" stop-color="#7A73FF" stop-opacity="0"/>
</linearGradient>
<linearGradient id="paint15_linear_1905_89723" x1="182.648" y1="42.475" x2="162.387" y2="3.98641" gradientUnits="userSpaceOnUse">
<stop stop-color="#7A73FF"/>
<stop offset="1" stop-color="#7A73FF" stop-opacity="0"/>
</linearGradient>
<linearGradient id="paint16_linear_1905_89723" x1="178.46" y1="49.3137" x2="221.573" y2="15.3925" gradientUnits="userSpaceOnUse">
<stop stop-color="white"/>
<stop offset="1" stop-color="#7A73FF" stop-opacity="0"/>
</linearGradient>
<linearGradient id="paint17_linear_1905_89723" x1="184.406" y1="55.1756" x2="171.765" y2="21.5719" gradientUnits="userSpaceOnUse">
<stop stop-color="#928DFC"/>
<stop offset="1" stop-color="#7A73FF" stop-opacity="0"/>
</linearGradient>
<linearGradient id="paint18_linear_1905_89723" x1="179.861" y1="76.5548" x2="178.07" y2="72.7802" gradientUnits="userSpaceOnUse">
<stop stop-color="#7A73FF"/>
<stop offset="1" stop-color="#7A73FF" stop-opacity="0"/>
</linearGradient>
<linearGradient id="paint19_linear_1905_89723" x1="179.256" y1="77.2775" x2="184.135" y2="72.4814" gradientUnits="userSpaceOnUse">
<stop stop-color="white"/>
<stop offset="1" stop-color="#7A73FF" stop-opacity="0"/>
</linearGradient>
<linearGradient id="paint20_linear_1905_89723" x1="184.5" y1="142.208" x2="175.229" y2="212.667" gradientUnits="userSpaceOnUse">
<stop stop-color="#7A73FF"/>
<stop offset="1" stop-color="#7A73FF" stop-opacity="0"/>
</linearGradient>
<linearGradient id="paint21_linear_1905_89723" x1="172.448" y1="133.865" x2="268.865" y2="174.656" gradientUnits="userSpaceOnUse">
<stop stop-color="white"/>
<stop offset="1" stop-color="#7A73FF" stop-opacity="0"/>
</linearGradient>
<linearGradient id="paint22_linear_1905_89723" x1="225.305" y1="207.459" x2="189.564" y2="165.843" gradientUnits="userSpaceOnUse">
<stop stop-color="white"/>
<stop offset="1" stop-color="white" stop-opacity="0"/>
</linearGradient>
<linearGradient id="paint23_linear_1905_89723" x1="211.779" y1="193.198" x2="177.981" y2="144.197" gradientUnits="userSpaceOnUse">
<stop stop-color="white"/>
<stop offset="1" stop-color="white" stop-opacity="0"/>
</linearGradient>
<linearGradient id="paint24_linear_1905_89723" x1="202.376" y1="221.362" x2="166.634" y2="179.745" gradientUnits="userSpaceOnUse">
<stop stop-color="white"/>
<stop offset="1" stop-color="white" stop-opacity="0"/>
</linearGradient>
<linearGradient id="paint25_linear_1905_89723" x1="229.228" y1="230.796" x2="195.43" y2="181.795" gradientUnits="userSpaceOnUse">
<stop stop-color="white"/>
<stop offset="1" stop-color="white" stop-opacity="0"/>
</linearGradient>
<linearGradient id="paint26_linear_1905_89723" x1="169.185" y1="127.898" x2="179.803" y2="160.596" gradientUnits="userSpaceOnUse">
<stop stop-color="white"/>
<stop offset="1" stop-color="#7A73FF"/>
</linearGradient>
<linearGradient id="paint27_linear_1905_89723" x1="140.161" y1="93.8622" x2="158.263" y2="87.4286" gradientUnits="userSpaceOnUse">
<stop stop-color="white"/>
<stop offset="1" stop-color="white" stop-opacity="0"/>
</linearGradient>
<linearGradient id="paint28_linear_1905_89723" x1="188.267" y1="133.48" x2="175.564" y2="172.598" gradientUnits="userSpaceOnUse">
<stop stop-color="white"/>
<stop offset="1" stop-color="#7A73FF"/>
</linearGradient>
<linearGradient id="paint29_linear_1905_89723" x1="222.989" y1="92.7613" x2="201.334" y2="85.0645" gradientUnits="userSpaceOnUse">
<stop stop-color="white"/>
<stop offset="1" stop-color="white" stop-opacity="0"/>
</linearGradient>
<clipPath id="clip0_1905_89723">
<rect width="368" height="258" rx="12" fill="white"/>
</clipPath>
</defs>
</svg>
