<svg width="368" height="258" viewBox="0 0 368 258" fill="none" xmlns="http://www.w3.org/2000/svg">
<g clip-path="url(#clip0_1905_89552)">
<rect width="368" height="258" rx="6" fill="white"/>
<rect opacity="0.2" width="368" height="258" rx="6" fill="url(#paint0_linear_1905_89552)"/>
<g opacity="0.2">
<path d="M125.449 45.9721C121.496 43.4885 113.881 45.8756 106.148 47.8443C108.793 50.4889 111.44 53.1362 114.088 55.7861C119.009 54.5309 123.886 53.1094 127.793 52.8841C127.917 49.6789 127.316 47.1496 125.449 45.9721Z" fill="#00CC99"/>
<path d="M160.51 80.9742C162.218 82.2053 162.773 84.6595 162.661 87.7467C162.553 90.6488 161.856 94.106 160.963 97.6197C158.994 105.358 156.607 112.97 159.091 116.921C160.268 118.785 162.8 119.388 166.005 119.267C166.233 115.36 167.652 110.486 168.907 105.559C170.562 99.0305 171.555 92.6979 169.318 89.7583L169.358 89.7395C169.358 89.7395 166.408 84.3457 160.51 80.9742Z" fill="#00CC99"/>
<path d="M125.618 46.0847C127.33 47.3158 127.887 49.7753 127.775 52.8625C127.668 55.7646 126.965 59.2166 126.077 62.7302C124.108 70.4682 121.721 78.0802 124.202 82.0337C125.38 83.9005 127.912 84.4986 131.117 84.3833C131.345 80.4727 132.766 75.5992 134.019 70.672C135.674 64.1436 136.669 57.8111 134.432 54.8741L134.469 54.8526C134.469 54.8526 131.519 49.4588 125.618 46.0847Z" fill="#00CC99"/>
<path d="M133.118 91.0882L133.14 91.0453C136.079 93.2876 142.409 92.2952 148.94 90.635C153.865 89.3824 158.738 87.9608 162.651 87.7355C162.767 84.5303 162.166 82.0011 160.299 80.8209C156.346 78.3399 148.736 80.727 140.998 82.6931C137.482 83.5835 134.027 84.2836 131.128 84.3936C128.038 84.5089 125.581 83.9483 124.355 82.2425C127.724 88.1352 133.118 91.0882 133.118 91.0882Z" fill="#00CC99"/>
<path d="M175.858 117.554C172.347 118.447 168.889 119.147 165.987 119.252C162.905 119.367 160.443 118.809 159.215 117.103C162.589 122.999 167.98 125.949 167.98 125.949L168.002 125.914C170.93 128.167 177.274 127.175 183.816 125.512L183.802 125.496L183.947 125.461L176.008 117.517L175.858 117.554Z" fill="#00CC99"/>
<path d="M115.535 184.173C113.703 187.726 116.245 194.099 118.442 200.604C120.502 198.157 122.562 195.714 124.622 193.268C123.222 189.127 121.687 185.044 121.226 181.702C118.504 181.812 116.404 182.494 115.535 184.173Z" fill="#00CC99"/>
<path d="M142.766 151.788C143.691 150.243 145.735 149.602 148.355 149.497C150.817 149.398 153.795 149.768 156.831 150.305C163.515 151.479 170.124 153.027 173.299 150.637C174.799 149.505 175.134 147.293 174.812 144.554C171.486 144.616 167.264 143.72 163.005 142.969C157.367 141.979 151.939 141.542 149.602 143.656L149.581 143.623C149.581 143.623 145.214 146.509 142.766 151.788Z" fill="#00CC99"/>
<path d="M115.621 184.011C116.546 182.463 118.588 181.828 121.211 181.72C123.673 181.621 126.647 181.991 129.681 182.525C136.37 183.703 142.979 185.248 146.155 182.858C147.654 181.726 147.987 179.516 147.67 176.775C144.344 176.836 140.12 175.94 135.863 175.189C130.22 174.202 124.791 173.765 122.458 175.879L122.436 175.844C122.436 175.844 118.07 178.73 115.621 184.011Z" fill="#00CC99"/>
<path d="M153.21 174.617L153.175 174.599C154.867 171.933 153.596 166.566 151.742 161.075C150.345 156.934 148.808 152.849 148.347 149.507C145.627 149.617 143.524 150.298 142.655 151.98C140.823 155.534 143.369 161.907 145.563 168.411C146.558 171.367 147.389 174.285 147.676 176.763C147.985 179.405 147.682 181.551 146.319 182.715C151.083 179.437 153.21 174.617 153.21 174.617Z" fill="#00CC99"/>
<path d="M172.689 136.214C173.686 139.17 174.515 142.088 174.805 144.572C175.113 147.209 174.81 149.352 173.448 150.521C178.209 147.241 180.338 142.421 180.338 142.421L180.309 142.405C182.015 139.741 180.741 134.369 178.882 128.865L178.868 128.879L178.828 128.755L172.648 136.088L172.689 136.214Z" fill="#00CC99"/>
<path d="M193.572 138.225C191.842 135.935 186.953 135.656 182.082 135.111C183.029 137.212 183.973 139.317 184.917 141.42C188.018 141.766 191.124 142.007 193.422 142.726C194.187 140.902 194.39 139.312 193.572 138.225Z" fill="#00CC99"/>
<path d="M206.103 166.044C206.819 167.124 206.602 168.664 205.867 170.421C205.175 172.073 204.021 173.913 202.747 175.75C199.937 179.784 196.911 183.66 197.48 186.482C197.748 187.812 199.073 188.711 200.94 189.335C201.921 187.131 203.793 184.628 205.585 182.056C207.953 178.65 209.898 175.211 209.252 173.028L209.278 173.025C209.278 173.025 208.755 169.27 206.103 166.044Z" fill="#00CC99"/>
<path d="M193.646 138.33C194.362 139.411 194.145 140.95 193.41 142.707C192.72 144.359 191.564 146.199 190.293 148.034C187.482 152.071 184.454 155.946 185.023 158.765C185.293 160.098 186.618 160.994 188.485 161.625C189.464 159.417 191.339 156.912 193.128 154.342C195.496 150.936 197.444 147.498 196.795 145.314L196.821 145.312C196.821 145.312 196.298 141.557 193.646 138.33Z" fill="#00CC99"/>
<path d="M188.174 165.925L188.195 165.906C189.397 167.84 193.248 168.642 197.358 169.101C200.458 169.449 203.564 169.691 205.86 170.41C206.624 168.586 206.828 166.995 206.013 165.909C204.28 163.616 199.393 163.342 194.522 162.792C192.31 162.546 190.172 162.197 188.485 161.631C186.688 161.027 185.395 160.169 185.062 158.917C185.717 163.05 188.174 165.925 188.174 165.925Z" fill="#00CC99"/>
<path d="M206.972 190.489C204.762 190.239 202.624 189.894 200.934 189.322C199.137 188.719 197.847 187.863 197.512 186.611C198.169 190.744 200.626 193.619 200.626 193.619L200.644 193.606C201.835 195.539 205.695 196.347 209.812 196.808L209.807 196.797L209.898 196.805L207.066 190.497L206.972 190.489Z" fill="#00CC99"/>
<path d="M181.767 114.44C180.724 118.24 184.387 123.827 187.751 129.615C189.229 126.834 190.709 124.05 192.192 121.268C190.052 117.583 187.791 113.981 186.697 110.87C184.13 111.546 182.266 112.643 181.767 114.44Z" fill="#00CC99"/>
<path d="M201.332 77.6001C201.906 75.9211 203.725 74.875 206.195 74.2205C208.52 73.6063 211.422 73.3408 214.413 73.2147C221.003 72.9385 227.59 73.0324 230.144 70.0659C231.345 68.6631 231.235 66.4691 230.391 63.9023C227.242 64.6613 223.05 64.6882 218.852 64.8625C213.294 65.1012 208.045 65.8281 206.238 68.3493L206.214 68.3198C206.214 68.3198 202.625 72.0105 201.332 77.6001Z" fill="#00CC99"/>
<path d="M181.824 114.272C182.396 112.588 184.217 111.545 186.687 110.89C189.012 110.276 191.912 110.008 194.902 109.879C201.49 109.606 208.08 109.702 210.636 106.736C211.838 105.333 211.722 103.136 210.883 100.572C207.731 101.334 203.539 101.358 199.344 101.535C193.784 101.771 188.535 102.495 186.733 105.016L186.706 104.989C186.706 104.989 183.12 108.68 181.824 114.272Z" fill="#00CC99"/>
<path d="M215.732 97.3332L215.695 97.3252C216.783 94.407 214.522 89.5227 211.687 84.6331C209.544 80.9479 207.283 77.3457 206.189 74.2344C203.625 74.913 201.761 76.0127 201.264 77.8044C200.216 81.6077 203.885 87.192 207.243 92.9827C208.769 95.6113 210.129 98.2398 210.891 100.563C211.701 103.033 211.832 105.16 210.767 106.568C214.651 102.413 215.732 97.3332 215.732 97.3332Z" fill="#00CC99"/>
<path d="M226.739 56.3377C228.262 58.9662 229.625 61.5975 230.384 63.9175C231.197 66.3878 231.325 68.5147 230.258 69.9229C234.144 65.7655 235.223 60.6882 235.223 60.6882L235.193 60.6801C236.295 57.7646 234.032 52.867 231.186 47.9721L231.178 47.9882L231.116 47.8782L226.672 56.2251L226.739 56.3377Z" fill="#00CC99"/>
<path d="M267.759 127.14C267.759 127.14 263.21 129.777 256.781 124.694C250.36 119.611 248.965 116.546 248.965 116.546C248.965 116.546 250.539 102.539 252.012 102.354C253.484 102.164 257.344 106.509 259.712 110.02C262.081 113.533 269.824 121.36 272.474 120.719C272.474 120.719 271.278 125.606 267.759 127.14Z" fill="#00CC99"/>
<path d="M260.309 103.577L271.544 100.852C271.544 100.852 279.019 103.124 281.213 111.275C283.405 119.429 279.054 122.017 279.054 122.017L267.754 127.14C267.754 127.14 273.548 122.497 270.367 113.821C267.18 105.146 260.309 103.577 260.309 103.577Z" fill="#00CC99"/>
<path d="M229.815 134.81C229.815 134.81 227.192 135.612 222.895 129.931C218.595 124.247 210.648 111.108 206 111.555C206 111.555 209.149 106.703 214.87 105.317C220.594 103.927 228.176 112.899 230.636 117.242C233.093 121.584 235.74 127.16 238.878 127.589L229.815 134.81Z" fill="#00CC99"/>
<path d="M252.009 102.352C252.009 102.352 250.238 103.97 250.555 108.838C250.869 113.698 250.941 125.384 245.225 130.349L229.816 134.809C229.816 134.809 236.35 129.885 237.324 121.854C238.271 114.081 236.621 108.47 239.099 105.313L252.009 102.352Z" fill="#00CC99"/>
<path d="M215.249 105.241C215.249 105.241 210.08 107.199 207.723 116.2C205.467 124.802 201.766 131.99 198.182 133.288C194.604 134.578 186.137 133.57 186.137 133.57C186.137 133.57 191.048 124.373 193.073 118.008C195.1 111.64 197.52 109.607 202.305 108.363C207.087 107.118 215.249 105.241 215.249 105.241Z" fill="#00CC99"/>
<path d="M125.502 92.2596C125.502 92.2596 129.605 92.7477 131.633 98.4875C133.655 104.225 133.256 106.598 133.256 106.598C133.256 106.598 126.226 113.945 125.185 113.403C124.142 112.864 123.477 108.674 123.434 105.619C123.388 102.562 121.677 94.6708 119.668 93.8716C119.668 93.8716 122.543 91.5944 125.502 92.2596Z" fill="#00CC99"/>
<path d="M120.283 109.055L111.77 105.678C111.77 105.678 107.854 101.089 109.909 95.4459C111.968 89.8053 115.919 90.2318 115.919 90.2318L125.505 92.2568C125.505 92.2568 119.731 92.3775 118.095 98.7556C116.461 105.131 120.283 109.055 120.283 109.055Z" fill="#00CC99"/>
<path d="M153.596 104.531C153.596 104.531 155.658 105.221 156.031 110.371C156.409 115.52 155.98 126.552 159.209 128.338C159.209 128.338 155.073 129.738 150.739 128.022C146.402 126.303 145.284 117.822 145.536 114.252C145.788 110.679 146.445 106.315 144.578 104.687L153.596 104.531Z" fill="#00CC99"/>
<path d="M125.188 113.4C125.188 113.4 127.038 113.25 128.913 110.318C130.791 107.395 135.747 100.652 141.61 100.317L153.597 104.53C153.597 104.53 147.216 104.485 143.142 108.661C139.191 112.708 137.869 116.651 134.897 117.373L125.188 113.4Z" fill="#00CC99"/>
<path d="M150.461 127.899C150.461 127.899 154.677 129.042 160.076 124.917C165.234 120.971 170.733 118.474 173.629 119.306C176.521 120.134 181.625 124.434 181.625 124.434C181.625 124.434 174.48 127.556 170.427 130.316C166.377 133.081 163.923 133.186 160.262 131.796C156.6 130.407 150.461 127.899 150.461 127.899Z" fill="#00CC99"/>
<path d="M192.158 200.376C192.158 200.376 190.066 197.52 184.758 198.392C179.447 199.266 169.606 203.643 169.971 212.444L172.851 218.948C172.851 218.948 177.033 214.503 180.761 213.551C184.489 212.602 191.248 207.836 191.248 207.836L192.158 201.884V200.376Z" fill="#00CC99"/>
<path d="M190.71 213.88V223.579C190.71 223.579 190.42 227.801 181.124 227.994C171.827 228.187 170.486 223.815 170.486 223.815L169.969 212.443C169.969 212.443 172.544 217.721 180.338 217.338C188.135 216.954 190.71 213.88 190.71 213.88Z" fill="#00CC99"/>
<path d="M172.747 202.045C172.747 202.045 172.688 198.154 179.498 195.056C186.311 191.963 190.546 190.137 190.281 187.283C190.012 184.424 179.015 182.994 176.602 182.361C176.602 182.361 168.917 186.408 169.362 196.172C169.362 196.172 170.599 201.383 172.747 202.045Z" fill="#00CC99"/>
<path d="M169.969 209.584C169.969 209.584 171.345 216.333 181.162 215.855C190.979 215.38 192.156 210.695 192.156 210.695V200.376C192.156 200.376 189.581 205.376 182.557 205.617C176.334 205.824 171.828 203.155 169.363 196.171L169.969 209.584Z" fill="#00CC99"/>
<path d="M165.503 155.446C165.503 155.446 164.749 148.304 171.344 140.925C177.004 134.587 182.518 133.034 183.414 132.589C183.414 132.589 185.796 139.335 185.774 146.188C185.774 146.188 180.171 148.175 175.832 152.115C172.53 155.117 169.958 157.718 168.764 160.776C168.764 160.776 166.519 160.529 165.503 155.446Z" fill="#00CC99"/>
<path d="M190.282 187.28C190.282 187.28 189.611 185.285 182.49 184.228C175.372 183.169 168.72 178.308 166.789 172.992L165.504 155.446C165.504 155.446 168.985 163.943 177.085 167.277C185.183 170.611 190.333 170.294 190.282 175.53C190.225 180.771 190.225 180.771 190.282 187.28Z" fill="#00CC99"/>
<path d="M98.9622 63.4343L105.204 65.8321L110.723 62.0557L110.367 68.7342L115.661 72.8138L109.2 74.5331L106.955 80.8335L103.318 75.2251L96.6367 75.0346L100.856 69.8447L98.9622 63.4343Z" fill="#00CC99"/>
<path d="M126.102 200.575L132.343 202.976L137.863 199.199L137.506 205.878L142.801 209.955L136.337 211.677L134.097 217.977L130.457 212.366L123.773 212.178L127.995 206.988L126.102 200.575Z" fill="#00CC99"/>
<path d="M217.77 53.9415L215.896 58.7988L218.833 63.1037L213.629 62.8167L210.451 66.9365L209.115 61.8994L204.215 60.1506L208.584 57.3209L208.74 52.1176L212.774 55.4086L217.77 53.9415Z" fill="#00CC99"/>
<path d="M230.274 207.825L228.402 212.68L231.337 216.985L226.133 216.698L222.955 220.818L221.619 215.783L216.719 214.029L221.091 211.205L221.246 206.002L225.28 209.293L230.274 207.825Z" fill="#00CC99"/>
<path d="M192.808 42.2571L189.718 43.3595L188.873 46.5298L186.873 43.9308L183.598 44.1078L185.448 41.3988L184.271 38.3358L187.414 39.2639L189.962 37.1959L190.054 40.4735L192.808 42.2571Z" fill="#00CC99"/>
<path d="M100.98 113.562L99.6498 109.423L95.4844 108.173L99.0061 105.63L98.9041 101.283L102.418 103.852L106.519 102.412L105.164 106.54L107.798 110.002L103.453 109.983L100.98 113.562Z" fill="#00CC99"/>
<path d="M266.669 199.452L264.713 193.372L258.59 191.529L263.769 187.79L263.616 181.396L268.779 185.175L274.82 183.056L272.827 189.129L276.697 194.219L270.306 194.195L266.669 199.452Z" fill="#00CC99"/>
<path d="M104.067 188.998L102.705 184.768L98.4453 183.486L102.05 180.884L101.943 176.437L105.537 179.066L109.737 177.593L108.351 181.815L111.041 185.358L106.596 185.339L104.067 188.998Z" fill="#00CC99"/>
<path d="M244.372 175.564L243.042 171.431L238.879 170.179L242.401 167.636L242.296 163.291L245.81 165.858L249.913 164.417L248.556 168.545L251.19 172.008L246.845 171.989L244.372 175.564Z" fill="#00CC99"/>
<path d="M198.303 85.2381L199.191 88.7518L202.584 90.0124L199.518 91.9408L199.366 95.5591L196.587 93.239L193.097 94.2126L194.444 90.8492L192.438 87.8318L196.05 88.0812L198.303 85.2381Z" fill="#00CC99"/>
<path d="M142.256 61.7422L142.857 64.124L145.164 64.9823L143.083 66.2912L142.978 68.748L141.087 67.171L138.721 67.8335L139.633 65.5482L138.273 63.499L140.73 63.6654L142.256 61.7422Z" fill="#00CC99"/>
<path d="M206.542 142.314L207.14 144.701L209.446 145.554L207.368 146.866L207.263 149.323L205.375 147.746L203.004 148.405L203.921 146.123L202.559 144.074L205.013 144.24L206.542 142.314Z" fill="#00CC99"/>
<path d="M243.533 39.2385L244.131 41.6256L246.437 42.4813L244.359 43.7902L244.251 46.2471L242.366 44.6699L239.995 45.3324L240.909 43.0472L239.547 41.0007L242.004 41.1643L243.533 39.2385Z" fill="#00CC99"/>
<path d="M108.341 212.378L108.939 214.762L111.243 215.618L109.165 216.927L109.06 219.384L107.172 217.809L104.803 218.469L105.715 216.187L104.355 214.14L106.812 214.304L108.341 212.378Z" fill="#00CC99"/>
<path d="M152.831 37.6102L152.525 41.7863L155.798 44.4041L151.732 45.4073L150.251 49.3232L148.041 45.7667L143.859 45.5682L146.558 42.371L145.453 38.3317L149.331 39.9088L152.831 37.6102Z" fill="#00CC99"/>
<path d="M251.964 84.3686L251.658 88.5447L254.93 91.1598L250.864 92.1656L249.384 96.0815L247.174 92.525L242.992 92.3292L245.69 89.1267L244.588 85.0874L248.464 86.6672L251.964 84.3686Z" fill="#00CC99"/>
<path d="M179.81 117.093C180.317 117.219 177.08 106.04 176.414 94.1683C175.851 84.1477 175.907 72.7619 175.749 65.0507C175.409 48.778 176.57 29.9385 172.281 30.0002C167.987 30.0673 170.248 51.5996 171.203 64.0878C172.161 76.5786 178.539 116.774 179.81 117.093Z" fill="#00CC99"/>
<path d="M180.959 103.063C181.289 103.299 182.121 94.3673 184.996 85.669C187.418 78.3226 190.674 70.1742 192.739 64.6006C197.087 52.8394 203.24 39.6565 200.145 38.4924C197.047 37.323 192.589 53.3999 189.749 62.6292C186.908 71.8559 180.138 102.475 180.959 103.063Z" fill="#00CC99"/>
<path d="M186.393 128.767C186.111 129.145 196.161 130.72 205.846 134.713C214.027 138.082 223.074 142.497 229.272 145.324C242.348 151.276 256.944 159.48 258.409 155.857C259.881 152.231 241.935 145.866 231.646 141.877C221.363 137.892 187.098 127.823 186.393 128.767Z" fill="#00CC99"/>
<path d="M206.435 153.66C206.003 153.845 213.918 160.237 220.31 168.541C225.706 175.549 231.331 183.899 235.284 189.448C243.628 201.142 252.163 215.546 255.245 213.142C258.332 210.736 245.978 196.25 239.063 187.651C232.151 179.052 207.518 153.196 206.435 153.66Z" fill="#00CC99"/>
<path d="M161.322 167.724C161.033 167.547 160.974 175.129 159.182 182.663C157.677 189.028 155.523 196.123 154.196 200.966C151.379 211.188 147.158 222.735 149.851 223.491C152.538 224.248 155.129 210.384 156.854 202.41C158.576 194.438 162.062 168.156 161.322 167.724Z" fill="#00CC99"/>
<path d="M224.041 92.1433C223.679 91.9824 230.808 86.7897 236.716 79.9904C241.708 74.2533 246.96 67.4111 250.637 62.8649C258.394 53.2815 266.448 41.4559 268.986 43.4863C271.526 45.5193 260.177 57.3664 253.805 64.4017C247.429 71.4397 224.953 92.543 224.041 92.1433Z" fill="#00CC99"/>
<path d="M142.719 142.137C142.977 142.373 135.523 144.723 128.635 148.762C122.818 152.171 116.474 156.436 112.102 159.214C102.87 165.072 92.7641 172.727 91.2084 170.302C89.6447 167.878 102.53 161.135 109.874 157.026C117.22 152.917 142.07 141.547 142.719 142.137Z" fill="#00CC99"/>
<path d="M171.872 134.753C172.06 134.281 160.87 135.944 149.353 135.045C139.625 134.289 128.668 132.755 121.22 131.904C105.502 130.121 87.4995 126.556 87.0086 130.695C86.5124 134.839 107.549 135.458 119.704 136.161C131.865 136.864 171.403 135.936 171.872 134.753Z" fill="#00CC99"/>
<path d="M196.061 58.0453C196.439 58.9304 196.031 59.9523 195.149 60.3305C194.267 60.7114 193.239 60.3063 192.861 59.4212C192.48 58.5334 192.891 57.5115 193.773 57.1333C194.658 56.7551 195.68 57.1602 196.061 58.0453Z" fill="#00CC99"/>
<path d="M160.182 106.456C160.56 107.341 160.158 108.366 159.27 108.744C158.388 109.125 157.363 108.714 156.982 107.832C156.601 106.95 157.012 105.925 157.897 105.544C158.779 105.163 159.804 105.574 160.182 106.456Z" fill="#00CC99"/>
<path d="M204.179 212.723C204.557 213.606 204.155 214.63 203.27 215.011C202.385 215.389 201.36 214.982 200.982 214.097C200.601 213.211 201.012 212.19 201.894 211.809C202.779 211.428 203.801 211.841 204.179 212.723Z" fill="#00CC99"/>
<path d="M144.149 124.148C144.725 125.497 144.106 127.058 142.759 127.637C141.416 128.211 139.855 127.589 139.275 126.243C138.696 124.899 139.318 123.335 140.665 122.759C142.011 122.179 143.569 122.804 144.149 124.148Z" fill="#00CC99"/>
<path d="M100.886 147.651C101.46 148.997 100.84 150.558 99.4938 151.135C98.1474 151.712 96.589 151.089 96.0097 149.743C95.4303 148.396 96.0526 146.835 97.399 146.259C98.7455 145.682 100.304 146.304 100.886 147.651Z" fill="#00CC99"/>
<path d="M224.875 188.644C225.452 189.993 224.832 191.552 223.486 192.128C222.14 192.708 220.581 192.083 220.002 190.736C219.423 189.39 220.045 187.829 221.391 187.252C222.738 186.676 224.296 187.298 224.875 188.644Z" fill="#00CC99"/>
<path d="M194.889 118.099C194.634 117.512 193.952 117.238 193.36 117.493C192.767 117.748 192.499 118.432 192.751 119.019C193.003 119.609 193.687 119.88 194.277 119.628C194.87 119.376 195.141 118.692 194.889 118.099Z" fill="#00CC99"/>
<path d="M163.241 58.8074C162.986 58.2146 162.302 57.9437 161.715 58.1958C161.12 58.448 160.849 59.1347 161.104 59.722C161.356 60.3121 162.037 60.5857 162.635 60.3309C163.22 60.0815 163.491 59.3975 163.241 58.8074Z" fill="#00CC99"/>
<path d="M263.972 161.166C263.717 160.576 263.033 160.302 262.446 160.557C261.85 160.809 261.579 161.493 261.834 162.083C262.086 162.673 262.77 162.947 263.363 162.692C263.95 162.44 264.224 161.756 263.972 161.166Z" fill="#00CC99"/>
<path d="M99.5146 198.742C99.2598 198.152 98.5785 197.878 97.9911 198.13C97.393 198.385 97.1221 199.069 97.3769 199.659C97.629 200.252 98.313 200.523 98.9057 200.268C99.4931 200.016 99.7667 199.332 99.5146 198.742Z" fill="#00CC99"/>
<path d="M124.847 145.359C124.595 144.767 123.911 144.496 123.323 144.748C122.725 145 122.454 145.687 122.709 146.277C122.964 146.867 123.645 147.14 124.24 146.886C124.825 146.633 125.099 145.947 124.847 145.359Z" fill="#00CC99"/>
<path d="M227.741 100.826C227.486 100.234 226.802 99.9601 226.215 100.215C225.62 100.47 225.349 101.154 225.604 101.744C225.856 102.334 226.54 102.605 227.132 102.353C227.72 102.1 227.993 101.414 227.741 100.826Z" fill="#00CC99"/>
<path d="M159.575 70.5968C160.071 71.7582 159.538 73.0993 158.379 73.5982C157.217 74.0971 155.871 73.5607 155.375 72.3966C154.881 71.2406 155.418 69.8968 156.576 69.3979C157.735 68.9017 159.076 69.4381 159.575 70.5968Z" fill="#00CC99"/>
<path d="M271.442 84.3365C271.941 85.4952 271.41 86.839 270.252 87.3379C269.09 87.8368 267.744 87.3004 267.247 86.139C266.751 84.9803 267.288 83.6365 268.446 83.1403C269.602 82.6414 270.949 83.1778 271.442 84.3365Z" fill="#00CC99"/>
<path d="M224.536 150.992C225.035 152.151 224.501 153.495 223.342 153.994C222.181 154.49 220.835 153.956 220.336 152.795C219.842 151.636 220.379 150.292 221.54 149.794C222.696 149.297 224.04 149.834 224.536 150.992Z" fill="#00CC99"/>
<path d="M97.5806 44.0072C98.0795 45.1685 97.5484 46.5096 96.3897 47.0085C95.2283 47.5047 93.8819 46.971 93.383 45.8096C92.8895 44.6536 93.4232 43.3071 94.5846 42.8109C95.7433 42.3121 97.0871 42.8512 97.5806 44.0072Z" fill="#00CC99"/>
<path d="M271.442 138.733C271.941 139.894 271.41 141.238 270.252 141.734C269.09 142.233 267.744 141.697 267.247 140.538C266.751 139.379 267.288 138.036 268.446 137.537C269.602 137.038 270.949 137.577 271.442 138.733Z" fill="#00CC99"/>
<path d="M121.308 119.577C121.675 120.436 121.286 121.417 120.431 121.788C119.578 122.15 118.593 121.758 118.226 120.902C117.861 120.055 118.255 119.065 119.106 118.7C119.959 118.333 120.946 118.73 121.308 119.577Z" fill="#00CC99"/>
<path d="M134.827 178.577C135.197 179.432 134.806 180.417 133.95 180.782C133.097 181.149 132.113 180.757 131.745 179.902C131.381 179.049 131.775 178.064 132.625 177.697C133.481 177.332 134.465 177.727 134.827 178.577Z" fill="#00CC99"/>
<path d="M144.06 87.9605C144.615 89.2587 144.014 90.758 142.719 91.3159C141.421 91.8738 139.921 91.2703 139.364 89.9748C138.808 88.6793 139.406 87.18 140.705 86.6194C142 86.0642 143.502 86.6623 144.06 87.9605Z" fill="#00CC99"/>
<path d="M123.172 57.199C123.534 58.0493 123.143 59.0283 122.298 59.3904C121.45 59.7552 120.471 59.3636 120.109 58.5133C119.744 57.6711 120.136 56.6921 120.981 56.33C121.828 55.9653 122.807 56.3568 123.172 57.199Z" fill="#00CC99"/>
<path d="M180.058 134.829L178.39 129.65L173.176 128.078L177.588 124.897L177.457 119.452L181.855 122.668L187 120.866L185.299 126.037L188.598 130.374L183.153 130.35L180.058 134.829Z" fill="#00CC99"/>
<path d="M268.519 76.0596L266.851 70.8803L261.637 69.3113L266.049 66.1275L265.915 60.6827L270.316 63.8986L275.458 62.0962L273.76 67.2674L277.056 71.6018L271.614 71.5804L268.519 76.0596Z" fill="#00CC99"/>
</g>
<g opacity="0.4">
<rect opacity="0.6" width="320.407" height="93.9592" transform="matrix(0.787958 0.615729 -0.340213 0.940348 -81.0352 -7.63916)" fill="url(#paint1_linear_1905_89552)"/>
<rect opacity="0.6" width="320.407" height="93.9592" transform="matrix(0.787958 0.615729 -0.340213 0.940348 -81.0352 -87)" fill="url(#paint2_linear_1905_89552)"/>
</g>
<g opacity="0.4">
<rect opacity="0.6" width="320.407" height="93.9592" transform="matrix(-0.787958 0.615729 0.340213 0.940348 448.469 -7.63916)" fill="url(#paint3_linear_1905_89552)"/>
<rect opacity="0.6" width="320.407" height="93.9592" transform="matrix(-0.787958 0.615729 0.340213 0.940348 448.469 -87)" fill="url(#paint4_linear_1905_89552)"/>
</g>
<rect x="139.75" y="85.75" width="87.5" height="87.5" rx="43.75" fill="url(#paint5_linear_1905_89552)" stroke="url(#paint6_linear_1905_89552)" stroke-width="1.5"/>
<mask id="mask0_1905_89552" style="mask-type:alpha" maskUnits="userSpaceOnUse" x="141" y="85" width="85" height="87">
<rect x="141" y="85.9995" width="85" height="86" rx="42.5" fill="#D9D9D9"/>
</mask>
<g mask="url(#mask0_1905_89552)">
<rect opacity="0.4" x="192.641" y="123.366" width="27.3469" height="64.8958" transform="rotate(46.634 192.641 123.366)" fill="url(#paint7_linear_1905_89552)"/>
<rect opacity="0.6" x="171.352" y="109.104" width="34.0509" height="64.8958" transform="rotate(46.634 171.352 109.104)" fill="url(#paint8_linear_1905_89552)"/>
<rect opacity="0.4" x="169.711" y="137.269" width="27.3469" height="64.8958" transform="rotate(-131.176 169.711 137.269)" fill="url(#paint9_linear_1905_89552)"/>
<rect opacity="0.6" x="188.801" y="146.703" width="34.0509" height="64.8958" transform="rotate(-131.176 188.801 146.703)" fill="url(#paint10_linear_1905_89552)"/>
<g opacity="0.5">
<g opacity="0.2">
<path d="M144.562 85.001V174.001" stroke="white" stroke-width="0.2"/>
<path d="M148.27 85.001V174.001" stroke="white" stroke-width="0.2"/>
<path d="M151.98 85.001V174.001" stroke="white" stroke-width="0.2"/>
<path d="M155.688 85.001V174.001" stroke="white" stroke-width="0.2"/>
<path d="M159.395 85.001V174.001" stroke="white" stroke-width="0.2"/>
<path d="M163.105 85.001V174.001" stroke="white" stroke-width="0.2"/>
<path d="M166.812 85.001V174.001" stroke="white" stroke-width="0.2"/>
<path d="M170.52 85.001V174.001" stroke="white" stroke-width="0.2"/>
<path d="M174.23 85.001V174.001" stroke="white" stroke-width="0.2"/>
<path d="M177.938 85.001V174.001" stroke="white" stroke-width="0.2"/>
<path d="M181.645 85.001V174.001" stroke="white" stroke-width="0.2"/>
<path d="M200.188 85.001V174.001" stroke="white" stroke-width="0.2"/>
<path d="M185.355 85.001V174.001" stroke="white" stroke-width="0.2"/>
<path d="M203.895 85.001V174.001" stroke="white" stroke-width="0.2"/>
<path d="M189.062 85.001V174.001" stroke="white" stroke-width="0.2"/>
<path d="M207.605 85.001V174.001" stroke="white" stroke-width="0.2"/>
<path d="M192.77 85.001V174.001" stroke="white" stroke-width="0.2"/>
<path d="M211.312 85.001V174.001" stroke="white" stroke-width="0.2"/>
<path d="M196.48 85.001V174.001" stroke="white" stroke-width="0.2"/>
<path d="M215.02 85.001V174.001" stroke="white" stroke-width="0.2"/>
<path d="M218.73 85.001V174.001" stroke="white" stroke-width="0.2"/>
<path d="M222.438 85.001V174.001" stroke="white" stroke-width="0.2"/>
</g>
<g opacity="0.2">
<path d="M139 168.438L228 168.438" stroke="white" stroke-width="0.2"/>
<path d="M139 164.73L228 164.73" stroke="white" stroke-width="0.2"/>
<path d="M139 161.022L228 161.022" stroke="white" stroke-width="0.2"/>
<path d="M139 157.313L228 157.313" stroke="white" stroke-width="0.2"/>
<path d="M139 153.605L228 153.605" stroke="white" stroke-width="0.2"/>
<path d="M139 149.897L228 149.897" stroke="white" stroke-width="0.2"/>
<path d="M139 146.188L228 146.188" stroke="white" stroke-width="0.2"/>
<path d="M139 142.48L228 142.48" stroke="white" stroke-width="0.2"/>
<path d="M139 138.772L228 138.772" stroke="white" stroke-width="0.2"/>
<path d="M139 135.063L228 135.063" stroke="white" stroke-width="0.2"/>
<path d="M139 131.355L228 131.355" stroke="white" stroke-width="0.2"/>
<path d="M139 112.813L228 112.813" stroke="white" stroke-width="0.2"/>
<path d="M139 127.647L228 127.647" stroke="white" stroke-width="0.2"/>
<path d="M139 109.105L228 109.105" stroke="white" stroke-width="0.2"/>
<path d="M139 123.938L228 123.938" stroke="white" stroke-width="0.2"/>
<path d="M139 105.397L228 105.397" stroke="white" stroke-width="0.2"/>
<path d="M139 120.23L228 120.23" stroke="white" stroke-width="0.2"/>
<path d="M139 101.688L228 101.688" stroke="white" stroke-width="0.2"/>
<path d="M139 116.522L228 116.522" stroke="white" stroke-width="0.2"/>
<path d="M139 97.98L228 97.98" stroke="white" stroke-width="0.2"/>
<path d="M139 94.272L228 94.272" stroke="white" stroke-width="0.2"/>
<path d="M139 90.5635L228 90.5635" stroke="white" stroke-width="0.2"/>
</g>
</g>
<path d="M200.189 151.751L201.19 154.458L203.897 155.459L201.19 156.461L200.189 159.168L199.187 156.461L196.48 155.459L199.187 154.458L200.189 151.751Z" fill="white"/>
<path d="M190.917 157.313L191.417 158.667L192.771 159.168L191.417 159.668L190.917 161.022L190.416 159.668L189.062 159.168L190.416 158.667L190.917 157.313Z" fill="white"/>
<path d="M151.979 135.063L152.48 136.417L153.833 136.918L152.48 137.418L151.979 138.772L151.478 137.418L150.125 136.918L151.478 136.417L151.979 135.063Z" fill="white"/>
<circle cx="195.552" cy="106.324" r="0.927083" fill="white"/>
<circle cx="189.065" cy="101.688" r="1.85417" fill="white"/>
<path d="M196.856 121.941L196.856 121.941L196.86 121.943C197.122 122.077 197.478 122.329 197.769 122.781C198.06 123.232 198.294 123.896 198.294 124.871V135.128C198.294 136.102 198.06 136.767 197.769 137.218C197.478 137.67 197.122 137.922 196.86 138.056L196.86 138.056L196.858 138.057C196.612 138.186 196.238 138.328 195.76 138.328C195.203 138.328 194.483 138.148 193.639 137.549L193.639 137.548L191.556 136.075L191.212 135.832L191.197 136.253C191.12 138.43 190.61 139.889 189.598 140.812C188.582 141.738 187.013 142.167 184.71 142.167H176.21C173.789 142.167 172.174 141.323 171.161 140.107C170.141 138.883 169.708 137.258 169.708 135.666V124.333C169.708 121.931 170.177 120.325 171.189 119.312C172.202 118.3 173.808 117.831 176.21 117.831H184.71C187.013 117.831 188.582 118.261 189.598 119.187C190.61 120.109 191.12 121.569 191.197 123.746L191.212 124.167L191.556 123.924L193.638 122.451C193.638 122.451 193.638 122.451 193.638 122.451C194.436 121.892 195.114 121.7 195.649 121.677C196.185 121.655 196.595 121.801 196.856 121.941ZM179.694 126.458C179.694 128.058 181 129.349 182.585 129.349C184.169 129.349 185.476 128.058 185.476 126.458C185.476 124.858 184.169 123.567 182.585 123.567C181 123.567 179.694 124.858 179.694 126.458Z" fill="url(#paint11_linear_1905_89552)" stroke="url(#paint12_linear_1905_89552)" stroke-width="0.455488"/>
</g>
</g>
<defs>
<linearGradient id="paint0_linear_1905_89552" x1="194.5" y1="92" x2="9.43745e-06" y2="258" gradientUnits="userSpaceOnUse">
<stop stop-color="#00CC99"/>
<stop offset="1" stop-color="#00CC99" stop-opacity="0"/>
</linearGradient>
<linearGradient id="paint1_linear_1905_89552" x1="27.8611" y1="262.836" x2="339.985" y2="71.8214" gradientUnits="userSpaceOnUse">
<stop stop-color="#00CC99"/>
<stop offset="0.835856" stop-color="#00CC99" stop-opacity="0"/>
</linearGradient>
<linearGradient id="paint2_linear_1905_89552" x1="27.8611" y1="262.836" x2="339.985" y2="71.8214" gradientUnits="userSpaceOnUse">
<stop stop-color="#00CC99"/>
<stop offset="0.835856" stop-color="#00CC99" stop-opacity="0"/>
</linearGradient>
<linearGradient id="paint3_linear_1905_89552" x1="27.8611" y1="262.836" x2="339.985" y2="71.8214" gradientUnits="userSpaceOnUse">
<stop stop-color="#00CC99"/>
<stop offset="0.835856" stop-color="#00CC99" stop-opacity="0"/>
</linearGradient>
<linearGradient id="paint4_linear_1905_89552" x1="27.8611" y1="262.836" x2="339.985" y2="71.8214" gradientUnits="userSpaceOnUse">
<stop stop-color="#00CC99"/>
<stop offset="0.835856" stop-color="#00CC99" stop-opacity="0"/>
</linearGradient>
<linearGradient id="paint5_linear_1905_89552" x1="183.5" y1="133.208" x2="174.229" y2="203.667" gradientUnits="userSpaceOnUse">
<stop stop-color="#00CC99"/>
<stop offset="1" stop-color="#00CC99" stop-opacity="0"/>
</linearGradient>
<linearGradient id="paint6_linear_1905_89552" x1="171.448" y1="124.865" x2="267.865" y2="165.656" gradientUnits="userSpaceOnUse">
<stop stop-color="white"/>
<stop offset="1" stop-color="#00CC99" stop-opacity="0"/>
</linearGradient>
<linearGradient id="paint7_linear_1905_89552" x1="224.305" y1="198.459" x2="188.564" y2="156.843" gradientUnits="userSpaceOnUse">
<stop stop-color="white"/>
<stop offset="1" stop-color="white" stop-opacity="0"/>
</linearGradient>
<linearGradient id="paint8_linear_1905_89552" x1="210.779" y1="184.198" x2="176.981" y2="135.197" gradientUnits="userSpaceOnUse">
<stop stop-color="white"/>
<stop offset="1" stop-color="white" stop-opacity="0"/>
</linearGradient>
<linearGradient id="paint9_linear_1905_89552" x1="201.376" y1="212.362" x2="165.634" y2="170.745" gradientUnits="userSpaceOnUse">
<stop stop-color="white"/>
<stop offset="1" stop-color="white" stop-opacity="0"/>
</linearGradient>
<linearGradient id="paint10_linear_1905_89552" x1="228.228" y1="221.796" x2="194.43" y2="172.795" gradientUnits="userSpaceOnUse">
<stop stop-color="white"/>
<stop offset="1" stop-color="white" stop-opacity="0"/>
</linearGradient>
<linearGradient id="paint11_linear_1905_89552" x1="181.514" y1="135.001" x2="184.502" y2="109.327" gradientUnits="userSpaceOnUse">
<stop stop-color="white"/>
<stop offset="1" stop-color="#00CC99"/>
</linearGradient>
<linearGradient id="paint12_linear_1905_89552" x1="192.497" y1="167.568" x2="168.756" y2="159.578" gradientUnits="userSpaceOnUse">
<stop stop-color="white"/>
<stop offset="1" stop-color="white" stop-opacity="0"/>
</linearGradient>
<clipPath id="clip0_1905_89552">
<rect width="368" height="258" fill="white"/>
</clipPath>
</defs>
</svg>
