<svg width="73" height="41" viewBox="0 0 73 41" fill="none" xmlns="http://www.w3.org/2000/svg">
<rect x="22.5" y="3" width="38" height="38" rx="19" fill="#00CC99" fill-opacity="0.1"/>
<path d="M39.9047 17.2525L37.3397 18.8125L36.1697 16.8925C35.7422 16.1875 35.9672 15.2575 36.6722 14.83C37.3772 14.4025 38.3072 14.6275 38.7347 15.3325L39.9047 17.2525Z" stroke="#00CC99" stroke-width="1.1" stroke-linecap="round" stroke-linejoin="round"/>
<path d="M41.3605 19.8699L38.9904 21.31C37.6104 22.15 37.1904 23.845 37.8579 25.195L39.3954 28.33C39.8904 29.3425 41.0905 29.6949 42.0505 29.1024L46.8729 26.17C47.8404 25.585 48.073 24.3625 47.4055 23.455L45.3279 20.65C44.4279 19.435 42.7405 19.0299 41.3605 19.8699Z" stroke="#00CC99" stroke-width="1.1" stroke-linecap="round" stroke-linejoin="round"/>
<path d="M40.57 16.8235L36.7266 19.1639L38.2869 21.7262L42.1303 19.3858L40.57 16.8235Z" stroke="#00CC99" stroke-width="1.1" stroke-linecap="round" stroke-linejoin="round"/>
<path d="M43.2363 25.6075L44.4738 27.6401" stroke="#00CC99" stroke-width="1.1" stroke-linecap="round" stroke-linejoin="round"/>
<path d="M41.3086 26.7775L42.5461 28.81" stroke="#00CC99" stroke-width="1.1" stroke-linecap="round" stroke-linejoin="round"/>
<path d="M45.1504 24.4375L46.3879 26.47" stroke="#00CC99" stroke-width="1.1" stroke-linecap="round" stroke-linejoin="round"/>
<circle opacity="0.3" cx="71" cy="2" r="2" fill="#00CC99"/>
<circle cx="7" cy="30" r="2" fill="#8492A7" fill-opacity="0.4"/>
<circle opacity="0.6" cx="3" cy="13" r="3" fill="#00CC99"/>
</svg>
