<svg width="16" height="16" viewBox="0 0 16 16" fill="none" xmlns="http://www.w3.org/2000/svg">
<path d="M8.35398 13.6134H4.14065C2.03398 13.6134 1.33398 12.2134 1.33398 10.8067V5.19339C1.33398 3.08672 2.03398 2.38672 4.14065 2.38672H8.35398C10.4607 2.38672 11.1607 3.08672 11.1607 5.19339V10.8067C11.1607 12.9134 10.454 13.6134 8.35398 13.6134Z" stroke="#8492A7" stroke-width="1.1" stroke-linecap="round" stroke-linejoin="round"/>
<path d="M13.0135 11.4001L11.1602 10.1001V5.89342L13.0135 4.59342C13.9202 3.96009 14.6668 4.34675 14.6668 5.46009V10.5401C14.6668 11.6534 13.9202 12.0401 13.0135 11.4001Z" stroke="#8492A7" stroke-width="1.1" stroke-linecap="round" stroke-linejoin="round"/>
<path d="M7.66602 7.33301C8.2183 7.33301 8.66602 6.88529 8.66602 6.33301C8.66602 5.78072 8.2183 5.33301 7.66602 5.33301C7.11373 5.33301 6.66602 5.78072 6.66602 6.33301C6.66602 6.88529 7.11373 7.33301 7.66602 7.33301Z" stroke="#8492A7" stroke-width="1.1" stroke-linecap="round" stroke-linejoin="round"/>
</svg>
