<svg width="16" height="16" viewBox="0 0 16 16" fill="none" xmlns="http://www.w3.org/2000/svg">
<path d="M8.07917 8.51999C8.0325 8.51332 7.9725 8.51332 7.91917 8.51999C6.74583 8.47999 5.8125 7.51999 5.8125 6.33999C5.8125 5.13332 6.78583 4.15332 7.99917 4.15332C9.20583 4.15332 10.1858 5.13332 10.1858 6.33999C10.1792 7.51999 9.2525 8.47999 8.07917 8.51999Z" stroke="#8492A7" stroke-width="1.1" stroke-linecap="round" stroke-linejoin="round"/>
<path d="M12.4925 12.92C11.3059 14.0067 9.73253 14.6667 7.99919 14.6667C6.26586 14.6667 4.69253 14.0067 3.50586 12.92C3.57253 12.2934 3.97253 11.68 4.68586 11.2C6.51253 9.98671 9.49919 9.98671 11.3125 11.2C12.0259 11.68 12.4259 12.2934 12.4925 12.92Z" stroke="#8492A7" stroke-width="1.1" stroke-linecap="round" stroke-linejoin="round"/>
<path d="M8.00065 14.6663C11.6825 14.6663 14.6673 11.6816 14.6673 7.99967C14.6673 4.31778 11.6825 1.33301 8.00065 1.33301C4.31875 1.33301 1.33398 4.31778 1.33398 7.99967C1.33398 11.6816 4.31875 14.6663 8.00065 14.6663Z" stroke="#8492A7" stroke-width="1.1" stroke-linecap="round" stroke-linejoin="round"/>
</svg>
