<svg width="16" height="16" viewBox="0 0 16 16" fill="none" xmlns="http://www.w3.org/2000/svg">
	<path d="M13.3333 4.69337V11.3067C13.3333 12.32 13.24 13.04 13 13.5534C13 13.56 12.9933 13.5734 12.9867 13.58C12.84 13.7667 12.6467 13.86 12.42 13.86C12.0667 13.86 11.64 13.6267 11.18 13.1334C10.6333 12.5467 9.79331 12.5934 9.31331 13.2334L8.64001 14.1267C8.37335 14.4867 8.02 14.6667 7.66667 14.6667C7.31333 14.6667 6.95999 14.4867 6.69332 14.1267L6.01335 13.2267C5.54001 12.5934 4.70666 12.5467 4.15999 13.1267L4.15332 13.1334C3.39999 13.94 2.73335 14.06 2.34668 13.58C2.34001 13.5734 2.33333 13.56 2.33333 13.5534C2.09333 13.04 2 12.32 2 11.3067V4.69337C2 3.68004 2.09333 2.96004 2.33333 2.44671C2.33333 2.44004 2.33335 2.43337 2.34668 2.42671C2.72668 1.94004 3.39999 2.06004 4.15332 2.86671L4.15999 2.87337C4.70666 3.45337 5.54001 3.40671 6.01335 2.77337L6.69332 1.87337C6.95999 1.51337 7.31333 1.33337 7.66667 1.33337C8.02 1.33337 8.37335 1.51337 8.64001 1.87337L9.31331 2.76671C9.79331 3.40671 10.6333 3.45337 11.18 2.86671C11.64 2.37337 12.0667 2.14004 12.42 2.14004C12.6467 2.14004 12.84 2.24004 12.9867 2.42671C13 2.43337 13 2.44004 13 2.44671C13.24 2.96004 13.3333 3.68004 13.3333 4.69337Z" stroke="#00CC99" stroke-linecap="round" stroke-linejoin="round" />
	<path d="M5.33398 6.83337H10.6673" stroke="#00CC99" stroke-linecap="round" stroke-linejoin="round" />
	<path d="M5.33398 9.16663H9.33398" stroke="#00CC99" stroke-linecap="round" stroke-linejoin="round" />
</svg>
