<svg width="44" height="44" viewBox="0 0 44 44" fill="none" xmlns="http://www.w3.org/2000/svg">
<rect width="44" height="44" rx="8" fill="white" fill-opacity="0.2"/>
<path d="M28.0001 17.16C27.9401 17.15 27.8701 17.15 27.8101 17.16C26.4301 17.11 25.3301 15.98 25.3301 14.58C25.3301 13.15 26.4801 12 27.9101 12C29.3401 12 30.4901 13.16 30.4901 14.58C30.4801 15.98 29.3801 17.11 28.0001 17.16Z" stroke="white" stroke-width="1.5" stroke-linecap="round" stroke-linejoin="round"/>
<path d="M26.9695 24.44C28.3395 24.67 29.8495 24.43 30.9095 23.72C32.3195 22.78 32.3195 21.24 30.9095 20.3C29.8395 19.59 28.3095 19.35 26.9395 19.59" stroke="white" stroke-width="1.5" stroke-linecap="round" stroke-linejoin="round"/>
<path d="M15.9685 17.16C16.0285 17.15 16.0985 17.15 16.1585 17.16C17.5385 17.11 18.6385 15.98 18.6385 14.58C18.6385 13.15 17.4885 12 16.0585 12C14.6285 12 13.4785 13.16 13.4785 14.58C13.4885 15.98 14.5885 17.11 15.9685 17.16Z" stroke="white" stroke-width="1.5" stroke-linecap="round" stroke-linejoin="round"/>
<path d="M16.9995 24.44C15.6295 24.67 14.1195 24.43 13.0595 23.72C11.6495 22.78 11.6495 21.24 13.0595 20.3C14.1295 19.59 15.6595 19.35 17.0295 19.59" stroke="white" stroke-width="1.5" stroke-linecap="round" stroke-linejoin="round"/>
<path d="M22.0001 24.63C21.9401 24.62 21.8701 24.62 21.8101 24.63C20.4301 24.58 19.3301 23.45 19.3301 22.05C19.3301 20.62 20.4801 19.47 21.9101 19.47C23.3401 19.47 24.4901 20.63 24.4901 22.05C24.4801 23.45 23.3801 24.59 22.0001 24.63Z" stroke="white" stroke-width="1.5" stroke-linecap="round" stroke-linejoin="round"/>
<path d="M19.0907 27.78C17.6807 28.72 17.6807 30.26 19.0907 31.2C20.6907 32.27 23.3107 32.27 24.9107 31.2C26.3207 30.26 26.3207 28.72 24.9107 27.78C23.3207 26.72 20.6907 26.72 19.0907 27.78Z" stroke="white" stroke-width="1.5" stroke-linecap="round" stroke-linejoin="round"/>
</svg>
