<svg width="44" height="44" viewBox="0 0 44 44" fill="none" xmlns="http://www.w3.org/2000/svg">
<rect width="44" height="44" rx="8" fill="white" fill-opacity="0.2"/>
<path d="M19.1605 20.87C19.0605 20.86 18.9405 20.86 18.8305 20.87C16.4505 20.79 14.5605 18.84 14.5605 16.44C14.5605 13.99 16.5405 12 19.0005 12C21.4505 12 23.4405 13.99 23.4405 16.44C23.4305 18.84 21.5405 20.79 19.1605 20.87Z" stroke="white" stroke-width="1.5" stroke-linecap="round" stroke-linejoin="round"/>
<path d="M26.4093 14C28.3493 14 29.9093 15.57 29.9093 17.5C29.9093 19.39 28.4093 20.93 26.5393 21C26.4593 20.99 26.3693 20.99 26.2793 21" stroke="white" stroke-width="1.5" stroke-linecap="round" stroke-linejoin="round"/>
<path d="M14.1607 24.56C11.7407 26.18 11.7407 28.82 14.1607 30.43C16.9107 32.27 21.4207 32.27 24.1707 30.43C26.5907 28.81 26.5907 26.17 24.1707 24.56C21.4307 22.73 16.9207 22.73 14.1607 24.56Z" stroke="white" stroke-width="1.5" stroke-linecap="round" stroke-linejoin="round"/>
<path d="M28.3398 30C29.0598 29.85 29.7398 29.56 30.2998 29.13C31.8598 27.96 31.8598 26.03 30.2998 24.86C29.7498 24.44 29.0798 24.16 28.3698 24" stroke="white" stroke-width="1.5" stroke-linecap="round" stroke-linejoin="round"/>
</svg>
