<svg width="19" height="19" viewBox="0 0 19 19" fill="none" xmlns="http://www.w3.org/2000/svg">
<path d="M15.9829 11.1308L15.0883 9.64251C14.8904 9.31792 14.7162 8.69251 14.7162 8.31251V6.83209C14.7162 3.95834 12.3808 1.62292 9.51498 1.62292C6.64123 1.63084 4.30581 3.95834 4.30581 6.83209V8.30459C4.30581 8.68459 4.13164 9.31001 3.94164 9.63459L3.04706 11.1229C2.70664 11.7008 2.62748 12.3579 2.84123 12.9279C3.05498 13.5058 3.53789 13.965 4.17123 14.1708C5.02623 14.4558 5.88914 14.6617 6.76789 14.8121C6.85498 14.8279 6.94206 14.8358 7.02914 14.8517C7.13998 14.8675 7.25873 14.8833 7.37748 14.8992C7.58331 14.9308 7.78914 14.9546 8.00289 14.9704C8.50164 15.0179 9.00831 15.0417 9.51498 15.0417C10.0137 15.0417 10.5125 15.0179 11.0033 14.9704C11.1854 14.9546 11.3675 14.9388 11.5416 14.915C11.6841 14.8992 11.8266 14.8833 11.9691 14.8596C12.0562 14.8517 12.1433 14.8358 12.2304 14.82C13.1171 14.6775 13.9958 14.4558 14.8508 14.1708C15.4604 13.965 15.9275 13.5058 16.1491 12.92C16.3708 12.3263 16.3075 11.6771 15.9829 11.1308ZM10.0929 7.91667C10.0929 8.24917 9.82373 8.51834 9.49123 8.51834C9.15873 8.51834 8.88956 8.24917 8.88956 7.91667V5.46251C8.88956 5.13001 9.15873 4.86084 9.49123 4.86084C9.82373 4.86084 10.0929 5.13001 10.0929 5.46251V7.91667Z" fill="#000"/>
<path d="M11.7405 15.8413C11.408 16.7596 10.5292 17.4167 9.50008 17.4167C8.87466 17.4167 8.25716 17.1634 7.82174 16.7121C7.56841 16.4746 7.37841 16.158 7.26758 15.8334C7.37049 15.8492 7.47341 15.8571 7.58424 15.873C7.76633 15.8967 7.95633 15.9205 8.14633 15.9363C8.59758 15.9759 9.05674 15.9996 9.51591 15.9996C9.96716 15.9996 10.4184 15.9759 10.8617 15.9363C11.028 15.9205 11.1942 15.9125 11.3526 15.8888C11.4792 15.873 11.6059 15.8571 11.7405 15.8413Z" fill="#000"/>
</svg>
