<svg width="19" height="18" viewBox="0 0 19 18" fill="none" xmlns="http://www.w3.org/2000/svg">
<path d="M3.125 6.8175H15.875" stroke="#D5DEE7" stroke-width="1.1" stroke-miterlimit="10" stroke-linecap="round" stroke-linejoin="round"/>
<path d="M16.25 6.375V12.27C15.7025 11.6475 14.9 11.25 14 11.25C12.3425 11.25 11 12.5925 11 14.25C11 14.8125 11.1575 15.345 11.435 15.795C11.5925 16.065 11.795 16.305 12.0275 16.5H6.5C3.875 16.5 2.75 15 2.75 12.75V6.375C2.75 4.125 3.875 2.625 6.5 2.625H12.5C15.125 2.625 16.25 4.125 16.25 6.375Z" stroke="#D5DEE7" stroke-width="1.1" stroke-miterlimit="10" stroke-linecap="round" stroke-linejoin="round"/>
<path d="M6.5 1.5V3.75" stroke="#536780" stroke-width="1.1" stroke-miterlimit="10" stroke-linecap="round" stroke-linejoin="round"/>
<path d="M12.5 1.5V3.75" stroke="#536780" stroke-width="1.1" stroke-miterlimit="10" stroke-linecap="round" stroke-linejoin="round"/>
<path d="M17 14.25C17 14.8125 16.8425 15.345 16.565 15.795C16.0475 16.665 15.095 17.25 14 17.25C13.2425 17.25 12.5525 16.9725 12.0275 16.5C11.795 16.305 11.5925 16.065 11.435 15.795C11.1575 15.345 11 14.8125 11 14.25C11 12.5925 12.3425 11.25 14 11.25C14.9 11.25 15.7025 11.6475 16.25 12.27C16.715 12.8025 17 13.4925 17 14.25Z" stroke="#536780" stroke-width="1.1" stroke-miterlimit="10" stroke-linecap="round" stroke-linejoin="round"/>
<path d="M12.8301 14.25L13.5726 14.9925L15.1701 13.515" stroke="#536780" stroke-width="1.1" stroke-linecap="round" stroke-linejoin="round"/>
<path d="M9.49588 10.275H9.50262" stroke="#536780" stroke-width="1.4" stroke-linecap="round" stroke-linejoin="round"/>
<path d="M6.72049 10.275H6.72723" stroke="#536780" stroke-width="1.4" stroke-linecap="round" stroke-linejoin="round"/>
<path d="M6.72049 12.525H6.72723" stroke="#536780" stroke-width="1.4" stroke-linecap="round" stroke-linejoin="round"/>
</svg>
