<svg width="20" height="20" viewBox="0 0 20 20" fill="none" xmlns="http://www.w3.org/2000/svg">
<path d="M14.1562 7.50002C14.1562 10.725 11.3562 13.3334 7.90625 13.3334L7.13126 14.2667L6.67292 14.8167C6.28125 15.2834 5.53125 15.1833 5.27291 14.625L4.15625 12.1667C2.63958 11.1 1.65625 9.40835 1.65625 7.50002C1.65625 4.27502 4.45625 1.66669 7.90625 1.66669C10.4229 1.66669 12.5979 3.05836 13.5729 5.05836C13.9479 5.80003 14.1562 6.62502 14.1562 7.50002Z" stroke="#00CC99" stroke-width="1.5" stroke-linecap="round" stroke-linejoin="round"/>
<path d="M18.3323 10.7167C18.3323 12.625 17.349 14.3167 15.8323 15.3834L14.7156 17.8417C14.4573 18.4 13.7073 18.5084 13.3156 18.0334L12.0823 16.55C10.0656 16.55 8.26563 15.6583 7.14062 14.2667L7.91562 13.3333C11.3656 13.3333 14.1656 10.725 14.1656 7.50001C14.1656 6.62501 13.9573 5.80002 13.5823 5.05835C16.3073 5.68335 18.3323 7.98333 18.3323 10.7167Z" stroke="#00CC99" stroke-width="1.5" stroke-linecap="round" stroke-linejoin="round"/>
<path d="M5.84375 7.5H10.0104" stroke="#00CC99" stroke-width="1.5" stroke-linecap="round" stroke-linejoin="round"/>
</svg>
