<svg width="17" height="17" viewBox="0 0 17 17" fill="none" xmlns="http://www.w3.org/2000/svg">
<path d="M6.59375 10.4126L7.65625 11.4751L10.4896 8.64172" stroke="#00CC99" stroke-width="1.2" stroke-linecap="round" stroke-linejoin="round"/>
<path d="M7.08268 4.24996H9.91601C11.3327 4.24996 11.3327 3.54163 11.3327 2.83329C11.3327 1.41663 10.6243 1.41663 9.91601 1.41663H7.08268C6.37435 1.41663 5.66602 1.41663 5.66602 2.83329C5.66602 4.24996 6.37435 4.24996 7.08268 4.24996Z" stroke="#00CC99" stroke-width="1.2" stroke-miterlimit="10" stroke-linecap="round" stroke-linejoin="round"/>
<path d="M11.3333 2.84753C13.6921 2.97503 14.875 3.84628 14.875 7.08337V11.3334C14.875 14.1667 14.1667 15.5834 10.625 15.5834H6.375C2.83333 15.5834 2.125 14.1667 2.125 11.3334V7.08337C2.125 3.85337 3.30792 2.97503 5.66667 2.84753" stroke="#00CC99" stroke-width="1.2" stroke-miterlimit="10" stroke-linecap="round" stroke-linejoin="round"/>
</svg>
