<svg width="16" height="16" viewBox="0 0 16 16" fill="none" xmlns="http://www.w3.org/2000/svg">
<path d="M6.20703 9.79997L7.20703 10.8L9.8737 8.1333" stroke="#00CC99" stroke-width="1.5" stroke-linecap="round" stroke-linejoin="round"/>
<path d="M6.66536 4.00004H9.33203C10.6654 4.00004 10.6654 3.33337 10.6654 2.66671C10.6654 1.33337 9.9987 1.33337 9.33203 1.33337H6.66536C5.9987 1.33337 5.33203 1.33337 5.33203 2.66671C5.33203 4.00004 5.9987 4.00004 6.66536 4.00004Z" stroke="#00CC99" stroke-width="1.5" stroke-miterlimit="10" stroke-linecap="round" stroke-linejoin="round"/>
<path d="M10.6667 2.68005C12.8867 2.80005 14 3.62005 14 6.66672V10.6667C14 13.3334 13.3333 14.6667 10 14.6667H6C2.66667 14.6667 2 13.3334 2 10.6667V6.66672C2 3.62672 3.11333 2.80005 5.33333 2.68005" stroke="#00CC99" stroke-width="1.5" stroke-miterlimit="10" stroke-linecap="round" stroke-linejoin="round"/>
</svg>
