<svg width="18" height="18" viewBox="0 0 18 18" fill="none" xmlns="http://www.w3.org/2000/svg">
<path d="M2.25 6.75C3.07843 6.75 3.75 6.07843 3.75 5.25C3.75 4.42157 3.07843 3.75 2.25 3.75C1.42157 3.75 0.75 4.42157 0.75 5.25C0.75 6.07843 1.42157 6.75 2.25 6.75Z" stroke="#000" stroke-width="1.5" stroke-miterlimit="10" stroke-linecap="round" stroke-linejoin="round"/>
<path d="M15.75 6.75C16.5784 6.75 17.25 6.07843 17.25 5.25C17.25 4.42157 16.5784 3.75 15.75 3.75C14.9216 3.75 14.25 4.42157 14.25 5.25C14.25 6.07843 14.9216 6.75 15.75 6.75Z" stroke="#000" stroke-width="1.5" stroke-miterlimit="10" stroke-linecap="round" stroke-linejoin="round"/>
<path d="M14.25 5.25H11.25" stroke="#000" stroke-width="1.5" stroke-miterlimit="10" stroke-linecap="round" stroke-linejoin="round"/>
<path d="M6.75 5.25H3.75" stroke="#000" stroke-width="1.5" stroke-miterlimit="10" stroke-linecap="round" stroke-linejoin="round"/>
<path d="M5.625 12.375V13.875C5.625 14.3325 5.3475 14.73 4.9575 14.895C4.815 14.9625 4.665 15 4.5 15H3C2.3775 15 1.875 14.4975 1.875 13.875V12.375C1.875 11.7525 2.3775 11.25 3 11.25H4.5C5.1225 11.25 5.625 11.7525 5.625 12.375Z" stroke="#000" stroke-width="1.5" stroke-miterlimit="10" stroke-linecap="round" stroke-linejoin="round"/>
<path d="M16.125 12.375V13.875C16.125 14.4975 15.6225 15 15 15H13.5C13.335 15 13.185 14.9625 13.0425 14.895C12.6525 14.73 12.375 14.3325 12.375 13.875V12.375C12.375 11.7525 12.8775 11.25 13.5 11.25H15C15.6225 11.25 16.125 11.7525 16.125 12.375Z" stroke="#000" stroke-width="1.5" stroke-miterlimit="10" stroke-linecap="round" stroke-linejoin="round"/>
<path d="M11.25 4.125V6.375C11.25 6.99 10.74 7.5 10.125 7.5H7.875C7.26 7.5 6.75 6.99 6.75 6.375V4.125C6.75 3.51 7.26 3 7.875 3H10.125C10.74 3 11.25 3.51 11.25 4.125Z" stroke="#000" stroke-width="1.5" stroke-miterlimit="10" stroke-linecap="round" stroke-linejoin="round"/>
<path d="M11.25 5.79749C13.0275 6.69749 14.25 8.6325 14.25 10.875C14.25 11.0025 14.2425 11.1225 14.2275 11.25" stroke="#000" stroke-width="1.5" stroke-miterlimit="10" stroke-linecap="round" stroke-linejoin="round"/>
<path d="M3.7725 11.25C3.7575 11.1225 3.75 11.0025 3.75 10.875C3.75 8.6325 4.9725 6.69749 6.75 5.79749" stroke="#000" stroke-width="1.5" stroke-miterlimit="10" stroke-linecap="round" stroke-linejoin="round"/>
</svg>
