<svg width="22" height="22" viewBox="0 0 22 22" fill="none" xmlns="http://www.w3.org/2000/svg">
  <path d="M10.3123 7.40662V10.0283L9.38643 9.70745C8.91893 9.54245 8.63477 9.38662 8.63477 8.58912C8.63477 7.93828 9.1206 7.40662 9.71643 7.40662H10.3123Z" fill="#00CC99" />
  <path d="M13.365 13.4108C13.365 14.0617 12.8792 14.5933 12.2833 14.5933H11.6875V11.9717L12.6133 12.2925C13.0808 12.4575 13.365 12.6133 13.365 13.4108Z" fill="#00CC99" />
  <path d="M14.8405 1.83337H7.15884C3.82217 1.83337 1.83301 3.82254 1.83301 7.15921V14.8409C1.83301 18.1775 3.82217 20.1667 7.15884 20.1667H14.8405C18.1772 20.1667 20.1663 18.1775 20.1663 14.8409V7.15921C20.1663 3.82254 18.1772 1.83337 14.8405 1.83337ZM13.0713 11C13.7863 11.2475 14.7397 11.77 14.7397 13.4109C14.7397 14.8225 13.6397 15.9684 12.283 15.9684H11.6872V16.5C11.6872 16.8759 11.3755 17.1875 10.9997 17.1875C10.6238 17.1875 10.3122 16.8759 10.3122 16.5V15.9684H9.98217C8.47884 15.9684 7.25967 14.6942 7.25967 13.1359C7.25967 12.76 7.56217 12.4484 7.94717 12.4484C8.32301 12.4484 8.63467 12.76 8.63467 13.1359C8.63467 13.9425 9.23967 14.5934 9.98217 14.5934H10.3122V11.4859L8.92801 11C8.21301 10.7525 7.25967 10.23 7.25967 8.58921C7.25967 7.17754 8.35967 6.03171 9.71634 6.03171H10.3122V5.50004C10.3122 5.12421 10.6238 4.81254 10.9997 4.81254C11.3755 4.81254 11.6872 5.12421 11.6872 5.50004V6.03171H12.0172C13.5205 6.03171 14.7397 7.30587 14.7397 8.86421C14.7397 9.24004 14.4372 9.55171 14.0522 9.55171C13.6763 9.55171 13.3647 9.24004 13.3647 8.86421C13.3647 8.05754 12.7597 7.40671 12.0172 7.40671H11.6872V10.5142L13.0713 11Z" fill="#00CC99" />
</svg>
