<svg width="19" height="19" viewBox="0 0 19 19" fill="none" xmlns="http://www.w3.org/2000/svg">
  <path d="M7.12467 17.4166H11.8747C15.833 17.4166 17.4163 15.8333 17.4163 11.8749V7.12492C17.4163 3.16659 15.833 1.58325 11.8747 1.58325H7.12467C3.16634 1.58325 1.58301 3.16659 1.58301 7.12492V11.8749C1.58301 15.8333 3.16634 17.4166 7.12467 17.4166Z" stroke="#8492A7" stroke-width="1.1" />
  <path d="M12.2705 7.71875C12.9263 7.71875 13.458 7.18709 13.458 6.53125C13.458 5.87541 12.9263 5.34375 12.2705 5.34375C11.6147 5.34375 11.083 5.87541 11.083 6.53125C11.083 7.18709 11.6147 7.71875 12.2705 7.71875Z" stroke="#8492A7" stroke-width="1.1" />
  <path d="M6.72949 7.71875C7.38533 7.71875 7.91699 7.18709 7.91699 6.53125C7.91699 5.87541 7.38533 5.34375 6.72949 5.34375C6.07365 5.34375 5.54199 5.87541 5.54199 6.53125C5.54199 7.18709 6.07365 7.71875 6.72949 7.71875Z" stroke="#8492A7" stroke-width="1.1" />
  <path d="M6.65 10.5291H12.35C12.7458 10.5291 13.0625 10.8457 13.0625 11.2416C13.0625 13.2128 11.4713 14.8041 9.5 14.8041C7.52875 14.8041 5.9375 13.2128 5.9375 11.2416C5.9375 10.8457 6.25417 10.5291 6.65 10.5291Z" stroke="#8492A7" stroke-width="1.1" />
</svg>
