<svg width="18" height="18" viewBox="0 0 18 18" fill="none" xmlns="http://www.w3.org/2000/svg">
	<path d="M12.1425 1.5H5.8575C3.1275 1.5 1.5 3.1275 1.5 5.8575V12.135C1.5 14.8725 3.1275 16.5 5.8575 16.5H12.135C14.865 16.5 16.4925 14.8725 16.4925 12.1425V5.8575C16.5 3.1275 14.8725 1.5 12.1425 1.5ZM14.0625 7.5C14.0625 7.8075 13.8075 8.0625 13.5 8.0625C13.1925 8.0625 12.9375 7.8075 12.9375 7.5V5.8575L5.8575 12.9375H7.5C7.8075 12.9375 8.0625 13.1925 8.0625 13.5C8.0625 13.8075 7.8075 14.0625 7.5 14.0625H4.5C4.425 14.0625 4.35 14.0475 4.2825 14.0175C4.1475 13.9575 4.035 13.8525 3.975 13.71C3.9525 13.6425 3.9375 13.575 3.9375 13.5V10.5C3.9375 10.1925 4.1925 9.9375 4.5 9.9375C4.8075 9.9375 5.0625 10.1925 5.0625 10.5V12.1425L12.1425 5.0625H10.5C10.1925 5.0625 9.9375 4.8075 9.9375 4.5C9.9375 4.1925 10.1925 3.9375 10.5 3.9375H13.5C13.575 3.9375 13.6425 3.9525 13.7175 3.9825C13.8525 4.0425 13.965 4.1475 14.025 4.29C14.0475 4.3575 14.0625 4.425 14.0625 4.5V7.5Z" fill="#B6BEC7" />
</svg>
