<svg width="32" height="32" viewBox="0 0 32 32" fill="none" xmlns="http://www.w3.org/2000/svg">
<rect width="32" height="32" rx="16" fill="white"/>
<path d="M20.998 20.034V16.089C20.998 13.289 18.748 10.999 15.998 10.999C13.248 10.999 10.998 13.289 10.998 16.089V20.034C10.998 20.664 11.373 20.834 11.833 20.414L12.333 19.959C12.518 19.789 12.8181 19.789 13.0031 19.959L14.0031 20.874C14.1881 21.044 14.488 21.044 14.673 20.874L15.673 19.959C15.858 19.789 16.158 19.789 16.343 19.959L17.343 20.874C17.528 21.044 17.8281 21.044 18.0131 20.874L19.0131 19.959C19.1981 19.789 19.498 19.789 19.683 19.959L20.183 20.414C20.623 20.834 20.998 20.664 20.998 20.034Z" stroke="#B6BEC7" stroke-width="1.1" stroke-linecap="round" stroke-linejoin="round"/>
<path d="M13.998 16.999C15.183 17.889 16.813 17.889 17.998 16.999" stroke="#B6BEC7" stroke-width="1.1" stroke-linecap="round" stroke-linejoin="round"/>
<path d="M16.002 15.501C16.5542 15.501 17.002 15.0533 17.002 14.501C17.002 13.9487 16.5542 13.501 16.002 13.501C15.4497 13.501 15.002 13.9487 15.002 14.501C15.002 15.0533 15.4497 15.501 16.002 15.501Z" stroke="#B6BEC7" stroke-width="1.1" stroke-linecap="round" stroke-linejoin="round"/>
</svg>
