<svg width="20" height="21" viewBox="0 0 20 21" fill="none" xmlns="http://www.w3.org/2000/svg">
<path d="M17.7096 8.12506C15.7846 5.10006 12.968 3.3584 10.0013 3.3584C8.51797 3.3584 7.0763 3.79173 5.75963 4.60007C4.44297 5.41673 3.25964 6.6084 2.29297 8.12506C1.45964 9.4334 1.45964 11.5584 2.29297 12.8667C4.21797 15.9001 7.03463 17.6334 10.0013 17.6334C11.4846 17.6334 12.9263 17.2001 14.243 16.3917C15.5596 15.5751 16.743 14.3834 17.7096 12.8667C18.543 11.5667 18.543 9.4334 17.7096 8.12506ZM10.0013 13.8667C8.13463 13.8667 6.63463 12.3584 6.63463 10.5001C6.63463 8.64173 8.13463 7.1334 10.0013 7.1334C11.868 7.1334 13.368 8.64173 13.368 10.5001C13.368 12.3584 11.868 13.8667 10.0013 13.8667Z" fill="#00CC99"/>
<path d="M10 8.1167C8.69167 8.1167 7.625 9.18337 7.625 10.5C7.625 11.8084 8.69167 12.875 10 12.875C11.3083 12.875 12.3833 11.8084 12.3833 10.5C12.3833 9.1917 11.3083 8.1167 10 8.1167Z" fill="#00CC99"/>
</svg>
