<svg width="14" height="14" viewBox="0 0 14 14" fill="none" xmlns="http://www.w3.org/2000/svg">
<path opacity="0.4" d="M7.65054 1.07582L9.13486 4.05867C9.24422 4.27478 9.45293 4.42486 9.69365 4.45821L13.0277 4.94379C13.2224 4.97114 13.3991 5.07386 13.5185 5.2306C13.6365 5.38535 13.6872 5.58145 13.6585 5.77421C13.6352 5.93429 13.5598 6.08237 13.4445 6.19576L11.0286 8.53762C10.8519 8.70103 10.7719 8.94316 10.8146 9.17994L11.4093 12.4723C11.4727 12.8698 11.2093 13.2447 10.8146 13.32C10.6519 13.3461 10.4852 13.3187 10.3385 13.244L7.36448 11.6946C7.14377 11.5832 6.88304 11.5832 6.66233 11.6946L3.68836 13.244C3.32295 13.4381 2.87018 13.306 2.66681 12.9459C2.59146 12.8025 2.56478 12.639 2.58946 12.4796L3.18425 9.18661C3.22693 8.95049 3.14624 8.70704 2.9702 8.54362L0.554352 6.2031C0.266957 5.92562 0.258289 5.46872 0.535015 5.18124C0.541016 5.17524 0.547684 5.16857 0.554352 5.1619C0.669044 5.04518 0.819743 4.97114 0.982444 4.95179L4.31649 4.46555C4.55654 4.43153 4.76526 4.28279 4.87528 4.06534L6.30625 1.07582C6.43361 0.819694 6.69767 0.660279 6.9844 0.66695H7.07375C7.32247 0.696965 7.53919 0.851043 7.65054 1.07582Z" fill="#8492A7"/>
<path d="M6.99435 11.6115C6.86522 11.6155 6.73941 11.6502 6.62625 11.7122L3.66682 13.2582C3.30471 13.431 2.87138 13.2969 2.66836 12.9506C2.59315 12.8091 2.56586 12.647 2.59115 12.4882L3.18224 9.20218C3.22218 8.96332 3.1423 8.72045 2.96857 8.55232L0.551633 6.2124C0.264742 5.9315 0.259417 5.47046 0.540317 5.18289C0.544311 5.17888 0.547639 5.17555 0.551633 5.17221C0.666122 5.05879 0.813894 4.98406 0.972982 4.96071L4.30983 4.46964C4.55146 4.43894 4.76113 4.28815 4.86763 4.06931L6.31806 1.04216C6.45585 0.79796 6.72011 0.652507 6.99967 0.667853C6.99435 0.866016 6.99435 11.4767 6.99435 11.6115Z" fill="#8492A7"/>
</svg>
