<svg width="20" height="20" viewBox="0 0 20 20" fill="none" xmlns="http://www.w3.org/2000/svg">
<path d="M7.5013 18.3333H12.5013C16.668 18.3333 18.3346 16.6666 18.3346 12.5V7.49996C18.3346 3.33329 16.668 1.66663 12.5013 1.66663H7.5013C3.33464 1.66663 1.66797 3.33329 1.66797 7.49996V12.5C1.66797 16.6666 3.33464 18.3333 7.5013 18.3333Z" stroke="#8492A7" stroke-width="1.5" stroke-linecap="round" stroke-linejoin="round"/>
<path d="M7.4987 8.33333C8.41917 8.33333 9.16536 7.58714 9.16536 6.66667C9.16536 5.74619 8.41917 5 7.4987 5C6.57822 5 5.83203 5.74619 5.83203 6.66667C5.83203 7.58714 6.57822 8.33333 7.4987 8.33333Z" stroke="#8492A7" stroke-width="1.5" stroke-linecap="round" stroke-linejoin="round"/>
<path d="M2.22656 15.7917L6.3349 13.0333C6.99323 12.5917 7.94323 12.6417 8.5349 13.15L8.8099 13.3917C9.4599 13.95 10.5099 13.95 11.1599 13.3917L14.6266 10.4167C15.2766 9.85834 16.3266 9.85834 16.9766 10.4167L18.3349 11.5833" stroke="#8492A7" stroke-width="1.5" stroke-linecap="round" stroke-linejoin="round"/>
</svg>
