<svg width="34" height="34" viewBox="0 0 34 34" fill="none" xmlns="http://www.w3.org/2000/svg">
<path d="M12.7507 31.1667H21.2507C28.334 31.1667 31.1673 28.3334 31.1673 21.25V12.75C31.1673 5.66671 28.334 2.83337 21.2507 2.83337H12.7507C5.66732 2.83337 2.83398 5.66671 2.83398 12.75V21.25C2.83398 28.3334 5.66732 31.1667 12.7507 31.1667Z" stroke="#00CC99" stroke-width="1.5" stroke-linecap="round" stroke-linejoin="round"/>
<path d="M12.7493 14.1667C14.3142 14.1667 15.5827 12.8981 15.5827 11.3333C15.5827 9.76853 14.3142 8.5 12.7493 8.5C11.1845 8.5 9.91602 9.76853 9.91602 11.3333C9.91602 12.8981 11.1845 14.1667 12.7493 14.1667Z" stroke="#00CC99" stroke-width="1.5" stroke-linecap="round" stroke-linejoin="round"/>
<path d="M3.7832 26.8458L10.7674 22.1567C11.8865 21.4058 13.5015 21.4908 14.5074 22.355L14.9749 22.7658C16.0799 23.715 17.8649 23.715 18.9699 22.7658L24.8632 17.7083C25.9682 16.7592 27.7532 16.7592 28.8582 17.7083L31.1674 19.6917" stroke="#00CC99" stroke-width="1.5" stroke-linecap="round" stroke-linejoin="round"/>
</svg>
