<svg width="118" height="53" viewBox="0 0 118 53" fill="none" xmlns="http://www.w3.org/2000/svg">
<g opacity="0.6">
<circle cx="67.2315" cy="1.37209" r="1.37209" fill="white"/>
<circle cx="67.2315" cy="17.8372" r="1.37209" fill="white"/>
<circle cx="67.2315" cy="34.3023" r="1.37209" fill="white"/>
<circle cx="67.2315" cy="50.7674" r="1.37209" fill="white"/>
<circle cx="83.6963" cy="1.37209" r="1.37209" fill="white"/>
<circle cx="83.6963" cy="17.8372" r="1.37209" fill="white"/>
<circle cx="83.6963" cy="34.3023" r="1.37209" fill="white"/>
<circle cx="83.6963" cy="50.7674" r="1.37209" fill="white"/>
<circle cx="100.163" cy="1.37209" r="1.37209" fill="white"/>
<circle cx="100.163" cy="17.8372" r="1.37209" fill="white"/>
<circle cx="100.163" cy="34.3023" r="1.37209" fill="white"/>
<circle cx="100.163" cy="50.7674" r="1.37209" fill="white"/>
<circle cx="116.628" cy="1.37209" r="1.37209" fill="white"/>
<circle cx="116.628" cy="17.8372" r="1.37209" fill="white"/>
<circle cx="116.628" cy="34.3023" r="1.37209" fill="white"/>
<circle cx="116.628" cy="50.7674" r="1.37209" fill="white"/>
</g>
<g opacity="0.6">
<circle cx="1.37209" cy="1.37209" r="1.37209" fill="white"/>
<circle cx="1.37209" cy="17.8372" r="1.37209" fill="white"/>
<circle cx="1.37209" cy="34.3023" r="1.37209" fill="white"/>
<circle cx="1.37209" cy="50.7674" r="1.37209" fill="white"/>
<circle cx="17.8369" cy="1.37209" r="1.37209" fill="white"/>
<circle cx="17.8369" cy="17.8372" r="1.37209" fill="white"/>
<circle cx="17.8369" cy="34.3023" r="1.37209" fill="white"/>
<circle cx="17.8369" cy="50.7674" r="1.37209" fill="white"/>
<circle cx="34.3037" cy="1.37209" r="1.37209" fill="white"/>
<circle cx="34.3037" cy="17.8372" r="1.37209" fill="white"/>
<circle cx="34.3037" cy="34.3023" r="1.37209" fill="white"/>
<circle cx="34.3037" cy="50.7674" r="1.37209" fill="white"/>
<circle cx="50.7686" cy="1.37209" r="1.37209" fill="white"/>
<circle cx="50.7686" cy="17.8372" r="1.37209" fill="white"/>
<circle cx="50.7686" cy="34.3023" r="1.37209" fill="white"/>
<circle cx="50.7686" cy="50.7674" r="1.37209" fill="white"/>
</g>
</svg>
