<svg width="20" height="20" viewBox="0 0 20 20" fill="none" xmlns="http://www.w3.org/2000/svg">
<path d="M6.23242 15.2917L8.81576 17.2917C9.14909 17.625 9.89909 17.7917 10.3991 17.7917H13.5658C14.5658 17.7917 15.6491 17.0417 15.8991 16.0417L17.8991 9.95835C18.3158 8.79168 17.5658 7.79168 16.3158 7.79168H12.9824C12.4824 7.79168 12.0658 7.37501 12.1491 6.79168L12.5658 4.12501C12.7324 3.37501 12.2324 2.54168 11.4824 2.29168C10.8158 2.04168 9.98242 2.37501 9.64909 2.87501L6.23242 7.95835" stroke="#8492A7" stroke-width="1.1" stroke-miterlimit="10"/>
<path d="M1.98242 15.2916V7.12496C1.98242 5.95829 2.48242 5.54163 3.64909 5.54163H4.48242C5.64909 5.54163 6.14909 5.95829 6.14909 7.12496V15.2916C6.14909 16.4583 5.64909 16.875 4.48242 16.875H3.64909C2.48242 16.875 1.98242 16.4583 1.98242 15.2916Z" stroke="#8492A7" stroke-width="1.1" stroke-linecap="round" stroke-linejoin="round"/>
</svg>
