<svg width="14" height="18" viewBox="0 0 14 18" fill="none" xmlns="http://www.w3.org/2000/svg">
	<path d="M12.5303 5.01077C12.7251 3.74073 12.5303 2.89404 11.8485 2.11247C11.1018 1.23322 9.73828 0.875 7.98515 0.875H2.95303C2.59591 0.875 2.30372 1.13552 2.23879 1.49374L0.12854 14.8454C0.0960746 15.106 0.290867 15.3339 0.550589 15.3339H3.66726L3.44001 16.7017C3.40754 16.9296 3.56987 17.125 3.82959 17.125H6.45928C6.78394 17.125 7.04366 16.897 7.07612 16.604L7.62804 13.1521C7.6605 12.859 7.95269 12.631 8.24488 12.631H8.63446C11.1668 12.631 13.1796 11.5889 13.764 8.59294C13.9912 7.35546 13.8938 6.28081 13.2445 5.56438C13.0497 5.33642 12.8225 5.1736 12.5303 5.01077Z" fill="#009CDE" />
	<path d="M12.5303 5.01077C12.7251 3.74073 12.5303 2.89404 11.8485 2.11247C11.1018 1.23322 9.73828 0.875 7.98515 0.875H2.95302C2.59591 0.875 2.30372 1.13552 2.23879 1.49374L0.12854 14.8454C0.0960746 15.106 0.290867 15.3339 0.550589 15.3339H3.66726L4.41397 10.5143C4.4789 10.1561 4.77108 9.89554 5.1282 9.89554H6.62161C9.54349 9.89554 11.8161 8.7232 12.4654 5.27129C12.4978 5.20616 12.4978 5.10847 12.5303 5.01077Z" fill="#012169" />
	<path d="M5.29053 5.04334C5.323 4.81538 5.61518 4.52229 5.90737 4.52229H9.86814C10.3227 4.52229 10.7772 4.55486 11.1668 4.61999C11.5239 4.68512 12.1732 4.84795 12.4978 5.04334C12.6926 3.7733 12.4978 2.9266 11.8161 2.14504C11.1018 1.23322 9.73828 0.875 7.98515 0.875H2.95303C2.59591 0.875 2.30372 1.13552 2.23879 1.49374L0.12854 14.8454C0.0960746 15.106 0.290867 15.3339 0.550589 15.3339H3.66726L5.29053 5.04334Z" fill="#003087" />
</svg>
