<svg version="1.1" id="Layer_1" xmlns="http://www.w3.org/2000/svg" xmlns:xlink="http://www.w3.org/1999/xlink" x="0px" y="0px" viewBox="0 0 193.1 193.1" style="enable-background:new 0 0 193.1 193.1;" xml:space="preserve">
	<style type="text/css">
		.st0{fill:#000;}
	</style>
	<g id="LOGO">
		<path class="st0" d="M189.4,77.3l-0.3-0.7L163,8.4c-0.5-1.3-1.5-2.5-2.7-3.2c-2.5-1.5-5.7-1.4-8,0.4c-1.1,0.9-1.9,2.1-2.3,3.5
		l-17.6,54H60.9l-17.6-54c-0.4-1.4-1.2-2.6-2.3-3.5c-2.3-1.8-5.5-2-8-0.4c-1.2,0.8-2.2,1.9-2.7,3.2L4,76.6l-0.3,0.7
		c-7.7,20.2-1.2,43.1,16.1,56.1l0.1,0.1l0.2,0.2L60,163.4l19.7,14.9l12,9.1c2.9,2.2,6.9,2.2,9.8,0l12-9.1l19.7-14.9l40.1-30l0.1-0.1
		C190.5,120.3,197.1,97.5,189.4,77.3z" />
	</g>
</svg>
