<svg width="24" height="24" viewBox="0 0 24 24" fill="none" xmlns="http://www.w3.org/2000/svg">
	<path fill-rule="evenodd" clip-rule="evenodd" d="M22.5 12C22.5 17.799 17.799 22.5 12 22.5C6.20101 22.5 1.5 17.799 1.5 12C1.5 6.20101 6.20101 1.5 12 1.5C17.799 1.5 22.5 6.20101 22.5 12ZM15.693 20.2099C14.5662 20.7175 13.3161 21 12 21C9.82731 21 7.83443 20.2301 6.2793 18.9483C7.89708 16.2335 10.4991 14.1752 13.5923 13.2646C14.4807 15.4936 15.187 17.8148 15.693 20.2099ZM17.0615 19.4429C16.5631 17.2013 15.8948 15.0238 15.0708 12.9246C15.7567 12.8097 16.4612 12.75 17.1797 12.75C18.4774 12.75 19.7285 12.9447 20.9059 13.3062C20.5355 15.8537 19.0981 18.0553 17.0615 19.4429ZM20.9971 11.77C19.7819 11.431 18.5014 11.25 17.1797 11.25C16.2583 11.25 15.3575 11.3379 14.4852 11.5057C14.2577 10.9806 14.0203 10.4608 13.7732 9.94648C15.7368 9.0749 17.5515 7.92886 19.1683 6.55718C20.2745 8.01181 20.948 9.81335 20.9971 11.77ZM18.164 5.4421C16.6461 6.72437 14.9428 7.79366 13.1 8.60405C12.1273 6.74389 11.0263 4.9615 9.80879 3.26862C10.5102 3.09316 11.2442 3 12 3C14.3851 3 16.5535 3.92777 18.164 5.4421ZM8.3269 3.78121C5.68481 4.9638 3.71705 7.383 3.15982 10.3026C3.67184 10.3402 4.1891 10.3594 4.71095 10.3594C7.16189 10.3594 9.51379 9.93689 11.6981 9.16062C10.706 7.28035 9.57792 5.48286 8.3269 3.78121ZM3.00229 11.795C3.00077 11.8632 3 11.9315 3 12C3 14.244 3.82128 16.2962 5.17965 17.8724C6.96903 15.037 9.7365 12.879 13.009 11.8734C12.8069 11.4145 12.597 10.9598 12.3795 10.5095C9.98757 11.3828 7.40473 11.8594 4.71095 11.8594C4.1362 11.8594 3.56638 11.8377 3.00229 11.795Z" fill="#E84C88" />
</svg>
