<?xml version="1.0" encoding="utf-8"?>
<!-- Generator: Adobe Illustrator 26.0.0, SVG Export Plug-In . SVG Version: 6.00 Build 0)  -->
<svg version="1.1" id="Layer_1" xmlns="http://www.w3.org/2000/svg" xmlns:xlink="http://www.w3.org/1999/xlink" x="0px" y="0px"
	 viewBox="0 0 24 24" style="enable-background:new 0 0 24 24;" xml:space="preserve">
<style type="text/css">
	.st0{fill-rule:evenodd;clip-rule:evenodd;fill:#181616;}
	.st1{fill:#181616;}
</style>
<g>
	<path class="st0" d="M12,0.3c-6.63,0-12,5.37-12,12c0,5.3,3.44,9.8,8.21,11.39c0.6,0.11,0.82-0.26,0.82-0.58
		c0-0.29-0.01-1.23-0.02-2.23c-3.34,0.73-4.04-1.42-4.04-1.42c-0.55-1.39-1.33-1.76-1.33-1.76c-1.09-0.74,0.08-0.73,0.08-0.73
		c1.2,0.08,1.84,1.24,1.84,1.24c1.07,1.83,2.81,1.3,3.49,1c0.11-0.78,0.42-1.31,0.76-1.6c-2.67-0.3-5.47-1.33-5.47-5.93
		c0-1.31,0.47-2.38,1.24-3.22C5.45,8.15,5.04,6.93,5.7,5.27c0,0,1.01-0.32,3.3,1.23c0.96-0.27,1.98-0.4,3-0.4
		c1.02,0,2.05,0.14,3.01,0.4c2.29-1.55,3.3-1.23,3.3-1.23c0.65,1.65,0.24,2.87,0.12,3.18c0.77,0.84,1.23,1.91,1.23,3.22
		c0,4.61-2.81,5.62-5.48,5.92c0.43,0.37,0.81,1.1,0.81,2.22c0,1.61-0.01,2.9-0.01,3.29c0,0.32,0.22,0.69,0.82,0.58
		C20.57,22.09,24,17.6,24,12.3C24,5.67,18.63,0.3,12,0.3z"/>
	<path class="st1" d="M4.55,17.53c-0.03,0.06-0.12,0.08-0.21,0.04c-0.09-0.04-0.14-0.12-0.11-0.18c0.03-0.06,0.12-0.08,0.21-0.04
		C4.53,17.38,4.58,17.47,4.55,17.53L4.55,17.53z M4.4,17.42"/>
	<path class="st1" d="M5.03,18.07c-0.06,0.05-0.17,0.03-0.25-0.06c-0.08-0.08-0.09-0.2-0.04-0.25c0.06-0.05,0.17-0.03,0.25,0.06
		C5.08,17.9,5.09,18.01,5.03,18.07L5.03,18.07z M4.92,17.94"/>
	<path class="st1" d="M5.5,18.76c-0.07,0.05-0.19,0-0.27-0.1c-0.07-0.11-0.07-0.23,0-0.29c0.07-0.05,0.19-0.01,0.27,0.1
		C5.58,18.58,5.58,18.71,5.5,18.76L5.5,18.76z M5.5,18.76"/>
	<path class="st1" d="M6.15,19.43c-0.07,0.07-0.21,0.05-0.31-0.05c-0.1-0.1-0.13-0.23-0.07-0.31c0.07-0.07,0.21-0.05,0.31,0.05
		C6.19,19.22,6.22,19.35,6.15,19.43L6.15,19.43z M6.15,19.43"/>
	<path class="st1" d="M7.05,19.81c-0.03,0.09-0.16,0.14-0.3,0.1c-0.14-0.04-0.22-0.15-0.2-0.25c0.03-0.09,0.16-0.14,0.3-0.1
		C6.99,19.61,7.07,19.72,7.05,19.81L7.05,19.81z M7.05,19.81"/>
	<path class="st1" d="M8.03,19.89c0,0.1-0.11,0.18-0.25,0.18c-0.14,0-0.26-0.08-0.26-0.17c0-0.1,0.11-0.18,0.26-0.18
		C7.91,19.71,8.03,19.79,8.03,19.89L8.03,19.89z M8.03,19.89"/>
	<path class="st1" d="M8.94,19.73c0.02,0.1-0.08,0.2-0.22,0.22c-0.14,0.03-0.27-0.03-0.29-0.13c-0.02-0.1,0.08-0.2,0.22-0.22
		C8.8,19.57,8.92,19.63,8.94,19.73L8.94,19.73z M8.94,19.73"/>
</g>
</svg>
