<svg width="20" height="20" viewBox="0 0 20 20" fill="none" xmlns="http://www.w3.org/2000/svg">
	<circle cx="10" cy="10" r="8.75" fill="#105DFB" />
	<path fill-rule="evenodd" clip-rule="evenodd" d="M4.29785 13.7247V6.08966H7.8274C8.96109 6.08966 9.88013 7.0087 9.88013 8.1424C9.88013 8.86281 9.65861 9.30906 8.84638 9.76687C9.81834 10.2097 10.0883 10.8235 10.0883 11.6797C10.0883 12.8379 9.05939 13.7247 7.90122 13.7247H4.29785ZM5.7914 7.35351V9.18945H7.53945C7.53945 9.18945 8.38906 9.18945 8.38906 8.27148C8.38906 7.35351 7.53945 7.35351 7.53945 7.35351H5.7914ZM5.7914 12.4316V10.4492H7.6664C7.96914 10.4492 8.6039 10.6055 8.6039 11.543C8.6039 12.2383 7.9789 12.4251 7.6664 12.4316H5.7914Z" fill="white" />
	<path fill-rule="evenodd" clip-rule="evenodd" d="M13.2816 8.19335C12.2074 8.19335 10.6156 8.96484 10.6156 11.0156C10.6156 12.2644 11.2992 13.8672 13.35 13.8672C14.9906 13.8672 15.7458 12.6628 15.9184 12.0605H14.3754C14.2973 12.334 13.9945 12.6367 13.35 12.6367C12.4125 12.6367 12.0805 11.8359 12.0316 11.4355H15.9184V11.0156C15.9184 8.96484 14.3559 8.19335 13.2816 8.19335ZM13.2816 9.36523C12.4066 9.36523 12.0837 10.0879 12.0316 10.4492H14.3754C14.3754 10.0879 14.1566 9.36523 13.2816 9.36523Z" fill="white" />
	<path d="M11.4164 6.52343V7.4707H15.098V6.52343H11.4164Z" fill="white" />
</svg>
