<svg width="19" height="19" viewBox="0 0 19 19" fill="none" xmlns="http://www.w3.org/2000/svg">
  <path d="M3.95833 7.91675C3.0875 7.91675 2.375 8.62925 2.375 9.50008C2.375 10.3709 3.0875 11.0834 3.95833 11.0834C4.82917 11.0834 5.54167 10.3709 5.54167 9.50008C5.54167 8.62925 4.82917 7.91675 3.95833 7.91675Z" fill="#8492A7" />
  <path d="M15.0413 7.91675C14.1705 7.91675 13.458 8.62925 13.458 9.50008C13.458 10.3709 14.1705 11.0834 15.0413 11.0834C15.9122 11.0834 16.6247 10.3709 16.6247 9.50008C16.6247 8.62925 15.9122 7.91675 15.0413 7.91675Z" fill="#8492A7" />
  <path d="M9.50033 7.91675C8.62949 7.91675 7.91699 8.62925 7.91699 9.50008C7.91699 10.3709 8.62949 11.0834 9.50033 11.0834C10.3712 11.0834 11.0837 10.3709 11.0837 9.50008C11.0837 8.62925 10.3712 7.91675 9.50033 7.91675Z" fill="#8492A7" />
</svg>
