<svg width="111" height="47" viewBox="0 0 111 47" fill="none" xmlns="http://www.w3.org/2000/svg">
<g opacity="0.6">
<circle cx="67.2315" cy="11.8374" r="1.37209" fill="white"/>
<circle cx="67.2315" cy="28.3023" r="1.37209" fill="white"/>
<circle cx="67.2315" cy="44.7676" r="1.37209" fill="white"/>
<circle cx="83.6963" cy="11.8374" r="1.37209" fill="white"/>
<circle cx="83.6963" cy="28.3023" r="1.37209" fill="white"/>
<circle cx="83.6963" cy="44.7676" r="1.37209" fill="white"/>
<circle cx="100.161" cy="11.8374" r="1.37209" fill="white"/>
<circle cx="100.161" cy="28.3023" r="1.37209" fill="white"/>
<circle cx="100.161" cy="44.7676" r="1.37209" fill="white"/>
</g>
<g opacity="0.6">
<circle cx="1.37209" cy="11.8374" r="1.37209" fill="white"/>
<circle cx="1.37209" cy="28.3023" r="1.37209" fill="white"/>
<circle cx="1.37209" cy="44.7676" r="1.37209" fill="white"/>
<circle cx="17.8369" cy="11.8374" r="1.37209" fill="white"/>
<circle cx="17.8369" cy="28.3023" r="1.37209" fill="white"/>
<circle cx="17.8369" cy="44.7676" r="1.37209" fill="white"/>
<circle cx="34.3018" cy="11.8374" r="1.37209" fill="white"/>
<circle cx="34.3018" cy="28.3023" r="1.37209" fill="white"/>
<circle cx="34.3018" cy="44.7676" r="1.37209" fill="white"/>
<circle cx="50.7705" cy="11.8374" r="1.37209" fill="white"/>
<circle cx="50.7705" cy="28.3023" r="1.37209" fill="white"/>
<circle cx="50.7705" cy="44.7676" r="1.37209" fill="white"/>
</g>
</svg>
