<svg width="98" height="53" viewBox="0 0 98 53" fill="none" xmlns="http://www.w3.org/2000/svg">
<g opacity="0.6">
<circle cx="46.2315" cy="1.37209" r="1.37209" fill="white"/>
<circle cx="46.2315" cy="17.8374" r="1.37209" fill="white"/>
<circle cx="46.2315" cy="34.3023" r="1.37209" fill="white"/>
<circle cx="46.2315" cy="50.7676" r="1.37209" fill="white"/>
<circle cx="62.6963" cy="1.37209" r="1.37209" fill="white"/>
<circle cx="62.6963" cy="17.8374" r="1.37209" fill="white"/>
<circle cx="62.6963" cy="34.3023" r="1.37209" fill="white"/>
<circle cx="62.6963" cy="50.7676" r="1.37209" fill="white"/>
<circle cx="79.1612" cy="1.37209" r="1.37209" fill="white"/>
<circle cx="79.1612" cy="17.8374" r="1.37209" fill="white"/>
<circle cx="79.1612" cy="34.3023" r="1.37209" fill="white"/>
<circle cx="79.1612" cy="50.7676" r="1.37209" fill="white"/>
<circle cx="95.6299" cy="1.37209" r="1.37209" fill="white"/>
<circle cx="95.6299" cy="17.8374" r="1.37209" fill="white"/>
<circle cx="95.6299" cy="34.3023" r="1.37209" fill="white"/>
<circle cx="95.6299" cy="50.7676" r="1.37209" fill="white"/>
</g>
<g opacity="0.6">
<circle cx="13.3018" cy="1.37209" r="1.37209" fill="white"/>
<circle cx="13.3018" cy="17.8374" r="1.37209" fill="white"/>
<circle cx="13.3018" cy="34.3023" r="1.37209" fill="white"/>
<circle cx="13.3018" cy="50.7676" r="1.37209" fill="white"/>
<circle cx="29.7705" cy="1.37209" r="1.37209" fill="white"/>
<circle cx="29.7705" cy="17.8374" r="1.37209" fill="white"/>
<circle cx="29.7705" cy="34.3023" r="1.37209" fill="white"/>
<circle cx="29.7705" cy="50.7676" r="1.37209" fill="white"/>
</g>
</svg>
