<svg width="35" height="34" viewBox="0 0 35 34" fill="none" xmlns="http://www.w3.org/2000/svg">
<path d="M11.834 2.83337V7.08337" stroke="#B7BBC6" stroke-width="1.5" stroke-miterlimit="10" stroke-linecap="round" stroke-linejoin="round"/>
<path d="M23.166 2.83337V7.08337" stroke="#B7BBC6" stroke-width="1.5" stroke-miterlimit="10" stroke-linecap="round" stroke-linejoin="round"/>
<path d="M30.25 12.0417V19.3092C28.9892 18.3034 27.3883 17.7084 25.6458 17.7084C23.9033 17.7084 22.2742 18.3175 20.9992 19.3517C19.285 20.6975 18.2083 22.8084 18.2083 25.1459C18.2083 26.5342 18.605 27.8659 19.285 28.9709C19.8092 29.8351 20.4892 30.5859 21.2967 31.1667H11.8333C6.875 31.1667 4.75 28.3334 4.75 24.0834V12.0417C4.75 7.79171 6.875 4.95837 11.8333 4.95837H23.1667C28.125 4.95837 30.25 7.79171 30.25 12.0417Z" stroke="#B7BBC6" stroke-width="1.5" stroke-miterlimit="10" stroke-linecap="round" stroke-linejoin="round"/>
<path d="M10.416 15.5834H18.916" stroke="#B7BBC6" stroke-width="1.5" stroke-miterlimit="10" stroke-linecap="round" stroke-linejoin="round"/>
<path d="M10.416 22.6666H14.1277" stroke="#B7BBC6" stroke-width="1.5" stroke-miterlimit="10" stroke-linecap="round" stroke-linejoin="round"/>
<path d="M33.084 25.1459C33.084 26.5342 32.6873 27.8659 32.0073 28.9709C31.6106 29.6509 31.1148 30.2459 30.534 30.7275C29.2307 31.8892 27.5307 32.5834 25.6465 32.5834C24.0173 32.5834 22.5156 32.0592 21.2973 31.1667C20.4898 30.5859 19.8098 29.8351 19.2857 28.9709C18.6057 27.8659 18.209 26.5342 18.209 25.1459C18.209 22.8084 19.2857 20.6975 20.9998 19.3517C22.2748 18.3175 23.904 17.7084 25.6465 17.7084C27.389 17.7084 28.9898 18.3034 30.2507 19.3092C31.979 20.6692 33.084 22.78 33.084 25.1459Z" stroke="#B7BBC6" stroke-width="1.5" stroke-miterlimit="10" stroke-linecap="round" stroke-linejoin="round"/>
<path d="M25.6452 28.6875C25.6452 26.7325 27.2318 25.1458 29.1868 25.1458C27.2318 25.1458 25.6452 23.5591 25.6452 21.6041C25.6452 23.5591 24.0585 25.1458 22.1035 25.1458C24.0585 25.1458 25.6452 26.7325 25.6452 28.6875Z" stroke="#B7BBC6" stroke-width="1.5" stroke-linecap="round" stroke-linejoin="round"/>
</svg>
