<svg width="22" height="22" viewBox="0 0 22 22" fill="none" xmlns="http://www.w3.org/2000/svg">
<path d="M9.62565 18.2417V3.75837C9.62565 2.38337 9.03898 1.83337 7.58148 1.83337H3.87815C2.42065 1.83337 1.83398 2.38337 1.83398 3.75837V18.2417C1.83398 19.6167 2.42065 20.1667 3.87815 20.1667H7.58148C9.03898 20.1667 9.62565 19.6167 9.62565 18.2417Z" stroke="#000" stroke-width="1.5" stroke-linecap="round" stroke-linejoin="round"/>
<path d="M20.1667 7.81004V3.64837C20.1667 2.35587 19.58 1.83337 18.1225 1.83337H14.4192C12.9617 1.83337 12.375 2.35587 12.375 3.64837V7.80087C12.375 9.10254 12.9617 9.61587 14.4192 9.61587H18.1225C19.58 9.62504 20.1667 9.10254 20.1667 7.81004Z" stroke="#000" stroke-width="1.5" stroke-linecap="round" stroke-linejoin="round"/>
<path d="M20.1667 18.1225V14.4192C20.1667 12.9617 19.58 12.375 18.1225 12.375H14.4192C12.9617 12.375 12.375 12.9617 12.375 14.4192V18.1225C12.375 19.58 12.9617 20.1667 14.4192 20.1667H18.1225C19.58 20.1667 20.1667 19.58 20.1667 18.1225Z" stroke="#000" stroke-width="1.5" stroke-linecap="round" stroke-linejoin="round"/>
</svg>
