<svg width="34" height="34" viewBox="0 0 34 34" fill="none" xmlns="http://www.w3.org/2000/svg">
<path d="M26.4496 26.4492L29.5946 24.8767V20.9384M20.1454 13.855L17.0004 15.4275L20.1454 13.855ZM17.0004 15.4275L13.8554 13.855L17.0004 15.4275ZM17.0004 15.4275V19.3659V15.4275ZM29.5946 9.12338L26.4496 10.6959L29.5946 9.12338ZM29.5946 9.12338L26.4496 7.55088L29.5946 9.12338ZM29.5946 9.12338V13.0617V9.12338ZM20.1454 4.40588L17.0004 2.83337L13.8554 4.40588H20.1454ZM4.40625 9.12338L7.55125 7.55088L4.40625 9.12338ZM4.40625 9.12338L7.55125 10.6959L4.40625 9.12338ZM4.40625 9.12338V13.0617V9.12338ZM17.0004 31.1667L13.8554 29.5942L17.0004 31.1667ZM17.0004 31.1667L20.1454 29.5942L17.0004 31.1667ZM17.0004 31.1667V27.2284V31.1667ZM7.55125 26.4492L4.40625 24.8767V20.9384L7.55125 26.4492Z" stroke="#00CC99" stroke-width="1.5" stroke-linecap="round" stroke-linejoin="round"/>
</svg>
