<svg width="42" height="42" viewBox="0 0 42 42" fill="none" xmlns="http://www.w3.org/2000/svg">
<rect x="0.425781" y="0.309418" width="41.148" height="41.148" rx="20.574" fill="#00CC99"/>
<path d="M23.7295 10.8834H18.2695V15.2434H23.7295V10.8834Z" fill="white"/>
<path d="M25.2266 10.8834V15.2434H30.8666C30.3566 12.4934 28.3266 10.8934 25.2266 10.8834Z" fill="white"/>
<path d="M11 16.7434V25.0734C11 28.7134 13.17 30.8834 16.81 30.8834H25.19C28.83 30.8834 31 28.7134 31 25.0734V16.7434H11ZM23.44 25.0634L21.36 26.2634C20.92 26.5134 20.49 26.6434 20.09 26.6434C19.79 26.6434 19.52 26.5734 19.27 26.4334C18.69 26.1034 18.37 25.4234 18.37 24.5434V22.1434C18.37 21.2634 18.69 20.5834 19.27 20.2534C19.85 19.9134 20.59 19.9734 21.36 20.4234L23.44 21.6234C24.21 22.0634 24.63 22.6834 24.63 23.3534C24.63 24.0234 24.2 24.6134 23.44 25.0634Z" fill="white"/>
<path d="M16.7689 10.8834C13.6689 10.8934 11.6389 12.4934 11.1289 15.2434H16.7689V10.8834Z" fill="white"/>
</svg>
