<svg width="42" height="42" viewBox="0 0 42 42" fill="none" xmlns="http://www.w3.org/2000/svg">
<rect x="0.425781" y="0.538116" width="41.148" height="41.148" rx="20.574" fill="#00CC99"/>
<path d="M11.5788 28.1221L11.5588 28.1421C11.2888 27.5521 11.1188 26.8821 11.0488 26.1421C11.1188 26.8721 11.3088 27.5321 11.5788 28.1221Z" fill="white"/>
<path d="M17.9991 19.4921C19.3136 19.4921 20.3791 18.4265 20.3791 17.1121C20.3791 15.7977 19.3136 14.7321 17.9991 14.7321C16.6847 14.7321 15.6191 15.7977 15.6191 17.1121C15.6191 18.4265 16.6847 19.4921 17.9991 19.4921Z" fill="white"/>
<path d="M25.19 11.1121H16.81C13.17 11.1121 11 13.2821 11 16.9221V25.3021C11 26.3921 11.19 27.3421 11.56 28.1421C12.42 30.0421 14.26 31.1121 16.81 31.1121H25.19C28.83 31.1121 31 28.9421 31 25.3021V23.0121V16.9221C31 13.2821 28.83 11.1121 25.19 11.1121ZM29.37 21.6121C28.59 20.9421 27.33 20.9421 26.55 21.6121L22.39 25.1821C21.61 25.8521 20.35 25.8521 19.57 25.1821L19.23 24.9021C18.52 24.2821 17.39 24.2221 16.59 24.7621L12.85 27.2721C12.63 26.7121 12.5 26.0621 12.5 25.3021V16.9221C12.5 14.1021 13.99 12.6121 16.81 12.6121H25.19C28.01 12.6121 29.5 14.1021 29.5 16.9221V21.7221L29.37 21.6121Z" fill="white"/>
</svg>
