<svg width="44" height="44" viewBox="0 0 44 44" fill="none" xmlns="http://www.w3.org/2000/svg">
<path d="M20.0039 16H24.0039C26.0039 16 26.0039 15 26.0039 14C26.0039 12 25.0039 12 24.0039 12H20.0039C19.0039 12 18.0039 12 18.0039 14C18.0039 16 19.0039 16 20.0039 16Z" stroke="#8492A7" stroke-width="1.5" stroke-miterlimit="10" stroke-linecap="round" stroke-linejoin="round"/>
<path d="M26 14.02C29.33 14.2 31 15.43 31 20V26C31 30 30 32 25 32H19C14 32 13 30 13 26V20C13 15.44 14.67 14.2 18 14.02" stroke="#8492A7" stroke-width="1.5" stroke-miterlimit="10" stroke-linecap="round" stroke-linejoin="round"/>
<rect x="0.5" y="0.5" width="43" height="43" rx="21.5" stroke="#8492A7" stroke-opacity="0.2"/>
</svg>
