<svg width="44" height="44" viewBox="0 0 44 44" fill="none" xmlns="http://www.w3.org/2000/svg">
<path d="M32.0039 25V19C32.0039 14 30.0039 12 25.0039 12H19.0039C14.0039 12 12.0039 14 12.0039 19V25C12.0039 30 14.0039 32 19.0039 32H25.0039C30.0039 32 32.0039 30 32.0039 25Z" stroke="#8492A7" stroke-width="1.5" stroke-linecap="round" stroke-linejoin="round"/>
<path d="M12.5234 17.1101H31.4834" stroke="#8492A7" stroke-width="1.5" stroke-linecap="round" stroke-linejoin="round"/>
<path d="M18.5234 12.11V16.97" stroke="#8492A7" stroke-width="1.5" stroke-linecap="round" stroke-linejoin="round"/>
<path d="M25.4766 12.11V16.52" stroke="#8492A7" stroke-width="1.5" stroke-linecap="round" stroke-linejoin="round"/>
<path d="M19.75 24.4499V23.2499C19.75 21.7099 20.84 21.0799 22.17 21.8499L23.21 22.4499L24.25 23.0499C25.58 23.8199 25.58 25.0799 24.25 25.8499L23.21 26.4499L22.17 27.0499C20.84 27.8199 19.75 27.1899 19.75 25.6499V24.4499V24.4499Z" stroke="#8492A7" stroke-width="1.5" stroke-miterlimit="10" stroke-linecap="round" stroke-linejoin="round"/>
<rect x="0.5" y="0.5" width="43" height="43" rx="21.5" stroke="#8492A7" stroke-opacity="0.2"/>
</svg>
