<svg width="44" height="44" viewBox="0 0 44 44" fill="none" xmlns="http://www.w3.org/2000/svg">
<path d="M19.0039 32H25.0039C30.0039 32 32.0039 30 32.0039 25V19C32.0039 14 30.0039 12 25.0039 12H19.0039C14.0039 12 12.0039 14 12.0039 19V25C12.0039 30 14.0039 32 19.0039 32Z" stroke="#8492A7" stroke-width="1.5" stroke-linecap="round" stroke-linejoin="round"/>
<path d="M18.9961 20C20.1007 20 20.9961 19.1046 20.9961 18C20.9961 16.8954 20.1007 16 18.9961 16C17.8915 16 16.9961 16.8954 16.9961 18C16.9961 19.1046 17.8915 20 18.9961 20Z" stroke="#8492A7" stroke-width="1.5" stroke-linecap="round" stroke-linejoin="round"/>
<path d="M12.6699 28.9501L17.5999 25.6401C18.3899 25.1101 19.5299 25.1701 20.2399 25.7801L20.5699 26.0701C21.3499 26.7401 22.6099 26.7401 23.3899 26.0701L27.5499 22.5001C28.3299 21.8301 29.5899 21.8301 30.3699 22.5001L31.9999 23.9001" stroke="#8492A7" stroke-width="1.5" stroke-linecap="round" stroke-linejoin="round"/>
<rect x="0.5" y="0.5" width="43" height="43" rx="21.5" stroke="#8492A7" stroke-opacity="0.2"/>
</svg>
