<svg width="14" height="14" viewBox="0 0 14 14" fill="none" xmlns="http://www.w3.org/2000/svg">
	<path d="M12.25 12.8333H1.75C1.51083 12.8333 1.3125 12.6349 1.3125 12.3958C1.3125 12.1566 1.51083 11.9583 1.75 11.9583H12.25C12.4892 11.9583 12.6875 12.1566 12.6875 12.3958C12.6875 12.6349 12.4892 12.8333 12.25 12.8333Z" fill="#B6BEC7" />
	<path d="M11.0948 2.02989C9.96317 0.898222 8.85484 0.869055 7.69401 2.02989L6.98817 2.73572C6.92984 2.79406 6.90651 2.88739 6.92984 2.96906C7.37317 4.51489 8.60984 5.75156 10.1557 6.19489C10.179 6.20072 10.2023 6.20656 10.2257 6.20656C10.2898 6.20656 10.3482 6.18322 10.3948 6.13656L11.0948 5.43072C11.6723 4.85906 11.9523 4.30489 11.9523 3.74489C11.9582 3.16739 11.6782 2.60739 11.0948 2.02989Z" fill="#B6BEC7" />
	<path d="M9.10586 6.72572C8.93669 6.64405 8.77336 6.56239 8.61586 6.46905C8.48752 6.39322 8.36502 6.31155 8.24252 6.22405C8.14336 6.15989 8.02669 6.06655 7.91586 5.97322C7.90419 5.96739 7.86336 5.93239 7.81669 5.88572C7.62419 5.72239 7.40836 5.51239 7.21586 5.27905C7.19836 5.26739 7.16919 5.22655 7.12836 5.17405C7.07002 5.10405 6.97086 4.98739 6.88336 4.85322C6.81336 4.76572 6.73169 4.63739 6.65586 4.50905C6.56252 4.35155 6.48086 4.19405 6.39919 4.03072C6.29211 3.80127 5.99097 3.73311 5.81192 3.91215L2.53169 7.19239C2.45586 7.26822 2.38586 7.41405 2.36836 7.51322L2.05336 9.74739C1.99502 10.1441 2.10586 10.5174 2.35086 10.7682C2.56086 10.9724 2.85252 11.0832 3.16752 11.0832C3.23752 11.0832 3.30752 11.0774 3.37752 11.0657L5.61752 10.7507C5.72252 10.7332 5.86836 10.6632 5.93836 10.5874L9.224 7.30174C9.39947 7.12628 9.33354 6.82438 9.10586 6.72572Z" fill="#B6BEC7" />
</svg>
