<svg width="20" height="20" viewBox="0 0 20 20" fill="none" xmlns="http://www.w3.org/2000/svg">
<path d="M17.6237 5.14183C17.282 4.9585 16.5654 4.76683 15.5904 5.45016L14.3654 6.31683C14.2737 3.72516 13.1487 2.7085 10.4154 2.7085H5.41536C2.56536 2.7085 1.45703 3.81683 1.45703 6.66683V13.3335C1.45703 15.2502 2.4987 17.2918 5.41536 17.2918H10.4154C13.1487 17.2918 14.2737 16.2752 14.3654 13.6835L15.5904 14.5502C16.107 14.9168 16.557 15.0335 16.9154 15.0335C17.2237 15.0335 17.4654 14.9418 17.6237 14.8585C17.9654 14.6835 18.5404 14.2085 18.5404 13.0168V6.9835C18.5404 5.79183 17.9654 5.31683 17.6237 5.14183ZM9.16536 9.4835C8.30703 9.4835 7.5987 8.7835 7.5987 7.91683C7.5987 7.05016 8.30703 6.35016 9.16536 6.35016C10.0237 6.35016 10.732 7.05016 10.732 7.91683C10.732 8.7835 10.0237 9.4835 9.16536 9.4835Z" fill="#7A73FF"/>
</svg>
