<svg width="20" height="20" viewBox="0 0 20 20" fill="none" xmlns="http://www.w3.org/2000/svg">
<path d="M13.1677 1.84158C12.826 1.49991 12.2344 1.73325 12.2344 2.20825V5.11658C12.2344 6.33325 13.2677 7.34158 14.526 7.34158C15.3177 7.34991 16.4177 7.34991 17.3594 7.34991C17.8344 7.34991 18.0844 6.79158 17.751 6.45825C16.551 5.24991 14.401 3.07491 13.1677 1.84158Z" fill="#7A73FF"/>
<path d="M17.082 8.4915H14.6737C12.6987 8.4915 11.0904 6.88317 11.0904 4.90817V2.49984C11.0904 2.0415 10.7154 1.6665 10.257 1.6665H6.7237C4.15703 1.6665 2.08203 3.33317 2.08203 6.30817V13.6915C2.08203 16.6665 4.15703 18.3332 6.7237 18.3332H13.2737C15.8404 18.3332 17.9154 16.6665 17.9154 13.6915V9.32484C17.9154 8.8665 17.5404 8.4915 17.082 8.4915ZM9.58203 14.7915H6.2487C5.90703 14.7915 5.6237 14.5082 5.6237 14.1665C5.6237 13.8248 5.90703 13.5415 6.2487 13.5415H9.58203C9.9237 13.5415 10.207 13.8248 10.207 14.1665C10.207 14.5082 9.9237 14.7915 9.58203 14.7915ZM11.2487 11.4582H6.2487C5.90703 11.4582 5.6237 11.1748 5.6237 10.8332C5.6237 10.4915 5.90703 10.2082 6.2487 10.2082H11.2487C11.5904 10.2082 11.8737 10.4915 11.8737 10.8332C11.8737 11.1748 11.5904 11.4582 11.2487 11.4582Z" fill="#7A73FF"/>
</svg>
