<svg width="20" height="20" viewBox="0 0 20 20" fill="none" xmlns="http://www.w3.org/2000/svg">
<path d="M10 18.275C5.8 18.275 2.375 14.8583 2.375 10.65V9.08333C2.375 8.75833 2.64167 8.5 2.95833 8.5C3.275 8.5 3.54167 8.76667 3.54167 9.08333V10.65C3.54167 14.2083 6.43333 17.1 9.99167 17.1C13.55 17.1 16.4417 14.2083 16.4417 10.65V9.08333C16.4417 8.75833 16.7083 8.5 17.025 8.5C17.3417 8.5 17.6083 8.76667 17.6083 9.08333V10.65C17.625 14.8583 14.2 18.275 10 18.275Z" fill="#7A73FF"/>
<path d="M10.0013 1.6665C7.2013 1.6665 4.91797 3.94984 4.91797 6.74984V10.6582C4.91797 13.4582 7.2013 15.7415 10.0013 15.7415C12.8013 15.7415 15.0846 13.4582 15.0846 10.6582V6.74984C15.0846 3.94984 12.8013 1.6665 10.0013 1.6665ZM11.818 8.82484C11.7596 9.04984 11.5513 9.19984 11.3263 9.19984C11.2846 9.19984 11.2346 9.1915 11.193 9.18317C10.343 8.94984 9.44297 8.94984 8.59297 9.18317C8.31797 9.25817 8.04297 9.09984 7.96797 8.82484C7.89297 8.55817 8.0513 8.27484 8.3263 8.19984C9.3513 7.9165 10.4346 7.9165 11.4596 8.19984C11.7346 8.27484 11.893 8.54984 11.818 8.82484ZM12.5263 6.5165C12.4513 6.72484 12.2596 6.84984 12.0513 6.84984C11.993 6.84984 11.9346 6.8415 11.8763 6.8165C10.6013 6.34984 9.2013 6.34984 7.9263 6.8165C7.65964 6.9165 7.36797 6.78317 7.26797 6.5165C7.1763 6.25817 7.30964 5.9665 7.5763 5.8665C9.0763 5.32484 10.7263 5.32484 12.218 5.8665C12.4846 5.9665 12.618 6.25817 12.5263 6.5165Z" fill="#7A73FF"/>
</svg>
