<svg width="27" height="21" viewBox="0 0 27 21" fill="none" xmlns="http://www.w3.org/2000/svg">
<path d="M0 20.5026V14.6365C0 12.9495 0.316309 11.1954 0.948927 9.37425C1.60072 7.53391 2.48255 5.799 3.59442 4.16953C4.72547 2.52089 5.9907 1.13105 7.39013 0L12.221 3.13433C11.09 4.84049 10.1411 6.62332 9.37425 8.48284C8.62661 10.3232 8.26237 12.3552 8.28154 14.579V20.5026H0ZM14.579 20.5026V14.6365C14.579 12.9495 14.8953 11.1954 15.5279 9.37425C16.1797 7.53391 17.0615 5.799 18.1734 4.16953C19.3044 2.52089 20.5697 1.13105 21.9691 0L26.8 3.13433C25.669 4.84049 24.72 6.62332 23.9532 8.48284C23.2056 10.3232 22.8413 12.3552 22.8605 14.579V20.5026H14.579Z" fill="#D4DCE6"/>
</svg>
