<?xml version="1.0" encoding="utf-8"?>
<!-- Generator: Adobe Illustrator 26.0.0, SVG Export Plug-In . SVG Version: 6.00 Build 0)  -->
<svg version="1.1" id="Layer_1" xmlns="http://www.w3.org/2000/svg" xmlns:xlink="http://www.w3.org/1999/xlink" x="0px" y="0px"
	 viewBox="0 0 66 66" style="enable-background:new 0 0 66 66;" xml:space="preserve">
<style type="text/css">
	.st0{clip-path:url(#SVGID_00000021828620265397559670000000736899713222613133_);}
	.st1{fill:#FBBC05;}
</style>
<g>
	<defs>
		<path id="SVGID_1_" d="M37.8,9.7l4.8,9.7c0.7,1.3,2.4,2.6,3.9,2.9l8.8,1.5c5.6,0.9,6.9,5,2.9,9l-6.8,6.8c-1.2,1.2-1.8,3.4-1.4,5
			l2,8.4c1.5,6.7-2,9.3-7.9,5.8l-8.2-4.9c-1.5-0.9-3.9-0.9-5.4,0l-8.2,4.9c-5.9,3.5-9.5,0.9-7.9-5.8l2-8.4c0.4-1.6-0.3-3.8-1.4-5
			l-6.8-6.8c-4-4-2.7-8.1,2.9-9l8.8-1.5c1.5-0.2,3.2-1.5,3.9-2.9l4.8-9.7C30.9,4.4,35.1,4.4,37.8,9.7z"/>
	</defs>
	<clipPath id="SVGID_00000069361095963661864250000000847055235255894403_">
		<use xlink:href="#SVGID_1_"  style="overflow:visible;"/>
	</clipPath>
	<g style="clip-path:url(#SVGID_00000069361095963661864250000000847055235255894403_);">
		<rect x="0" y="0" class="st1" width="66" height="66"/>
	</g>
</g>
</svg>
