<svg width="66" height="66" viewBox="0 0 66 66" fill="none" xmlns="http://www.w3.org/2000/svg">
<path d="M37.7575 9.65251L42.5975 19.3325C43.2575 20.68 45.0175 21.9725 46.5025 22.22L55.275 23.6775C60.885 24.6125 62.205 28.6825 58.1625 32.6975L51.3425 39.5175C50.1875 40.6725 49.555 42.9 49.9125 44.495L51.865 52.9375C53.405 59.62 49.8575 62.205 43.945 58.7125L35.7225 53.845C34.2375 52.965 31.79 52.965 30.2775 53.845L22.055 58.7125C16.17 62.205 12.595 59.5925 14.135 52.9375L16.0875 44.495C16.445 42.9 15.8125 40.6725 14.6575 39.5175L7.83749 32.6975C3.82249 28.6825 5.11499 24.6125 10.725 23.6775L19.4975 22.22C20.955 21.9725 22.715 20.68 23.375 19.3325L28.215 9.65251C30.855 4.40001 35.145 4.40001 37.7575 9.65251Z" fill="#FBBC05"/>
</svg>
