<svg width="16" height="16" viewBox="0 0 16 16" fill="none" xmlns="http://www.w3.org/2000/svg">
<path d="M8 10C9.10457 10 10 9.10457 10 8C10 6.89543 9.10457 6 8 6C6.89543 6 6 6.89543 6 8C6 9.10457 6.89543 10 8 10Z" stroke="#8492A7" stroke-width="1.1" stroke-miterlimit="10" stroke-linecap="round" stroke-linejoin="round"/>
<path d="M1.33398 8.5863V7.41297C1.33398 6.71963 1.90065 6.1463 2.60065 6.1463C3.80732 6.1463 4.30065 5.29297 3.69398 4.2463C3.34732 3.6463 3.55398 2.8663 4.16065 2.51963L5.31398 1.85963C5.84065 1.5463 6.52065 1.73297 6.83398 2.25963L6.90732 2.3863C7.50732 3.43297 8.49398 3.43297 9.10065 2.3863L9.17398 2.25963C9.48732 1.73297 10.1673 1.5463 10.694 1.85963L11.8473 2.51963C12.454 2.8663 12.6607 3.6463 12.314 4.2463C11.7073 5.29297 12.2007 6.1463 13.4073 6.1463C14.1007 6.1463 14.674 6.71297 14.674 7.41297V8.5863C14.674 9.27963 14.1073 9.85297 13.4073 9.85297C12.2007 9.85297 11.7073 10.7063 12.314 11.753C12.6607 12.3596 12.454 13.133 11.8473 13.4796L10.694 14.1396C10.1673 14.453 9.48732 14.2663 9.17398 13.7396L9.10065 13.613C8.50065 12.5663 7.51398 12.5663 6.90732 13.613L6.83398 13.7396C6.52065 14.2663 5.84065 14.453 5.31398 14.1396L4.16065 13.4796C3.55398 13.133 3.34732 12.353 3.69398 11.753C4.30065 10.7063 3.80732 9.85297 2.60065 9.85297C1.90065 9.85297 1.33398 9.27963 1.33398 8.5863Z" stroke="#8492A7" stroke-width="1.1" stroke-miterlimit="10" stroke-linecap="round" stroke-linejoin="round"/>
</svg>
