<svg width="20" height="21" viewBox="0 0 20 21" fill="none" xmlns="http://www.w3.org/2000/svg">
<path d="M14.1328 5.64258C15.7995 6.80091 16.9495 8.64258 17.1828 10.7676" stroke="#536780" stroke-width="1.5" stroke-linecap="round" stroke-linejoin="round"/>
<path d="M2.91016 10.8086C3.12682 8.69193 4.26016 6.85026 5.91016 5.68359" stroke="#536780" stroke-width="1.5" stroke-linecap="round" stroke-linejoin="round"/>
<path d="M6.82422 17.9492C7.79089 18.4409 8.89089 18.7159 10.0492 18.7159C11.1659 18.7159 12.2159 18.4659 13.1576 18.0076" stroke="#536780" stroke-width="1.5" stroke-linecap="round" stroke-linejoin="round"/>
<path d="M10.051 6.91654C11.3305 6.91654 12.3677 5.87933 12.3677 4.59987C12.3677 3.32041 11.3305 2.2832 10.051 2.2832C8.77158 2.2832 7.73438 3.32041 7.73438 4.59987C7.73438 5.87933 8.77158 6.91654 10.051 6.91654Z" stroke="#536780" stroke-width="1.5" stroke-linecap="round" stroke-linejoin="round"/>
<path d="M4.0237 17.1001C5.30316 17.1001 6.34036 16.0629 6.34036 14.7835C6.34036 13.504 5.30316 12.4668 4.0237 12.4668C2.74424 12.4668 1.70703 13.504 1.70703 14.7835C1.70703 16.0629 2.74424 17.1001 4.0237 17.1001Z" stroke="#536780" stroke-width="1.5" stroke-linecap="round" stroke-linejoin="round"/>
<path d="M15.9768 17.1001C17.2563 17.1001 18.2935 16.0629 18.2935 14.7835C18.2935 13.504 17.2563 12.4668 15.9768 12.4668C14.6974 12.4668 13.6602 13.504 13.6602 14.7835C13.6602 16.0629 14.6974 17.1001 15.9768 17.1001Z" stroke="#536780" stroke-width="1.5" stroke-linecap="round" stroke-linejoin="round"/>
</svg>
