<svg width="14" height="14" viewBox="0 0 14 14" fill="none" xmlns="http://www.w3.org/2000/svg">
<path opacity="0.4" d="M7.65079 1.07576L9.13511 4.05861C9.24446 4.27472 9.45317 4.4248 9.69389 4.45815L13.0279 4.94373C13.2226 4.97108 13.3994 5.0738 13.5187 5.23054C13.6367 5.38529 13.6874 5.58139 13.6587 5.77415C13.6354 5.93423 13.5601 6.08231 13.4447 6.1957L11.0288 8.53756C10.8521 8.70097 10.7721 8.9431 10.8148 9.17988L11.4096 12.4722C11.4729 12.8698 11.2096 13.2446 10.8148 13.32C10.6521 13.346 10.4854 13.3187 10.3387 13.2439L7.36473 11.6945C7.14401 11.5831 6.88329 11.5831 6.66257 11.6945L3.6886 13.2439C3.32319 13.438 2.87043 13.306 2.66705 12.9458C2.5917 12.8024 2.56503 12.639 2.5897 12.4796L3.18449 9.18655C3.22717 8.95043 3.14649 8.70697 2.97045 8.54356L0.554596 6.20304C0.267201 5.92556 0.258533 5.46866 0.535259 5.18118C0.54126 5.17518 0.547928 5.16851 0.554596 5.16184C0.669288 5.04511 0.819987 4.97108 0.982688 4.95173L4.31674 4.46549C4.55679 4.43147 4.7655 4.28273 4.87552 4.06528L6.3065 1.07576C6.43386 0.819633 6.69792 0.660218 6.98464 0.666888H7.074C7.32272 0.696904 7.53943 0.850982 7.65079 1.07576Z" fill="#8492A7"/>
<path d="M6.99459 11.6114C6.86546 11.6154 6.73965 11.6501 6.6265 11.7122L3.66707 13.2581C3.30496 13.4309 2.87163 13.2968 2.66861 12.9505C2.59339 12.8091 2.5661 12.6469 2.59139 12.4881L3.18248 9.20212C3.22242 8.96326 3.14254 8.72039 2.96881 8.55226L0.551877 6.21234C0.264987 5.93144 0.259661 5.4704 0.540561 5.18283C0.544555 5.17882 0.547883 5.17549 0.551877 5.17215C0.666367 5.05872 0.814138 4.984 0.973226 4.96064L4.31007 4.46958C4.5517 4.43888 4.76138 4.28809 4.86788 4.06925L6.31831 1.0421C6.45609 0.797899 6.72035 0.652446 6.99992 0.667792C6.99459 0.865955 6.99459 11.4767 6.99459 11.6114Z" fill="#FBBC05"/>
</svg>
