<svg width="20" height="20" viewBox="0 0 18 18" fill="none" xmlns="http://www.w3.org/2000/svg">
<path d="M10.4417 1.92495L11.9084 4.85828C12.1084 5.26662 12.6417 5.65828 13.0917 5.73328L15.75 6.17495C17.45 6.45828 17.85 7.69162 16.625 8.90828L14.5584 10.9749C14.2084 11.3249 14.0167 11.9999 14.125 12.4833L14.7167 15.0416C15.1834 17.0666 14.1084 17.8499 12.3167 16.7916L9.82505 15.3166C9.37505 15.0499 8.63338 15.0499 8.17505 15.3166L5.68338 16.7916C3.90005 17.8499 2.81671 17.0583 3.28338 15.0416L3.87505 12.4833C3.98338 11.9999 3.79171 11.3249 3.44171 10.9749L1.37505 8.90828C0.15838 7.69162 0.550046 6.45828 2.25005 6.17495L4.90838 5.73328C5.35005 5.65828 5.88338 5.26662 6.08338 4.85828L7.55005 1.92495C8.35005 0.333285 9.65005 0.333285 10.4417 1.92495Z" fill="#FBBC05"/>
</svg>
