<svg width="17" height="17" viewBox="0 0 17 17" fill="none" xmlns="http://www.w3.org/2000/svg">
<path d="M14.5202 8.00412V4.98663C14.5202 2.13205 13.8543 1.41663 11.1768 1.41663H5.82185C3.14435 1.41663 2.47852 2.13205 2.47852 4.98663V12.9625C2.47852 14.8466 3.51269 15.2929 4.76644 13.947L4.77351 13.94C5.35434 13.3237 6.23976 13.3733 6.74267 14.0462L7.4581 15.0025" stroke="#00CC99" stroke-width="1.2" stroke-linecap="round" stroke-linejoin="round"/>
<path d="M5.66602 4.95837H11.3327" stroke="#00CC99" stroke-width="1.2" stroke-linecap="round" stroke-linejoin="round"/>
<path d="M6.375 7.79163H10.625" stroke="#00CC99" stroke-width="1.2" stroke-linecap="round" stroke-linejoin="round"/>
<path d="M12.9001 10.4623L10.3926 12.9698C10.2935 13.069 10.2014 13.2531 10.1801 13.3877L10.0455 14.344C9.99595 14.691 10.2368 14.9319 10.5839 14.8823L11.5401 14.7477C11.6747 14.7265 11.866 14.6344 11.958 14.5352L14.4655 12.0277C14.8976 11.5956 15.103 11.0927 14.4655 10.4552C13.8351 9.82479 13.3322 10.0302 12.9001 10.4623Z" stroke="#00CC99" stroke-width="1.2" stroke-miterlimit="10" stroke-linecap="round" stroke-linejoin="round"/>
<path d="M12.5371 10.8235C12.7496 11.5885 13.3446 12.1835 14.1096 12.396" stroke="#00CC99" stroke-width="1.2" stroke-miterlimit="10" stroke-linecap="round" stroke-linejoin="round"/>
</svg>
