<svg width="17" height="17" viewBox="0 0 17 17" fill="none" xmlns="http://www.w3.org/2000/svg">
<path d="M14.931 6.07748V10.9225C14.931 11.7158 14.506 12.4525 13.8189 12.8562L9.61138 15.2858C8.9243 15.6825 8.0743 15.6825 7.38013 15.2858L3.17263 12.8562C2.48555 12.4596 2.06055 11.7229 2.06055 10.9225V6.07748C2.06055 5.28415 2.48555 4.54745 3.17263 4.1437L7.38013 1.71413C8.06721 1.31746 8.91721 1.31746 9.61138 1.71413L13.8189 4.1437C14.506 4.54745 14.931 5.27707 14.931 6.07748Z" stroke="#00CC99" stroke-width="1.2" stroke-linecap="round" stroke-linejoin="round"/>
<path d="M8.50003 7.79166C9.41153 7.79166 10.1504 7.05273 10.1504 6.14123C10.1504 5.22973 9.41153 4.49084 8.50003 4.49084C7.58853 4.49084 6.84961 5.22973 6.84961 6.14123C6.84961 7.05273 7.58853 7.79166 8.50003 7.79166Z" stroke="#00CC99" stroke-width="1.2" stroke-linecap="round" stroke-linejoin="round"/>
<path d="M11.3327 11.8008C11.3327 10.5258 10.0648 9.4917 8.49935 9.4917C6.93393 9.4917 5.66602 10.5258 5.66602 11.8008" stroke="#00CC99" stroke-width="1.2" stroke-linecap="round" stroke-linejoin="round"/>
</svg>
