<svg width="22" height="22" viewBox="0 0 22 22" fill="none" xmlns="http://www.w3.org/2000/svg">
<path d="M19.3238 7.86507V14.135C19.3238 15.1617 18.7738 16.1151 17.8846 16.6376L12.4396 19.7817C11.5505 20.2951 10.4505 20.2951 9.55214 19.7817L4.10714 16.6376C3.21797 16.1242 2.66797 15.1709 2.66797 14.135V7.86507C2.66797 6.83841 3.21797 5.88503 4.10714 5.36253L9.55214 2.21837C10.4413 1.70504 11.5413 1.70504 12.4396 2.21837L17.8846 5.36253C18.7738 5.88503 19.3238 6.82924 19.3238 7.86507Z" stroke="#000" stroke-width="1.5" stroke-linecap="round" stroke-linejoin="round"/>
<path d="M11.0011 10.0833C12.1807 10.0833 13.1369 9.12703 13.1369 7.94744C13.1369 6.76785 12.1807 5.81165 11.0011 5.81165C9.82148 5.81165 8.86523 6.76785 8.86523 7.94744C8.86523 9.12703 9.82148 10.0833 11.0011 10.0833Z" stroke="#000" stroke-width="1.5" stroke-linecap="round" stroke-linejoin="round"/>
<path d="M14.6673 15.2716C14.6673 13.6216 13.0265 12.2833 11.0007 12.2833C8.97482 12.2833 7.33398 13.6216 7.33398 15.2716" stroke="#000" stroke-width="1.5" stroke-linecap="round" stroke-linejoin="round"/>
</svg>
