<svg width="18" height="19" viewBox="0 0 18 19" fill="none" xmlns="http://www.w3.org/2000/svg">
<path d="M15.75 4.98499C13.2525 4.73749 10.74 4.60999 8.235 4.60999C6.75 4.60999 5.265 4.68499 3.78 4.83499L2.25 4.98499" stroke="#F45151" stroke-width="1.5" stroke-linecap="round" stroke-linejoin="round"/>
<path d="M6.375 4.2275L6.54 3.245C6.66 2.5325 6.75 2 8.0175 2H9.9825C11.25 2 11.3475 2.5625 11.46 3.2525L11.625 4.2275" stroke="#F45151" stroke-width="1.5" stroke-linecap="round" stroke-linejoin="round"/>
<path d="M14.1383 7.35498L13.6508 14.9075C13.5683 16.085 13.5008 17 11.4083 17H6.59328C4.50078 17 4.43328 16.085 4.35078 14.9075L3.86328 7.35498" stroke="#F45151" stroke-width="1.5" stroke-linecap="round" stroke-linejoin="round"/>
<path d="M7.74609 12.875H10.2436" stroke="#F45151" stroke-width="1.5" stroke-linecap="round" stroke-linejoin="round"/>
<path d="M7.125 9.875H10.875" stroke="#F45151" stroke-width="1.5" stroke-linecap="round" stroke-linejoin="round"/>
</svg>
