<svg width="34" height="34" viewBox="0 0 34 34" fill="none" xmlns="http://www.w3.org/2000/svg">
<path d="M31.1673 21.25V12.75C31.1673 5.66671 28.334 2.83337 21.2507 2.83337H12.7507C5.66732 2.83337 2.83398 5.66671 2.83398 12.75V21.25C2.83398 28.3334 5.66732 31.1667 12.7507 31.1667H21.2507C28.334 31.1667 31.1673 28.3334 31.1673 21.25Z" stroke="#00CC99" stroke-width="1.5" stroke-linecap="round" stroke-linejoin="round"/>
<path d="M3.57031 10.0725H30.4303" stroke="#00CC99" stroke-width="1.5" stroke-linecap="round" stroke-linejoin="round"/>
<path d="M12.0703 2.98914V9.87414" stroke="#00CC99" stroke-width="1.5" stroke-linecap="round" stroke-linejoin="round"/>
<path d="M21.9297 2.98914V9.23664" stroke="#00CC99" stroke-width="1.5" stroke-linecap="round" stroke-linejoin="round"/>
<path d="M13.8125 20.4708V18.7708C13.8125 16.5891 15.3567 15.6966 17.2408 16.7875L18.7142 17.6375L20.1875 18.4875C22.0717 19.5783 22.0717 21.3633 20.1875 22.4541L18.7142 23.3041L17.2408 24.1541C15.3567 25.245 13.8125 24.3525 13.8125 22.1708V20.4708V20.4708Z" stroke="#00CC99" stroke-width="1.5" stroke-miterlimit="10" stroke-linecap="round" stroke-linejoin="round"/>
</svg>
