<svg width="20" height="20" viewBox="0 0 20 20" fill="none" xmlns="http://www.w3.org/2000/svg">
<path d="M18.3346 12.5V7.49996C18.3346 3.33329 16.668 1.66663 12.5013 1.66663H7.5013C3.33464 1.66663 1.66797 3.33329 1.66797 7.49996V12.5C1.66797 16.6666 3.33464 18.3333 7.5013 18.3333H12.5013C16.668 18.3333 18.3346 16.6666 18.3346 12.5Z" stroke="#8492A7" stroke-width="1.5" stroke-linecap="round" stroke-linejoin="round"/>
<path d="M2.10156 5.92505H17.9016" stroke="#8492A7" stroke-width="1.5" stroke-linecap="round" stroke-linejoin="round"/>
<path d="M7.10156 1.7583V5.8083" stroke="#8492A7" stroke-width="1.5" stroke-linecap="round" stroke-linejoin="round"/>
<path d="M12.8984 1.7583V5.4333" stroke="#8492A7" stroke-width="1.5" stroke-linecap="round" stroke-linejoin="round"/>
<path d="M8.125 12.0416V11.0416C8.125 9.75827 9.03333 9.23327 10.1417 9.87493L11.0083 10.3749L11.875 10.8749C12.9833 11.5166 12.9833 12.5666 11.875 13.2083L11.0083 13.7083L10.1417 14.2083C9.03333 14.8499 8.125 14.3249 8.125 13.0416V12.0416V12.0416Z" stroke="#8492A7" stroke-width="1.5" stroke-miterlimit="10" stroke-linecap="round" stroke-linejoin="round"/>
</svg>
