<svg width="20" height="20" viewBox="0 0 20 20" fill="none" xmlns="http://www.w3.org/2000/svg">
	<path d="M9.99935 15.1667C11.8403 15.1667 13.3327 13.6743 13.3327 11.8333C13.3327 9.99238 11.8403 8.5 9.99935 8.5C8.1584 8.5 6.66602 9.99238 6.66602 11.8333C6.66602 13.6743 8.1584 15.1667 9.99935 15.1667Z" stroke="#536780" stroke-width="1.5" stroke-miterlimit="10" stroke-linecap="round" stroke-linejoin="round" />
	<path d="M10.2077 10.7916V11.5666C10.2077 11.8583 10.0577 12.1333 9.79935 12.2833L9.16602 12.6666" stroke="#536780" stroke-width="1.5" stroke-miterlimit="10" stroke-linecap="round" stroke-linejoin="round" />
	<path d="M6.66734 18.3333H13.334C16.684 18.3333 17.284 16.9917 17.459 15.3583L18.084 8.69167C18.309 6.65833 17.7257 5 14.1673 5H5.834C2.27567 5 1.69234 6.65833 1.91734 8.69167L2.54234 15.3583C2.71734 16.9917 3.31734 18.3333 6.66734 18.3333Z" stroke="#536780" stroke-width="1.5" stroke-miterlimit="10" stroke-linecap="round" stroke-linejoin="round" />
	<path d="M6.66602 4.99996V4.33329C6.66602 2.85829 6.66602 1.66663 9.33268 1.66663H10.666C13.3327 1.66663 13.3327 2.85829 13.3327 4.33329V4.99996" stroke="#536780" stroke-width="1.5" stroke-miterlimit="10" stroke-linecap="round" stroke-linejoin="round" />
	<path d="M18.0418 9.16663C16.6001 10.2166 15.0001 10.95 13.3418 11.3666" stroke="#536780" stroke-width="1.5" stroke-miterlimit="10" stroke-linecap="round" stroke-linejoin="round" />
	<path d="M2.18359 9.39172C3.57526 10.3417 5.09193 11.0167 6.66693 11.4001" stroke="#536780" stroke-width="1.5" stroke-miterlimit="10" stroke-linecap="round" stroke-linejoin="round" />
</svg>
